{"glyphs":{"0":{"ha":789,"x_min":47,"x_max":742,"o":"m 742 483 q 649 110 742 240 q 394 -19 557 -19 q 140 110 232 -19 q 47 483 47 240 q 72 697 47 604 q 142 854 96 790 q 251 951 188 918 q 394 985 315 985 q 649 855 557 985 q 742 483 742 725 m 531 483 q 524 615 531 556 q 501 717 517 674 q 460 783 486 760 q 394 807 433 807 q 330 783 356 807 q 288 717 304 760 q 265 615 272 674 q 258 483 258 556 q 265 351 258 411 q 288 249 272 292 q 330 182 304 206 q 394 158 356 158 q 460 182 433 158 q 501 249 486 206 q 524 351 517 292 q 531 483 531 411 z "},"1":{"ha":789,"x_min":97,"x_max":560,"o":"m 97 763 q 181 801 138 779 q 267 848 225 822 q 347 902 308 874 q 415 963 385 931 l 560 963 l 560 0 l 353 0 l 353 693 q 260 642 311 665 q 160 603 208 619 l 97 763 z "},"2":{"ha":789,"x_min":49,"x_max":718,"o":"m 689 710 q 668 608 689 657 q 614 515 647 560 q 539 428 581 469 q 457 349 497 386 q 412 305 436 329 q 365 256 388 281 q 326 209 343 231 q 304 174 308 188 l 718 174 l 718 0 l 76 0 q 74 39 74 15 q 74 72 74 63 q 95 194 74 139 q 151 298 117 250 q 230 388 186 346 q 317 471 274 429 q 379 531 350 503 q 431 587 408 560 q 465 641 453 614 q 478 696 478 668 q 443 782 478 757 q 357 807 408 807 q 287 795 319 807 q 227 767 254 783 q 181 735 200 751 q 151 710 161 719 l 49 854 q 191 948 110 911 q 365 985 272 985 q 511 965 450 985 q 612 910 572 946 q 670 824 651 875 q 689 710 689 774 z "},"3":{"ha":789,"x_min":36,"x_max":701,"o":"m 317 -21 q 238 -16 279 -21 q 157 -3 196 -11 q 86 15 118 6 q 36 33 54 25 l 76 206 q 169 173 113 190 q 308 156 225 156 q 449 192 404 156 q 493 289 493 228 q 477 352 493 326 q 433 394 461 378 q 367 416 406 410 q 286 422 329 422 l 206 422 l 206 589 l 297 589 q 356 594 328 589 q 407 613 385 600 q 442 649 429 626 q 456 707 456 672 q 444 753 456 733 q 416 785 433 772 q 376 803 399 797 q 329 810 353 810 q 219 792 269 810 q 126 747 168 774 l 53 899 q 105 928 75 913 q 171 956 135 943 q 248 976 207 968 q 335 985 289 985 q 481 965 419 985 q 583 908 543 944 q 643 822 624 871 q 663 714 663 772 q 631 603 663 657 q 544 522 599 550 q 660 431 619 492 q 701 286 701 371 q 679 163 701 219 q 610 66 657 107 q 490 2 563 25 q 317 -21 417 -21 z "},"4":{"ha":789,"x_min":28,"x_max":749,"o":"m 443 710 q 328 556 389 639 q 225 385 267 472 l 443 385 l 443 710 m 646 963 l 646 385 l 749 385 l 749 215 l 646 215 l 646 0 l 443 0 l 443 215 l 28 215 l 28 367 q 104 505 58 428 q 206 663 150 582 q 325 822 263 744 q 450 963 388 900 l 646 963 z "},"5":{"ha":789,"x_min":53,"x_max":707,"o":"m 500 283 q 482 355 500 324 q 419 407 464 386 q 300 439 375 428 q 111 450 225 450 q 136 713 126 579 q 151 963 146 846 l 672 963 l 672 789 l 325 789 q 319 692 322 739 q 311 611 315 646 q 610 516 514 597 q 707 290 707 435 q 683 167 707 224 q 613 68 660 110 q 494 3 565 26 q 326 -21 422 -21 q 248 -16 289 -21 q 169 -3 207 -11 q 100 13 131 4 q 53 29 69 21 l 90 200 q 182 170 125 185 q 318 156 239 156 q 457 194 414 156 q 500 283 500 232 z "},"6":{"ha":789,"x_min":51,"x_max":740,"o":"m 381 453 q 315 447 350 453 q 261 432 281 442 q 260 415 261 426 q 260 396 260 404 q 267 301 260 346 q 290 224 274 257 q 335 172 307 190 q 404 153 363 153 q 463 167 439 153 q 503 204 488 182 q 527 253 519 226 q 535 306 535 281 q 499 415 535 376 q 381 453 464 453 m 407 614 q 560 590 497 614 q 664 524 624 565 q 722 426 704 482 q 740 308 740 371 q 720 194 740 253 q 659 89 700 136 q 555 11 618 42 q 406 -19 492 -19 q 142 90 232 -19 q 51 393 51 200 q 94 639 51 532 q 217 819 138 746 q 410 930 297 892 q 665 969 524 968 q 671 885 668 926 q 676 800 674 844 q 544 787 606 799 q 431 750 482 775 q 343 685 381 725 q 285 589 306 646 q 347 608 315 603 q 407 614 379 614 z "},"7":{"ha":789,"x_min":60,"x_max":733,"o":"m 197 0 q 232 211 206 101 q 297 426 258 321 q 382 626 335 532 q 478 788 429 719 l 60 788 l 60 964 l 733 964 l 733 814 q 635 679 689 765 q 534 484 582 593 q 451 250 486 375 q 407 0 415 125 l 197 0 z "},"8":{"ha":789,"x_min":54,"x_max":736,"o":"m 736 268 q 715 153 736 206 q 650 63 693 101 q 542 2 607 24 q 393 -19 478 -19 q 231 8 296 -19 q 127 75 167 35 q 71 163 88 115 q 54 251 54 211 q 65 328 54 293 q 96 391 76 363 q 140 443 115 419 q 192 488 164 467 q 103 583 132 536 q 75 704 75 631 q 98 811 75 760 q 163 901 121 863 q 263 962 204 939 q 394 985 322 985 q 540 960 479 985 q 639 899 600 936 q 695 815 678 861 q 713 722 713 768 q 677 598 713 656 q 589 507 642 540 q 702 399 668 456 q 736 268 736 343 m 256 260 q 263 223 256 243 q 288 186 271 203 q 331 158 304 169 q 394 147 357 147 q 500 182 467 147 q 533 260 533 217 q 519 317 533 292 q 479 360 504 342 q 420 394 454 379 q 347 421 386 408 q 282 353 308 392 q 256 260 256 314 m 513 717 q 506 749 513 732 q 485 782 500 767 q 449 808 471 797 q 394 818 426 818 q 342 808 364 818 q 305 783 319 799 q 283 749 290 767 q 276 714 276 731 q 309 631 276 669 q 421 564 342 592 q 489 628 465 592 q 513 717 513 664 z "},"9":{"ha":789,"x_min":39,"x_max":729,"o":"m 401 517 q 468 523 433 517 q 519 540 503 529 l 519 553 q 520 564 519 558 q 521 574 521 569 q 513 667 519 624 q 489 744 506 711 q 444 795 472 776 q 374 814 415 814 q 315 800 340 814 q 275 764 290 786 q 252 715 260 742 q 244 664 244 689 q 281 553 244 589 q 401 517 318 517 m 503 382 q 438 362 474 368 q 378 356 403 356 q 224 377 288 356 q 119 438 160 399 q 58 533 78 478 q 39 656 39 589 q 58 769 39 711 q 117 876 76 828 q 219 955 157 924 q 368 986 281 986 q 638 876 547 986 q 729 558 729 765 q 694 318 729 422 q 584 143 658 214 q 394 35 510 72 q 121 -3 279 -1 q 117 83 119 42 q 111 169 114 125 q 254 181 190 171 q 367 216 318 192 q 449 281 415 240 q 503 382 483 321 z "},"\u0000":{"ha":0,"x_min":0,"x_max":0,"o":""},"\t":{"ha":333,"x_min":0,"x_max":0,"o":""}," ":{"ha":333,"x_min":0,"x_max":0,"o":""},"!":{"ha":397,"x_min":69,"x_max":328,"o":"m 310 714 q 301 504 310 601 q 279 307 293 407 l 121 307 q 98 504 107 407 q 89 714 89 601 l 89 963 l 310 963 l 310 714 m 328 110 q 288 15 328 49 q 199 -18 249 -18 q 109 15 149 -18 q 69 110 69 49 q 109 204 69 171 q 199 238 149 238 q 288 204 249 238 q 328 110 328 171 z "},"\"":{"ha":646,"x_min":69,"x_max":576,"o":"m 274 1056 l 274 953 q 263 807 274 886 q 240 647 253 728 l 103 647 q 78 807 88 728 q 69 954 69 886 l 69 1056 l 274 1056 m 576 1056 l 576 953 q 566 807 576 886 q 543 647 556 728 l 406 647 q 381 807 390 728 q 372 954 372 886 l 372 1056 l 576 1056 z "},"#":{"ha":971,"x_min":76,"x_max":894,"o":"m 451 726 l 613 726 l 658 963 l 839 963 l 793 726 l 894 726 l 894 567 l 763 567 l 729 396 l 894 396 l 894 236 l 699 236 l 654 0 l 474 0 l 518 236 l 357 236 l 313 0 l 132 0 l 176 236 l 76 236 l 76 396 l 207 396 l 240 567 l 76 567 l 76 726 l 271 726 l 317 963 l 497 963 l 451 726 m 388 396 l 549 396 l 582 567 l 421 567 l 388 396 z "},"$":{"ha":789,"x_min":49,"x_max":726,"o":"m 307 14 q 142 45 206 22 q 49 83 79 68 l 108 243 q 224 200 157 219 q 367 181 292 181 q 483 203 451 181 q 514 268 514 226 q 501 313 514 294 q 465 347 489 332 q 406 377 442 363 q 322 408 369 392 q 233 445 276 425 q 153 494 189 465 q 97 566 118 524 q 75 668 75 608 q 88 756 75 714 q 129 833 101 799 q 201 892 157 868 q 307 928 246 917 l 307 1078 l 482 1078 l 482 933 q 606 913 554 926 q 689 885 658 899 l 646 718 q 540 751 600 738 q 413 765 479 765 q 317 743 346 765 q 288 685 288 721 q 297 647 288 663 q 325 618 306 631 q 373 594 344 606 q 442 568 401 582 q 555 519 503 546 q 645 459 607 493 q 705 379 683 425 q 726 272 726 333 q 714 190 726 231 q 672 114 701 149 q 597 54 643 79 q 482 18 550 29 l 482 -151 l 307 -151 l 307 14 z "},"%":{"ha":1275,"x_min":49,"x_max":1226,"o":"m 540 715 q 474 515 540 585 q 294 446 407 446 q 115 515 182 446 q 49 715 49 585 q 115 915 49 846 q 294 985 182 985 q 474 915 407 985 q 540 715 540 846 m 383 715 q 358 818 383 786 q 294 850 333 850 q 230 818 254 850 q 206 715 206 786 q 230 612 206 644 q 294 579 254 579 q 358 612 333 579 q 383 715 383 644 m 811 963 l 1004 963 l 461 0 l 268 0 l 811 963 m 1226 247 q 1160 47 1226 117 q 981 -22 1093 -22 q 801 47 868 -22 q 735 247 735 117 q 801 447 735 378 q 981 517 868 517 q 1160 447 1093 517 q 1226 247 1226 378 m 1069 247 q 1044 350 1069 318 q 981 382 1019 382 q 916 350 940 382 q 892 247 892 318 q 916 144 892 176 q 981 111 940 111 q 1044 144 1019 111 q 1069 247 1069 176 z "},"&":{"ha":979,"x_min":49,"x_max":965,"o":"m 49 256 q 64 352 49 308 q 105 431 79 396 q 165 494 131 467 q 236 542 199 521 q 176 628 203 582 q 150 731 150 675 q 224 919 150 853 q 426 985 297 985 q 540 967 492 985 q 622 920 589 950 q 671 851 654 890 q 688 765 688 811 q 640 615 688 681 q 518 504 592 549 l 674 349 q 698 419 686 376 q 713 493 710 461 l 885 471 q 875 413 882 444 q 858 350 868 382 q 834 286 847 318 q 806 228 821 254 q 892 119 850 178 q 965 0 935 60 l 753 0 q 722 45 742 18 q 683 92 703 72 q 554 17 628 47 q 389 -12 481 -12 q 226 12 292 -12 q 122 74 161 36 q 65 160 82 113 q 49 256 49 208 m 242 276 q 250 233 242 256 q 277 192 258 211 q 325 162 296 174 q 396 150 354 150 q 498 165 454 150 q 571 206 542 181 l 349 429 q 310 406 329 419 q 276 373 292 392 q 251 331 261 354 q 242 276 242 307 m 511 756 q 490 813 511 788 q 421 838 469 838 q 352 810 376 838 q 328 740 328 783 q 349 670 328 704 q 403 606 369 636 q 479 665 447 631 q 511 756 511 700 z "},"'":{"ha":343,"x_min":69,"x_max":274,"o":"m 274 1056 l 274 953 q 263 807 274 886 q 240 647 253 728 l 103 647 q 78 807 88 728 q 69 954 69 886 l 69 1056 l 274 1056 z "},"(":{"ha":494,"x_min":97,"x_max":488,"o":"m 301 415 q 353 103 301 251 q 488 -164 404 -46 l 343 -257 q 161 51 225 -119 q 97 415 97 222 q 161 779 97 608 q 343 1088 225 950 l 488 994 q 353 728 404 876 q 301 415 301 579 z "},")":{"ha":494,"x_min":7,"x_max":397,"o":"m 193 415 q 142 728 193 579 q 7 994 90 876 l 151 1088 q 333 779 269 950 q 397 415 397 608 q 333 51 397 222 q 151 -257 269 -119 l 7 -164 q 142 103 90 -46 q 193 415 193 251 z "},"*":{"ha":697,"x_min":56,"x_max":642,"o":"m 393 744 q 428 772 407 757 q 470 801 449 786 q 514 827 492 815 q 553 844 536 839 l 586 856 l 642 683 l 608 672 q 567 664 590 667 q 517 660 543 661 q 465 660 490 660 q 421 660 440 660 q 458 634 438 649 q 498 603 478 619 q 536 571 518 588 q 565 539 554 554 l 588 510 l 440 406 l 419 433 q 398 469 408 447 q 378 516 388 492 q 361 564 368 540 q 349 607 354 588 q 336 564 343 588 q 319 516 329 540 q 299 469 310 492 q 278 433 289 447 l 257 406 l 110 510 l 132 539 q 161 571 143 554 q 199 603 179 588 q 240 634 219 619 q 276 660 260 649 q 232 660 257 660 q 181 660 207 660 q 131 664 154 661 q 89 672 107 667 l 56 683 l 111 856 l 144 844 q 183 827 161 839 q 227 801 206 815 q 269 772 249 786 q 304 744 289 757 q 290 787 297 763 q 275 836 282 811 q 263 885 268 861 q 258 928 258 910 l 258 963 l 439 963 l 439 928 q 434 885 439 910 q 422 836 429 861 q 408 787 415 811 q 393 744 400 763 z "},"+":{"ha":789,"x_min":68,"x_max":721,"o":"m 68 501 l 300 501 l 300 758 l 489 758 l 489 501 l 721 501 l 721 328 l 489 328 l 489 71 l 300 71 l 300 328 l 68 328 l 68 501 z "},",":{"ha":342,"x_min":24,"x_max":297,"o":"m 293 211 q 297 164 296 178 q 297 140 297 150 q 290 52 297 99 q 268 -42 282 6 q 233 -136 254 -89 q 186 -226 213 -183 l 24 -186 q 68 -14 56 -94 q 81 119 81 67 q 80 141 81 128 q 78 168 79 154 q 77 194 78 182 q 76 211 76 207 l 293 211 z "},"-":{"ha":472,"x_min":35,"x_max":438,"o":"m 35 508 l 438 508 l 438 321 l 35 321 l 35 508 z "},".":{"ha":342,"x_min":42,"x_max":300,"o":"m 300 110 q 260 15 300 47 q 171 -18 221 -18 q 81 15 121 -18 q 42 110 42 47 q 81 205 42 172 q 171 238 121 238 q 260 205 221 238 q 300 110 300 172 z "},"/":{"ha":607,"x_min":-35,"x_max":642,"o":"m 178 -257 l -35 -257 l 432 1088 l 642 1088 l 178 -257 z "},":":{"ha":342,"x_min":42,"x_max":300,"o":"m 300 603 q 260 508 300 540 q 171 475 221 475 q 81 508 121 475 q 42 603 42 540 q 81 698 42 665 q 171 731 121 731 q 260 698 221 731 q 300 603 300 665 m 300 110 q 260 15 300 47 q 171 -18 221 -18 q 81 15 121 -18 q 42 110 42 47 q 81 205 42 172 q 171 238 121 238 q 260 205 221 238 q 300 110 300 172 z "},";":{"ha":342,"x_min":24,"x_max":300,"o":"m 300 603 q 260 508 300 540 q 171 475 221 475 q 81 508 121 475 q 42 603 42 540 q 81 698 42 665 q 171 731 121 731 q 260 698 221 731 q 300 603 300 665 m 293 211 q 297 164 296 178 q 297 140 297 150 q 290 52 297 99 q 268 -42 282 6 q 233 -136 254 -89 q 186 -226 213 -183 l 24 -186 q 68 -14 56 -94 q 81 119 81 67 q 80 141 81 128 q 78 168 79 154 q 77 194 78 182 q 76 211 76 207 l 293 211 z "},"<":{"ha":789,"x_min":69,"x_max":721,"o":"m 69 501 l 667 753 l 721 585 l 285 415 l 721 246 l 667 78 l 69 329 l 69 501 z "},"=":{"ha":789,"x_min":68,"x_max":721,"o":"m 68 349 l 721 349 l 721 175 l 68 175 l 68 349 m 68 653 l 721 653 l 721 479 l 68 479 l 68 653 z "},">":{"ha":789,"x_min":68,"x_max":719,"o":"m 719 329 l 122 78 l 68 246 l 504 415 l 68 585 l 122 753 l 719 501 l 719 329 z "},"?":{"ha":632,"x_min":28,"x_max":597,"o":"m 279 808 q 185 796 229 808 q 86 756 140 783 l 28 913 q 156 966 82 947 q 300 985 229 985 q 447 961 389 985 q 538 901 504 938 q 584 822 571 865 q 597 740 597 779 q 585 669 597 701 q 556 608 574 636 q 514 556 538 581 q 468 508 490 531 q 433 473 451 492 q 401 433 415 454 q 376 390 386 413 q 367 343 367 367 q 367 326 367 338 q 368 307 367 315 l 185 307 q 181 338 182 321 q 181 368 181 356 q 190 438 181 407 q 216 497 200 469 q 253 547 232 524 q 296 593 274 571 q 354 656 328 625 q 381 728 381 688 q 355 785 381 761 q 279 808 329 808 m 408 110 q 369 15 408 49 q 279 -18 329 -18 q 190 15 229 -18 q 150 110 150 49 q 190 204 150 171 q 279 238 229 238 q 369 204 329 238 q 408 110 408 171 z "},"@":{"ha":1353,"x_min":69,"x_max":1283,"o":"m 974 39 q 893 49 933 39 q 826 83 853 58 q 672 40 765 40 q 545 62 603 40 q 447 126 488 83 q 383 233 406 169 q 360 379 360 296 q 383 511 360 450 q 450 617 406 572 q 559 689 494 663 q 706 715 624 715 q 851 701 788 715 q 956 671 914 686 l 956 235 q 969 192 956 203 q 1007 181 982 181 q 1051 193 1029 181 q 1088 238 1072 206 q 1113 327 1103 271 q 1122 469 1122 383 q 1092 627 1122 556 q 1006 749 1063 699 q 869 828 950 800 q 685 857 788 857 q 503 824 586 857 q 360 728 421 790 q 266 578 300 667 q 232 378 232 489 q 265 176 232 263 q 360 31 299 89 q 510 -58 422 -28 q 710 -87 599 -87 q 841 -78 779 -87 q 944 -61 903 -69 l 965 -192 q 860 -215 931 -203 q 710 -228 789 -228 q 460 -193 576 -228 q 256 -85 343 -158 q 119 103 169 -11 q 69 378 69 218 q 122 648 69 532 q 261 842 175 764 q 458 958 347 919 q 685 997 568 997 q 922 962 813 997 q 1112 858 1032 926 q 1238 690 1192 790 q 1283 458 1283 589 q 1262 278 1283 357 q 1199 147 1240 200 q 1101 67 1158 94 q 974 39 1044 39 m 778 204 q 774 237 775 215 q 772 278 772 258 l 772 561 q 714 567 744 567 q 636 552 668 567 q 585 513 604 538 q 556 453 565 488 q 547 379 547 419 q 554 305 547 339 q 578 246 561 271 q 625 206 596 221 q 697 192 654 192 q 744 195 722 192 q 778 204 767 199 z "},"A":{"ha":1001,"x_min":14,"x_max":988,"o":"m 756 0 q 722 103 740 50 q 685 208 703 156 l 310 208 q 273 103 292 156 q 239 0 254 50 l 14 0 q 117 288 68 156 q 212 536 165 419 q 303 758 258 653 q 397 963 349 863 l 604 963 q 697 758 651 863 q 790 536 743 653 q 885 288 836 419 q 988 0 933 156 l 756 0 m 496 744 q 475 688 489 724 q 443 604 461 651 q 403 500 425 557 q 360 381 382 443 l 633 381 q 590 500 611 443 q 551 604 569 557 q 518 688 532 651 q 496 744 504 724 z "},"B":{"ha":933,"x_min":111,"x_max":871,"o":"m 432 -12 q 274 -8 353 -12 q 111 15 196 -3 l 111 949 q 257 967 178 961 q 404 974 336 974 q 573 960 496 974 q 706 915 650 947 q 792 831 761 883 q 824 703 824 779 q 713 521 824 588 q 838 426 804 486 q 871 292 871 367 q 760 64 871 140 q 432 -12 650 -12 m 322 419 l 322 171 q 374 167 346 168 q 435 165 401 165 q 592 193 532 165 q 651 296 651 221 q 601 391 651 363 q 458 419 551 419 l 322 419 m 322 585 l 428 585 q 571 610 528 585 q 614 693 614 636 q 569 775 614 751 q 439 799 525 799 q 379 798 411 799 q 322 794 347 797 l 322 585 z "},"C":{"ha":900,"x_min":69,"x_max":872,"o":"m 550 -19 q 192 111 315 -19 q 69 482 69 242 q 107 695 69 601 q 210 853 144 789 q 365 951 275 918 q 561 985 456 985 q 672 976 622 985 q 760 955 722 967 q 822 931 797 943 q 858 911 847 918 l 796 736 q 692 776 751 760 q 558 793 633 793 q 460 776 508 793 q 376 723 413 760 q 317 628 339 686 q 294 486 294 569 q 309 362 294 419 q 356 263 324 304 q 442 197 389 221 q 569 172 494 172 q 654 178 617 172 q 721 191 692 183 q 772 208 750 199 q 813 226 794 218 l 872 53 q 743 3 826 25 q 550 -19 660 -19 z "},"D":{"ha":1024,"x_min":111,"x_max":954,"o":"m 328 176 q 363 174 343 175 q 411 174 383 174 q 652 256 574 174 q 731 482 731 338 q 656 711 731 633 q 418 789 581 789 q 372 788 396 789 q 328 785 349 788 l 328 176 m 954 482 q 915 264 954 357 q 805 110 876 171 q 631 18 733 49 q 400 -12 528 -12 q 264 -8 342 -12 q 111 13 186 -3 l 111 950 q 267 969 186 964 q 407 974 349 974 q 631 946 531 974 q 804 858 732 918 q 915 706 876 799 q 954 482 954 613 z "},"E":{"ha":842,"x_min":111,"x_max":793,"o":"m 111 0 l 111 963 l 761 963 l 761 781 l 328 781 l 328 592 l 713 592 l 713 414 l 328 414 l 328 182 l 793 182 l 793 0 l 111 0 z "},"F":{"ha":797,"x_min":111,"x_max":756,"o":"m 111 0 l 111 963 l 756 963 l 756 781 l 328 781 l 328 579 l 708 579 l 708 397 l 328 397 l 328 0 l 111 0 z "},"G":{"ha":975,"x_min":69,"x_max":885,"o":"m 581 796 q 362 712 429 796 q 294 482 294 628 q 311 353 294 411 q 361 254 328 296 q 444 190 394 213 q 561 167 494 167 q 623 168 597 167 q 668 174 649 169 l 668 508 l 885 508 l 885 32 q 760 -1 846 17 q 547 -18 674 -18 q 351 15 439 -18 q 200 113 263 49 q 103 269 138 176 q 69 482 69 363 q 107 696 69 603 q 210 853 144 789 q 363 951 275 918 q 551 985 451 985 q 674 976 619 985 q 769 955 729 967 q 834 931 808 943 q 871 911 860 918 l 808 738 q 706 778 764 761 q 581 796 649 796 z "},"H":{"ha":1019,"x_min":111,"x_max":908,"o":"m 692 963 l 908 963 l 908 0 l 692 0 l 692 408 l 328 408 l 328 0 l 111 0 l 111 963 l 328 963 l 328 594 l 692 594 l 692 963 z "},"I":{"ha":439,"x_min":111,"x_max":328,"o":"m 111 963 l 328 963 l 328 0 l 111 0 l 111 963 z "},"J":{"ha":735,"x_min":14,"x_max":638,"o":"m 638 324 q 622 190 638 253 q 566 81 606 128 q 459 8 526 35 q 289 -19 392 -19 q 126 3 194 -19 q 14 57 58 26 l 86 225 q 172 183 126 201 q 272 165 218 165 q 386 204 351 165 q 421 335 421 243 l 421 963 l 638 963 l 638 324 z "},"K":{"ha":950,"x_min":111,"x_max":936,"o":"m 679 0 q 610 102 650 47 q 524 212 571 157 q 428 317 478 267 q 328 407 378 368 l 328 0 l 111 0 l 111 963 l 328 963 l 328 599 q 498 784 413 688 q 657 963 583 881 l 914 963 q 716 738 815 846 q 507 519 617 629 q 730 292 622 424 q 936 0 838 160 l 679 0 z "},"L":{"ha":782,"x_min":111,"x_max":754,"o":"m 754 186 l 754 0 l 111 0 l 111 963 l 328 963 l 328 186 l 754 186 z "},"M":{"ha":1246,"x_min":83,"x_max":1163,"o":"m 367 963 q 424 849 392 917 q 492 703 457 782 q 563 543 528 625 q 628 389 597 461 q 693 543 658 461 q 763 703 728 625 q 831 849 799 782 q 889 963 864 917 l 1086 963 q 1112 748 1100 867 q 1133 501 1124 629 q 1149 243 1142 372 q 1163 0 1157 114 l 951 0 q 940 306 947 140 q 919 639 933 471 q 864 510 894 581 q 803 368 833 439 q 746 233 774 297 q 699 122 718 168 l 547 122 q 500 233 528 168 q 442 368 472 297 q 382 510 413 439 q 326 639 351 581 q 306 306 313 471 q 294 0 299 140 l 83 0 q 97 243 89 114 q 113 501 104 372 q 134 748 122 629 q 160 963 146 867 l 367 963 z "},"N":{"ha":1050,"x_min":111,"x_max":939,"o":"m 757 0 q 556 326 664 165 q 325 631 447 488 l 325 0 l 111 0 l 111 963 l 288 963 q 389 850 333 917 q 502 708 444 783 q 617 551 560 632 q 724 394 674 469 l 724 963 l 939 963 l 939 0 l 757 0 z "},"O":{"ha":1097,"x_min":69,"x_max":1028,"o":"m 293 482 q 310 354 293 411 q 360 256 328 297 q 440 193 393 215 q 549 171 488 171 q 656 193 608 171 q 737 256 704 215 q 787 354 769 297 q 804 482 804 411 q 787 610 804 553 q 737 709 769 668 q 656 772 704 750 q 549 794 608 794 q 440 772 488 794 q 360 708 393 749 q 310 609 328 667 q 293 482 293 551 m 1028 482 q 991 265 1028 358 q 890 108 954 171 q 738 13 826 44 q 549 -19 650 -19 q 363 13 450 -19 q 210 108 275 44 q 107 265 144 171 q 69 482 69 358 q 108 699 69 606 q 213 857 147 793 q 366 953 279 921 q 549 985 453 985 q 735 953 647 985 q 888 857 822 921 q 990 699 953 793 q 1028 482 1028 606 z "},"P":{"ha":894,"x_min":111,"x_max":846,"o":"m 400 974 q 731 898 615 974 q 846 650 846 822 q 729 399 846 476 q 396 322 613 322 l 328 322 l 328 0 l 111 0 l 111 949 q 261 968 182 963 q 400 974 340 974 m 414 789 q 367 788 390 789 q 328 785 344 786 l 328 507 l 396 507 q 565 538 508 507 q 622 651 622 568 q 608 718 622 692 q 566 760 593 744 q 500 783 539 776 q 414 789 461 789 z "},"Q":{"ha":1097,"x_min":69,"x_max":1028,"o":"m 293 482 q 310 354 293 411 q 360 256 328 297 q 440 193 393 215 q 549 171 488 171 q 656 193 608 171 q 737 256 704 215 q 787 354 769 297 q 804 482 804 411 q 787 610 804 553 q 737 709 769 668 q 656 772 704 750 q 549 794 608 794 q 440 772 488 794 q 360 708 393 749 q 310 609 328 667 q 293 482 293 551 m 1028 482 q 1003 299 1028 381 q 933 157 978 218 q 825 56 888 96 q 688 -3 763 15 q 718 -48 694 -31 q 778 -76 742 -65 q 862 -93 814 -87 q 965 -103 910 -99 l 921 -261 q 735 -240 813 -257 q 605 -192 658 -222 q 520 -117 551 -161 q 472 -14 489 -72 q 313 34 386 -3 q 185 133 239 71 q 100 283 131 196 q 69 482 69 371 q 108 699 69 606 q 213 857 147 793 q 366 953 279 921 q 549 985 453 985 q 735 953 647 985 q 888 857 822 921 q 990 699 953 793 q 1028 482 1028 606 z "},"R":{"ha":926,"x_min":111,"x_max":899,"o":"m 393 974 q 725 897 610 974 q 840 657 840 819 q 794 492 840 556 q 660 393 747 429 q 721 310 689 357 q 784 213 753 264 q 844 108 815 163 q 899 0 874 53 l 656 0 q 602 96 629 47 q 547 190 575 144 q 490 277 518 236 q 435 351 463 318 l 328 351 l 328 0 l 111 0 l 111 949 q 258 968 182 963 q 393 974 333 974 m 406 789 q 363 788 382 789 q 328 785 344 786 l 328 524 l 389 524 q 564 554 511 524 q 617 658 617 585 q 563 759 617 729 q 406 789 510 789 z "},"S":{"ha":808,"x_min":51,"x_max":753,"o":"m 374 165 q 449 173 419 165 q 497 194 479 181 q 522 225 515 207 q 529 265 529 243 q 485 344 529 313 q 332 411 440 375 q 238 449 285 428 q 153 503 190 471 q 92 583 115 536 q 68 696 68 629 q 93 816 68 763 q 164 907 118 869 q 275 965 210 944 q 422 985 340 985 q 590 964 519 985 q 707 918 661 943 l 644 747 q 555 784 604 768 q 436 800 506 800 q 324 778 358 800 q 290 713 290 757 q 303 668 290 686 q 338 635 315 650 q 391 609 361 621 q 457 585 421 597 q 588 530 532 557 q 680 467 643 503 q 735 382 717 431 q 753 264 753 333 q 658 55 753 129 q 374 -19 564 -19 q 258 -12 310 -19 q 167 7 207 -4 q 99 31 128 18 q 51 54 71 43 l 113 226 q 219 184 156 203 q 374 165 282 165 z "},"T":{"ha":853,"x_min":28,"x_max":825,"o":"m 825 963 l 825 778 l 535 778 l 535 0 l 318 0 l 318 778 l 28 778 l 28 963 l 825 963 z "},"U":{"ha":982,"x_min":97,"x_max":885,"o":"m 488 -19 q 313 9 386 -19 q 191 88 239 38 q 120 209 143 139 q 97 364 97 279 l 97 963 l 314 963 l 314 382 q 327 283 314 324 q 363 216 340 242 q 419 179 386 190 q 490 168 451 168 q 619 217 569 168 q 668 382 668 265 l 668 963 l 885 963 l 885 364 q 861 208 885 279 q 789 87 838 138 q 665 8 740 36 q 488 -19 590 -19 z "},"V":{"ha":1003,"x_min":14,"x_max":989,"o":"m 397 0 q 285 251 340 121 q 179 510 229 382 q 87 754 129 638 q 14 963 44 871 l 253 963 q 313 783 281 879 q 380 590 346 686 q 446 407 414 494 q 506 256 478 319 q 565 407 532 319 q 631 590 597 494 q 698 783 665 686 q 758 963 731 879 l 989 963 q 915 754 957 871 q 824 510 874 638 q 718 251 774 382 q 606 0 663 121 l 397 0 z "},"W":{"ha":1317,"x_min":28,"x_max":1289,"o":"m 757 860 q 794 731 774 803 q 837 583 814 660 q 883 431 860 507 q 929 289 907 354 q 966 443 947 360 q 1001 615 985 526 q 1034 792 1018 704 q 1064 963 1050 881 l 1289 963 q 1177 472 1240 721 q 1040 0 1114 224 l 842 0 q 747 280 793 133 q 657 574 701 426 q 568 280 613 426 q 475 0 524 133 l 276 0 q 140 472 203 224 q 28 963 76 721 l 263 963 q 293 792 276 881 q 328 615 310 704 q 365 443 346 526 q 403 289 383 360 q 451 433 428 357 q 497 586 475 510 q 538 733 519 663 q 572 860 557 804 l 757 860 z "},"X":{"ha":938,"x_min":14,"x_max":924,"o":"m 664 0 q 576 163 624 81 q 465 332 528 246 q 416 263 446 307 q 356 168 386 218 q 300 72 326 118 q 261 0 274 26 l 14 0 q 156 236 75 113 q 338 499 238 360 l 28 963 l 290 963 l 478 663 l 661 963 l 908 963 l 603 496 q 799 216 719 344 q 924 0 878 88 l 664 0 z "},"Y":{"ha":918,"x_min":7,"x_max":911,"o":"m 464 567 q 575 764 522 665 q 672 963 628 863 l 911 963 q 747 661 832 807 q 568 368 663 515 l 568 0 l 351 0 l 351 365 q 172 660 257 513 q 7 963 86 807 l 258 963 q 354 764 303 863 q 464 567 406 665 z "},"Z":{"ha":847,"x_min":49,"x_max":806,"o":"m 790 813 q 685 694 746 767 q 558 535 624 621 q 429 357 493 449 q 315 182 365 265 l 806 182 l 806 0 l 49 0 l 49 129 q 144 287 88 200 q 261 462 200 374 q 385 633 322 550 q 503 781 449 715 l 71 781 l 71 963 l 790 963 l 790 813 z "},"[":{"ha":515,"x_min":125,"x_max":501,"o":"m 125 1088 l 501 1088 l 501 922 l 322 922 l 322 -92 l 501 -92 l 501 -257 l 125 -257 l 125 1088 z "},"\\":{"ha":607,"x_min":-35,"x_max":642,"o":"m -35 1088 l 175 1088 l 642 -257 l 429 -257 l -35 1088 z "},"]":{"ha":515,"x_min":14,"x_max":390,"o":"m 390 -257 l 14 -257 l 14 -92 l 193 -92 l 193 922 l 14 922 l 14 1088 l 390 1088 l 390 -257 z "},"^":{"ha":789,"x_min":25,"x_max":764,"o":"m 764 486 l 590 401 l 394 742 l 199 401 l 25 486 l 313 968 l 476 968 l 764 486 z "},"_":{"ha":694,"x_min":0,"x_max":694,"o":"m 0 -85 l 694 -85 l 694 -257 l 0 -257 l 0 -85 z "},"`":{"ha":397,"x_min":28,"x_max":351,"o":"m 154 1110 l 351 885 l 257 800 l 28 993 l 154 1110 z "},"a":{"ha":768,"x_min":49,"x_max":678,"o":"m 376 144 q 435 146 407 144 q 479 150 463 147 l 479 307 q 442 313 467 310 q 396 315 417 315 q 341 312 367 315 q 296 299 315 308 q 265 272 276 289 q 254 231 254 256 q 287 163 254 182 q 376 144 319 144 m 360 750 q 513 729 451 750 q 610 669 574 708 q 663 575 647 631 q 678 451 678 519 l 678 21 q 554 -2 633 11 q 363 -15 475 -15 q 234 -3 292 -15 q 135 38 176 10 q 71 113 93 67 q 49 225 49 158 q 74 333 49 289 q 143 404 100 378 q 242 442 186 431 q 357 454 297 454 q 428 451 397 454 q 479 442 460 447 l 479 461 q 447 546 479 514 q 336 578 415 578 q 232 570 283 578 q 143 549 181 563 l 117 715 q 162 727 135 721 q 221 738 189 733 q 288 747 253 743 q 360 750 324 750 z "},"b":{"ha":839,"x_min":97,"x_max":776,"o":"m 565 371 q 418 571 565 571 q 355 563 386 571 q 304 542 324 554 l 304 165 q 343 160 319 163 q 394 158 367 158 q 522 217 479 158 q 565 371 565 275 m 776 365 q 751 207 776 278 q 676 86 725 136 q 557 9 628 36 q 396 -18 486 -18 q 317 -15 358 -18 q 237 -6 276 -11 q 161 8 197 0 q 97 24 125 15 l 97 1044 l 304 1078 l 304 714 q 376 738 339 729 q 457 746 414 746 q 594 719 535 746 q 694 642 654 692 q 756 522 735 592 q 776 365 776 451 z "},"c":{"ha":694,"x_min":63,"x_max":653,"o":"m 63 365 q 88 515 63 444 q 163 637 114 585 q 281 719 211 689 q 439 750 350 750 q 546 740 497 750 q 640 710 594 729 l 597 544 q 533 564 568 556 q 456 572 499 572 q 319 515 364 572 q 274 365 274 458 q 316 213 274 267 q 464 158 358 158 q 544 165 501 158 q 624 188 588 172 l 653 18 q 563 -8 617 3 q 443 -19 508 -19 q 271 10 343 -19 q 152 92 199 40 q 84 213 106 143 q 63 365 63 283 z "},"d":{"ha":839,"x_min":63,"x_max":742,"o":"m 274 371 q 317 217 274 275 q 444 158 360 158 q 496 160 472 158 q 535 165 519 163 l 535 542 q 484 563 515 554 q 421 571 453 571 q 274 371 274 571 m 742 24 q 678 8 714 15 q 602 -6 642 0 q 522 -15 563 -11 q 443 -18 481 -18 q 282 8 353 -18 q 163 84 211 35 q 88 203 114 133 q 63 361 63 274 q 85 522 63 450 q 149 643 107 593 q 251 719 190 693 q 389 746 311 746 q 466 738 432 746 q 535 714 500 729 l 535 1044 l 742 1078 l 742 24 z "},"e":{"ha":811,"x_min":63,"x_max":749,"o":"m 63 360 q 92 530 63 457 q 171 651 122 603 q 283 725 219 700 q 413 750 346 750 q 658 655 568 750 q 749 375 749 560 q 747 335 749 357 q 744 297 746 314 l 275 297 q 335 196 282 233 q 476 158 388 158 q 588 169 533 158 q 678 194 643 179 l 706 26 q 661 10 689 18 q 599 -5 633 1 q 526 -15 565 -11 q 449 -19 488 -19 q 277 10 350 -19 q 156 90 204 39 q 85 210 108 140 q 63 360 63 279 m 549 439 q 540 490 547 465 q 516 535 532 515 q 476 567 500 554 q 415 579 451 579 q 356 567 381 579 q 314 536 331 556 q 288 491 297 517 q 275 439 279 465 l 549 439 z "},"f":{"ha":586,"x_min":97,"x_max":596,"o":"m 414 1078 q 521 1066 472 1078 q 596 1043 569 1054 l 556 878 q 495 897 528 890 q 435 903 463 903 q 372 892 397 903 q 331 864 346 882 q 310 821 317 846 q 304 767 304 796 l 304 731 l 560 731 l 560 558 l 304 558 l 304 0 l 97 0 l 97 769 q 177 994 97 911 q 414 1078 257 1078 z "},"g":{"ha":825,"x_min":63,"x_max":728,"o":"m 274 389 q 414 215 274 215 q 474 224 446 215 q 521 243 501 232 l 521 574 q 485 578 506 576 q 436 581 464 581 q 314 526 354 581 q 274 389 274 472 m 728 92 q 637 -174 728 -87 q 356 -261 546 -261 q 222 -249 289 -261 q 99 -218 156 -237 l 135 -44 q 237 -75 183 -64 q 358 -86 290 -86 q 484 -47 447 -86 q 521 53 521 -8 l 521 79 q 452 56 488 64 q 375 49 417 49 q 143 138 224 49 q 63 389 63 228 q 88 535 63 469 q 160 649 113 601 q 278 722 208 696 q 435 747 347 747 q 512 744 472 747 q 590 735 551 740 q 665 722 629 729 q 728 706 700 714 l 728 92 z "},"h":{"ha":818,"x_min":97,"x_max":728,"o":"m 97 0 l 97 1044 l 304 1078 l 304 728 q 358 741 325 735 q 421 747 390 747 q 569 723 510 747 q 663 654 628 699 q 713 549 699 610 q 728 413 728 488 l 728 0 l 521 0 l 521 388 q 495 529 521 488 q 400 571 469 571 q 348 566 372 571 q 304 556 324 561 l 304 0 l 97 0 z "},"i":{"ha":401,"x_min":76,"x_max":324,"o":"m 304 0 l 97 0 l 97 731 l 304 731 l 304 0 m 324 942 q 287 852 324 885 q 200 819 250 819 q 113 852 150 819 q 76 942 76 885 q 113 1031 76 999 q 200 1064 150 1064 q 287 1031 250 1064 q 324 942 324 999 z "},"j":{"ha":401,"x_min":-100,"x_max":324,"o":"m 29 -257 q -28 -253 10 -257 q -100 -237 -67 -249 l -72 -69 q -34 -79 -51 -76 q 10 -82 -17 -82 q 78 -53 58 -82 q 97 32 97 -24 l 97 731 l 304 731 l 304 26 q 233 -187 304 -118 q 29 -257 163 -257 m 324 942 q 287 852 324 885 q 200 819 250 819 q 113 852 150 819 q 76 942 76 885 q 113 1031 76 999 q 200 1064 150 1064 q 287 1031 250 1064 q 324 942 324 999 z "},"k":{"ha":804,"x_min":97,"x_max":790,"o":"m 304 467 q 367 536 335 500 q 431 608 400 572 q 488 675 461 643 q 535 731 515 707 l 781 731 q 637 569 707 646 q 483 410 567 492 q 569 320 525 372 q 656 213 614 268 q 732 101 697 157 q 790 0 767 46 l 553 0 q 502 80 531 36 q 442 167 474 124 q 374 251 410 211 q 304 319 339 292 l 304 0 l 97 0 l 97 1044 l 304 1078 l 304 467 z "},"l":{"ha":439,"x_min":97,"x_max":418,"o":"m 389 -14 q 242 6 299 -12 q 153 56 186 24 q 109 135 121 89 q 97 240 97 182 l 97 1044 l 304 1078 l 304 282 q 308 232 304 254 q 324 194 313 210 q 358 169 336 179 q 418 157 381 160 l 389 -14 z "},"m":{"ha":1197,"x_min":97,"x_max":1107,"o":"m 499 388 q 473 529 499 488 q 385 571 447 571 q 344 569 365 571 q 304 564 324 567 l 304 0 l 97 0 l 97 706 q 159 720 124 713 q 234 734 194 728 q 315 744 274 740 q 397 747 357 747 q 526 727 476 747 q 607 679 575 707 q 709 729 651 711 q 815 747 767 747 q 959 723 903 747 q 1049 654 1015 699 q 1094 549 1082 610 q 1107 413 1107 488 l 1107 0 l 900 0 l 900 388 q 874 529 900 488 q 786 571 849 571 q 740 563 769 571 q 690 542 710 554 q 703 474 700 510 q 706 399 706 439 l 706 0 l 499 0 l 499 388 z "},"n":{"ha":818,"x_min":97,"x_max":728,"o":"m 97 706 q 233 734 150 721 q 408 747 317 747 q 563 723 501 747 q 661 654 625 699 q 713 549 697 610 q 728 413 728 488 l 728 0 l 521 0 l 521 388 q 494 529 521 488 q 396 571 468 571 q 349 569 374 571 q 304 564 324 567 l 304 0 l 97 0 l 97 706 z "},"o":{"ha":843,"x_min":63,"x_max":781,"o":"m 781 367 q 756 209 781 281 q 683 87 731 138 q 570 8 636 36 q 422 -19 504 -19 q 276 8 342 -19 q 163 87 210 36 q 89 209 115 138 q 63 367 63 281 q 90 524 63 453 q 165 644 117 594 q 278 722 213 694 q 422 750 344 750 q 567 722 501 750 q 681 644 633 694 q 754 524 728 594 q 781 367 781 453 m 569 367 q 531 517 569 463 q 422 572 493 572 q 313 517 351 572 q 274 367 274 463 q 313 215 274 271 q 422 158 351 158 q 531 215 493 158 q 569 367 569 271 z "},"p":{"ha":839,"x_min":97,"x_max":776,"o":"m 565 360 q 522 513 565 456 q 394 571 479 571 q 343 569 367 571 q 304 564 319 567 l 304 190 q 355 169 324 178 q 418 161 386 161 q 565 360 565 161 m 776 365 q 756 211 776 281 q 694 92 735 142 q 594 14 654 42 q 457 -14 535 -14 q 376 -6 414 -14 q 304 18 339 3 l 304 -257 l 97 -257 l 97 706 q 161 722 125 714 q 237 735 197 729 q 317 744 276 740 q 396 747 358 747 q 557 720 486 747 q 676 644 628 693 q 751 524 725 594 q 776 365 776 453 z "},"q":{"ha":839,"x_min":63,"x_max":742,"o":"m 274 360 q 421 161 274 161 q 484 169 453 161 q 535 190 515 178 l 535 564 q 496 569 519 567 q 444 571 472 571 q 317 513 360 571 q 274 360 274 456 m 63 365 q 88 520 63 450 q 163 641 114 590 q 282 719 211 692 q 443 747 353 747 q 522 744 481 747 q 602 735 563 740 q 678 722 642 729 q 742 706 714 714 l 742 -257 l 535 -257 l 535 18 q 463 -6 500 3 q 382 -14 425 -14 q 144 88 226 -14 q 63 365 63 190 z "},"r":{"ha":586,"x_min":97,"x_max":572,"o":"m 538 547 q 472 562 510 554 q 392 569 435 569 q 345 566 372 569 q 304 558 318 563 l 304 0 l 97 0 l 97 692 q 228 728 153 711 q 397 746 304 746 q 438 744 414 746 q 485 738 461 742 q 532 730 508 735 q 572 718 556 725 l 538 547 z "},"s":{"ha":674,"x_min":54,"x_max":617,"o":"m 307 149 q 388 160 364 149 q 411 203 411 171 q 381 247 411 228 q 288 289 350 265 q 199 326 239 307 q 132 373 160 346 q 89 438 104 400 q 74 528 74 475 q 150 690 74 631 q 360 750 226 750 q 488 738 426 750 q 585 713 549 726 l 549 551 q 470 574 513 564 q 375 583 428 583 q 278 529 278 583 q 282 507 278 517 q 299 488 286 497 q 333 469 311 479 q 388 446 354 458 q 500 397 456 421 q 570 344 544 372 q 606 281 596 315 q 617 200 617 246 q 535 36 617 92 q 306 -19 454 -19 q 144 -3 208 -19 q 54 25 79 14 l 89 193 q 197 160 142 172 q 307 149 253 149 z "},"t":{"ha":617,"x_min":90,"x_max":575,"o":"m 90 913 l 297 946 l 297 731 l 546 731 l 546 558 l 297 558 l 297 301 q 320 197 297 236 q 413 158 343 158 q 481 165 446 158 q 546 182 517 171 l 575 21 q 492 -6 538 6 q 379 -17 446 -17 q 239 6 294 -17 q 150 70 183 29 q 103 169 117 111 q 90 299 90 228 l 90 913 z "},"u":{"ha":818,"x_min":90,"x_max":721,"o":"m 721 25 q 585 -3 668 10 q 410 -17 501 -17 q 255 8 317 -17 q 157 78 193 33 q 106 186 121 124 q 90 324 90 249 l 90 731 l 297 731 l 297 349 q 324 204 297 249 q 422 160 350 160 q 469 162 444 160 q 514 167 494 164 l 514 731 l 721 731 l 721 25 z "},"v":{"ha":764,"x_min":14,"x_max":750,"o":"m 296 0 q 152 325 225 139 q 14 731 79 511 l 233 731 q 266 613 247 676 q 305 485 285 550 q 345 360 325 421 q 385 249 365 299 q 424 360 403 299 q 465 485 444 421 q 503 613 485 550 q 536 731 522 676 l 750 731 q 612 325 685 511 q 468 0 539 139 l 296 0 z "},"w":{"ha":1089,"x_min":14,"x_max":1075,"o":"m 542 419 q 483 210 514 314 q 417 0 451 106 l 256 0 q 201 139 231 58 q 141 315 172 219 q 77 516 110 410 q 14 731 44 622 l 232 731 q 256 622 243 681 q 284 500 269 563 q 315 374 299 438 q 347 253 331 311 q 383 378 365 314 q 416 503 400 442 q 447 623 432 565 q 472 731 461 681 l 622 731 q 647 623 633 681 q 676 503 661 565 q 708 378 692 442 q 743 253 725 314 q 776 374 760 311 q 808 500 793 438 q 835 622 822 563 q 860 731 849 681 l 1075 731 q 1012 516 1044 622 q 948 315 979 410 q 887 139 917 219 q 832 0 857 58 l 671 0 q 603 210 636 106 q 542 419 569 314 z "},"x":{"ha":769,"x_min":14,"x_max":756,"o":"m 388 508 l 532 731 l 746 731 l 496 379 q 647 176 579 275 q 756 0 715 78 l 533 0 q 506 52 522 21 q 468 117 489 83 q 424 185 447 151 q 379 247 401 219 q 337 189 358 221 q 296 124 315 157 q 258 60 276 92 q 225 0 239 28 l 14 0 q 60 82 31 35 q 123 180 89 129 q 194 281 157 231 q 268 376 232 332 q 143 553 206 464 q 19 731 81 643 l 243 731 l 388 508 z "},"y":{"ha":760,"x_min":7,"x_max":746,"o":"m 746 731 q 615 335 683 519 q 467 -24 547 150 q 408 -130 438 -86 q 344 -202 379 -174 q 266 -244 310 -231 q 164 -257 222 -257 q 74 -248 115 -257 q 7 -228 33 -239 l 43 -62 q 100 -78 75 -74 q 153 -82 125 -82 q 238 -52 208 -82 q 289 31 268 -22 q 147 342 218 169 q 14 731 76 515 l 233 731 q 266 613 247 676 q 306 485 285 550 q 348 360 326 421 q 389 249 369 299 q 426 360 407 299 q 465 485 446 421 q 501 613 483 550 q 532 731 518 676 l 746 731 z "},"z":{"ha":694,"x_min":49,"x_max":653,"o":"m 646 592 q 578 517 621 564 q 488 413 536 469 q 390 293 439 356 q 300 172 340 231 l 653 172 l 653 0 l 49 0 l 49 122 q 119 230 78 172 q 205 346 160 288 q 294 459 250 404 q 376 558 339 514 l 65 558 l 65 731 l 646 731 l 646 592 z "},"{":{"ha":515,"x_min":49,"x_max":501,"o":"m 49 497 q 139 533 111 497 q 167 628 167 569 l 167 838 q 182 944 167 897 q 233 1022 197 990 q 327 1071 268 1054 q 474 1088 386 1088 l 501 1088 l 501 922 l 467 922 q 383 894 404 922 q 361 808 361 867 l 361 624 q 342 501 361 551 q 264 415 322 451 q 342 329 322 379 q 361 207 361 279 l 361 22 q 383 -64 361 -36 q 467 -92 404 -92 l 501 -92 l 501 -257 l 474 -257 q 327 -240 386 -257 q 233 -192 268 -224 q 182 -113 197 -160 q 167 -7 167 -67 l 167 203 q 139 297 167 261 q 49 333 111 333 l 49 497 z "},"|":{"ha":447,"x_min":125,"x_max":322,"o":"m 125 1088 l 322 1088 l 322 -257 l 125 -257 l 125 1088 z "},"}":{"ha":515,"x_min":14,"x_max":467,"o":"m 467 333 q 376 297 404 333 q 349 203 349 261 l 349 -7 q 333 -113 349 -67 q 283 -192 318 -160 q 188 -240 247 -224 q 42 -257 129 -257 l 14 -257 l 14 -92 l 49 -92 q 133 -64 111 -92 q 154 22 154 -36 l 154 207 q 174 329 154 279 q 251 415 193 379 q 174 501 193 451 q 154 624 154 551 l 154 808 q 133 894 154 867 q 49 922 111 922 l 14 922 l 14 1088 l 42 1088 q 188 1071 129 1088 q 283 1022 247 1054 q 333 944 318 990 q 349 838 349 897 l 349 628 q 376 533 349 569 q 467 497 404 497 l 467 333 z "},"~":{"ha":789,"x_min":32,"x_max":757,"o":"m 536 272 q 458 289 494 272 q 387 325 421 306 q 322 361 353 344 q 260 378 290 378 q 237 375 249 378 q 214 362 225 372 q 192 331 203 351 q 174 276 182 311 l 32 315 q 54 397 39 354 q 95 476 69 440 q 160 536 121 513 q 253 560 199 560 q 331 543 294 560 q 402 507 368 526 q 467 471 436 488 q 529 454 499 454 q 552 457 540 454 q 575 470 564 460 q 597 501 586 481 q 615 556 607 521 l 757 517 q 735 435 750 478 q 693 356 719 392 q 628 296 667 319 q 536 272 590 272 z "},"€":{"ha":789,"x_min":64,"x_max":785,"o":"m 169 668 q 307 903 206 824 q 567 982 408 982 q 674 972 629 982 q 763 946 718 963 l 719 785 q 651 803 686 796 q 565 811 617 811 q 435 775 482 811 q 368 668 389 739 l 676 668 l 650 531 l 350 531 q 349 505 349 515 q 349 483 349 494 q 349 464 349 472 q 350 440 349 456 l 633 440 l 607 303 l 368 303 q 439 187 392 219 q 557 154 486 154 q 650 163 603 154 q 744 190 697 171 l 785 31 q 688 -3 747 11 q 550 -18 629 -18 q 285 66 376 -18 q 164 303 193 150 l 64 303 l 64 440 l 151 440 q 150 464 150 456 q 150 483 150 472 q 150 507 150 494 q 151 531 150 519 l 64 531 l 64 668 l 169 668 z "},"‚":{"ha":338,"x_min":21,"x_max":282,"o":"m 276 214 q 281 174 279 194 q 282 143 282 153 q 249 -34 282 50 q 167 -176 215 -118 l 21 -143 q 63 -8 47 -83 q 79 135 79 67 q 79 147 79 138 q 78 167 79 156 q 77 192 78 179 q 75 214 76 204 l 276 214 z "},"ƒ":{"ha":586,"x_min":-100,"x_max":596,"o":"m 29 -257 q -28 -253 10 -257 q -100 -237 -67 -249 l -72 -69 q -34 -79 -51 -76 q 10 -82 -17 -82 q 78 -53 58 -82 q 97 32 97 -24 l 97 769 q 177 994 97 911 q 414 1078 257 1078 q 521 1066 472 1078 q 596 1043 569 1054 l 556 878 q 495 897 528 890 q 435 903 463 903 q 372 892 397 903 q 331 864 346 882 q 310 821 317 846 q 304 767 304 796 l 304 731 l 560 731 l 560 558 l 304 558 l 304 26 q 234 -188 304 -119 q 29 -257 164 -257 z "},"„":{"ha":631,"x_min":21,"x_max":575,"o":"m 569 214 q 574 174 572 194 q 575 143 575 153 q 542 -34 575 50 q 460 -176 508 -118 l 319 -144 q 362 -9 346 -85 q 378 135 378 67 q 378 147 378 138 q 377 167 378 156 q 376 192 376 179 q 374 214 375 204 l 569 214 m 271 214 q 275 174 274 194 q 276 143 276 153 q 243 -34 276 50 q 161 -176 210 -118 l 21 -144 q 63 -9 47 -85 q 79 135 79 67 q 79 147 79 138 q 78 167 79 156 q 77 192 78 179 q 75 214 76 204 l 271 214 z "},"…":{"ha":1389,"x_min":83,"x_max":1306,"o":"m 342 110 q 302 15 342 47 q 213 -18 263 -18 q 123 15 163 -18 q 83 110 83 47 q 123 205 83 172 q 213 238 163 238 q 302 205 263 238 q 342 110 342 172 m 824 110 q 784 15 824 47 q 694 -18 744 -18 q 605 15 644 -18 q 565 110 565 47 q 605 205 565 172 q 694 238 644 238 q 784 205 744 238 q 824 110 824 172 m 1306 110 q 1266 15 1306 47 q 1176 -18 1226 -18 q 1087 15 1126 -18 q 1047 110 1047 47 q 1087 205 1047 172 q 1176 238 1126 238 q 1266 205 1226 238 q 1306 110 1306 172 z "},"†":{"ha":686,"x_min":49,"x_max":638,"o":"m 428 522 l 428 206 q 421 -3 428 93 q 400 -201 414 -100 l 285 -201 q 264 -3 271 -100 q 257 206 257 93 l 257 522 l 49 522 l 49 682 l 257 682 l 257 963 l 428 963 l 428 682 l 638 682 l 638 522 l 428 522 z "},"‡":{"ha":686,"x_min":49,"x_max":638,"o":"m 428 153 q 419 -26 425 57 q 400 -201 413 -110 l 285 -201 q 265 -28 272 -112 q 257 153 258 57 l 49 153 l 49 313 l 257 313 l 257 522 l 49 522 l 49 682 l 257 682 l 257 963 l 428 963 l 428 682 l 638 682 l 638 522 l 428 522 l 428 313 l 638 313 l 638 153 l 428 153 z "},"ˆ":{"ha":553,"x_min":58,"x_max":492,"o":"m 492 896 l 415 804 l 276 911 l 138 804 l 58 896 l 276 1086 l 492 896 z "},"‰":{"ha":1833,"x_min":49,"x_max":1785,"o":"m 540 715 q 474 515 540 585 q 294 446 407 446 q 115 515 182 446 q 49 715 49 585 q 115 915 49 846 q 294 985 182 985 q 474 915 407 985 q 540 715 540 846 m 383 715 q 358 818 383 786 q 294 850 333 850 q 230 818 254 850 q 206 715 206 786 q 230 612 206 644 q 294 579 254 579 q 358 612 333 579 q 383 715 383 644 m 811 963 l 1004 963 l 461 0 l 268 0 l 811 963 m 1226 247 q 1160 47 1226 117 q 981 -22 1093 -22 q 801 47 868 -22 q 735 247 735 117 q 801 447 735 378 q 981 517 868 517 q 1160 447 1093 517 q 1226 247 1226 378 m 1069 247 q 1044 350 1069 318 q 981 382 1019 382 q 916 350 940 382 q 892 247 892 318 q 916 144 892 176 q 981 111 940 111 q 1044 144 1019 111 q 1069 247 1069 176 m 1785 247 q 1718 47 1785 117 q 1539 -22 1651 -22 q 1360 47 1426 -22 q 1293 247 1293 117 q 1360 447 1293 378 q 1539 517 1426 517 q 1718 447 1651 517 q 1785 247 1785 378 m 1628 247 q 1603 350 1628 318 q 1539 382 1578 382 q 1474 350 1499 382 q 1450 247 1450 318 q 1474 144 1450 176 q 1539 111 1499 111 q 1603 144 1578 111 q 1628 247 1628 176 z "},"Š":{"ha":808,"x_min":51,"x_max":753,"o":"m 374 165 q 449 173 419 165 q 497 194 479 181 q 522 225 515 207 q 529 265 529 243 q 485 344 529 313 q 332 411 440 375 q 238 449 285 428 q 153 503 190 471 q 92 583 115 536 q 68 696 68 629 q 93 816 68 763 q 164 907 118 869 q 275 965 210 944 q 422 985 340 985 q 590 964 519 985 q 707 918 661 943 l 644 747 q 555 784 604 768 q 436 800 506 800 q 324 778 358 800 q 290 713 290 757 q 303 668 290 686 q 338 635 315 650 q 391 609 361 621 q 457 585 421 597 q 588 530 532 557 q 680 467 643 503 q 735 382 717 431 q 753 264 753 333 q 658 55 753 129 q 374 -19 564 -19 q 258 -12 310 -19 q 167 7 207 -4 q 99 31 128 18 q 51 54 71 43 l 113 226 q 219 184 156 203 q 374 165 282 165 m 208 1228 l 285 1319 l 424 1213 l 563 1319 l 642 1228 l 424 1038 l 208 1228 z "},"‹":{"ha":454,"x_min":28,"x_max":413,"o":"m 272 394 l 413 135 l 256 61 l 28 394 l 256 728 l 413 654 l 272 394 z "},"Œ":{"ha":1385,"x_min":69,"x_max":1336,"o":"m 758 0 q 687 -6 726 -4 q 615 -8 647 -8 q 392 21 493 -8 q 220 110 292 50 q 109 263 149 171 q 69 482 69 356 q 109 700 69 608 q 220 852 149 792 q 392 942 292 913 q 615 971 493 971 q 687 969 647 971 q 758 963 726 967 l 1304 963 l 1304 781 l 894 781 l 894 592 l 1256 592 l 1256 414 l 894 414 l 894 182 l 1336 182 l 1336 0 l 758 0 m 613 175 q 644 175 629 175 q 685 176 658 175 l 685 786 q 644 788 657 788 q 613 788 632 788 q 371 709 450 788 q 292 482 292 631 q 371 254 292 333 q 613 175 450 175 z "},"‘":{"ha":338,"x_min":56,"x_max":317,"o":"m 61 688 q 57 728 58 707 q 56 758 56 749 q 89 935 56 851 q 171 1078 122 1019 l 317 1044 q 274 910 290 985 q 258 767 258 835 q 258 755 258 764 q 259 734 258 746 q 260 710 260 722 q 263 688 261 697 l 61 688 z "},"’":{"ha":338,"x_min":21,"x_max":282,"o":"m 276 1065 q 281 1025 279 1046 q 282 994 282 1004 q 249 817 282 901 q 167 675 215 733 l 21 708 q 63 843 47 768 q 79 986 79 918 q 79 998 79 989 q 78 1019 79 1007 q 77 1043 78 1031 q 75 1065 76 1056 l 276 1065 z "},"“":{"ha":631,"x_min":56,"x_max":610,"o":"m 61 688 q 57 728 58 707 q 56 758 56 749 q 89 935 56 851 q 171 1078 122 1019 l 311 1046 q 269 910 285 986 q 253 767 253 835 q 253 755 253 764 q 253 734 253 746 q 255 710 254 722 q 257 688 256 697 l 61 688 m 360 688 q 356 728 357 707 q 354 758 354 749 q 388 935 354 851 q 469 1078 421 1019 l 610 1046 q 567 910 583 986 q 551 767 551 835 q 551 755 551 764 q 552 734 551 746 q 553 710 553 722 q 556 688 554 697 l 360 688 z "},"”":{"ha":631,"x_min":21,"x_max":575,"o":"m 569 1065 q 574 1025 572 1046 q 575 994 575 1004 q 542 817 575 901 q 460 675 508 733 l 319 707 q 362 842 346 767 q 378 986 378 918 q 378 998 378 989 q 377 1019 378 1007 q 376 1043 376 1031 q 374 1065 375 1056 l 569 1065 m 271 1065 q 275 1025 274 1046 q 276 994 276 1004 q 243 817 276 901 q 161 675 210 733 l 21 707 q 63 842 47 767 q 79 986 79 918 q 79 998 79 989 q 78 1019 79 1007 q 77 1043 78 1031 q 75 1065 76 1056 l 271 1065 z "},"•":{"ha":506,"x_min":53,"x_max":453,"o":"m 453 490 q 439 415 453 450 q 399 352 425 379 q 335 309 372 325 q 253 293 299 293 q 170 309 207 293 q 107 352 133 325 q 67 415 81 379 q 53 490 53 450 q 67 565 53 529 q 107 628 81 601 q 170 672 133 656 q 253 688 207 688 q 335 672 299 688 q 399 628 372 656 q 439 565 425 601 q 453 490 453 529 z "},"–":{"ha":694,"x_min":0,"x_max":694,"o":"m 0 501 l 694 501 l 694 329 l 0 329 l 0 501 z "},"—":{"ha":1389,"x_min":0,"x_max":1389,"o":"m 0 501 l 1389 501 l 1389 329 l 0 329 l 0 501 z "},"˜":{"ha":518,"x_min":6,"x_max":519,"o":"m 519 985 q 497 939 511 964 q 461 892 482 914 q 414 857 440 871 q 356 843 388 843 q 309 851 331 843 q 267 867 288 858 q 225 884 246 876 q 182 892 204 892 q 136 874 154 892 q 107 832 118 856 l 6 899 q 28 944 14 919 q 64 991 43 969 q 111 1026 85 1013 q 169 1040 138 1040 q 216 1033 194 1040 q 258 1016 238 1025 q 299 999 279 1007 q 343 992 319 992 q 389 1010 371 992 q 418 1051 407 1028 l 519 985 z "},"™":{"ha":1186,"x_min":42,"x_max":1144,"o":"m 489 963 l 489 819 l 347 819 l 347 474 l 183 474 l 183 819 l 42 819 l 42 963 l 489 963 m 1099 963 q 1123 763 1113 881 q 1144 474 1133 646 l 985 474 l 979 733 l 897 525 l 788 525 l 706 732 q 705 644 706 688 q 703 564 704 600 q 702 503 703 528 q 701 474 701 478 l 543 474 q 564 763 553 646 q 586 963 575 881 l 733 963 q 789 835 763 900 q 843 708 815 771 q 899 840 871 771 q 950 963 928 910 l 1099 963 z "},"š":{"ha":674,"x_min":54,"x_max":617,"o":"m 307 149 q 388 160 364 149 q 411 203 411 171 q 381 247 411 228 q 288 289 350 265 q 199 326 239 307 q 132 373 160 346 q 89 438 104 400 q 74 528 74 475 q 150 690 74 631 q 360 750 226 750 q 488 738 426 750 q 585 713 549 726 l 549 551 q 470 574 513 564 q 375 583 428 583 q 278 529 278 583 q 282 507 278 517 q 299 488 286 497 q 333 469 311 479 q 388 446 354 458 q 500 397 456 421 q 570 344 544 372 q 606 281 596 315 q 617 200 617 246 q 535 36 617 92 q 306 -19 454 -19 q 144 -3 208 -19 q 54 25 79 14 l 89 193 q 197 160 142 172 q 307 149 253 149 m 144 1004 l 221 1096 l 360 989 l 499 1096 l 578 1004 l 360 814 l 144 1004 z "},"›":{"ha":454,"x_min":42,"x_max":426,"o":"m 42 654 l 199 728 l 426 394 l 199 61 l 42 135 l 182 394 l 42 654 z "},"œ":{"ha":1301,"x_min":63,"x_max":1239,"o":"m 939 -19 q 778 9 850 -19 q 658 96 707 38 q 550 10 613 40 q 417 -19 488 -19 q 271 8 336 -19 q 159 87 206 36 q 88 209 113 138 q 63 367 63 281 q 88 524 63 453 q 161 644 114 594 q 274 722 208 694 q 417 750 339 750 q 668 631 578 750 q 779 724 718 697 q 903 750 840 750 q 1149 656 1058 750 q 1239 375 1239 561 q 1238 335 1239 357 q 1235 297 1236 314 l 765 297 q 825 196 772 233 q 967 158 878 158 q 1079 169 1025 158 q 1168 194 1133 179 l 1196 26 q 1151 10 1179 18 q 1090 -5 1124 1 q 1017 -15 1056 -11 q 939 -19 978 -19 m 569 367 q 531 517 569 463 q 422 572 493 572 q 313 517 351 572 q 274 367 274 463 q 313 215 274 271 q 422 158 351 158 q 531 215 493 158 q 569 367 569 271 m 1039 439 q 1030 490 1038 465 q 1006 535 1022 515 q 965 567 990 554 q 906 579 940 579 q 845 567 869 579 q 804 536 821 556 q 778 491 788 517 q 765 439 769 465 l 1039 439 z "},"Ÿ":{"ha":918,"x_min":7,"x_max":911,"o":"m 464 567 q 575 764 522 665 q 672 963 628 863 l 911 963 q 747 661 832 807 q 568 368 663 515 l 568 0 l 351 0 l 351 365 q 172 660 257 513 q 7 963 86 807 l 258 963 q 354 764 303 863 q 464 567 406 665 m 304 1058 q 229 1087 261 1058 q 197 1164 197 1115 q 229 1241 197 1213 q 304 1269 261 1269 q 379 1241 347 1269 q 411 1164 411 1213 q 379 1087 411 1115 q 304 1058 347 1058 m 614 1058 q 539 1087 571 1058 q 507 1164 507 1115 q 539 1241 507 1213 q 614 1269 571 1269 q 689 1241 657 1269 q 721 1164 721 1213 q 689 1087 721 1115 q 614 1058 657 1058 z "}," ":{"ha":333,"x_min":0,"x_max":0,"o":""},"¡":{"ha":397,"x_min":69,"x_max":328,"o":"m 310 -250 l 89 -250 l 89 6 q 98 215 89 118 q 121 413 107 313 l 279 413 q 301 215 293 313 q 310 6 310 118 l 310 -250 m 328 603 q 288 508 328 542 q 199 475 249 475 q 109 508 149 475 q 69 603 69 542 q 109 697 69 664 q 199 731 149 731 q 288 697 249 731 q 328 603 328 664 z "},"¢":{"ha":789,"x_min":63,"x_max":653,"o":"m 311 51 q 123 182 183 86 q 63 407 63 278 q 79 524 63 468 q 128 626 96 581 q 207 706 161 672 q 311 758 253 740 l 311 961 l 508 961 l 508 774 q 577 760 544 768 q 642 738 610 751 l 596 572 q 533 592 567 583 q 456 600 499 600 q 321 548 368 600 q 274 407 274 496 q 318 263 274 313 q 464 214 363 214 q 544 221 501 214 q 624 243 588 228 l 653 74 q 589 53 625 63 q 508 39 553 44 l 508 -151 l 311 -151 l 311 51 z "},"£":{"ha":789,"x_min":32,"x_max":699,"o":"m 354 547 l 585 547 l 585 379 l 354 379 q 348 275 353 331 q 336 174 343 219 l 699 174 l 699 0 l 108 0 q 142 206 133 111 q 153 379 150 300 l 32 379 l 32 547 l 153 547 l 153 621 q 178 794 153 725 q 247 904 203 863 q 351 963 290 946 q 485 981 413 981 q 589 969 540 981 q 683 939 638 958 l 632 776 q 572 799 600 792 q 503 807 543 806 q 442 800 469 807 q 396 774 415 793 q 365 721 376 754 q 354 638 354 688 l 354 547 z "},"¤":{"ha":789,"x_min":35,"x_max":754,"o":"m 394 756 q 460 750 429 756 q 522 731 492 744 l 625 829 l 754 703 l 654 607 q 683 482 683 553 q 654 357 683 411 l 754 261 l 624 133 l 521 233 q 461 214 492 219 q 394 208 431 208 q 328 214 360 208 q 267 233 297 219 l 164 135 l 35 261 l 135 357 q 106 482 106 411 q 135 607 106 553 l 35 703 l 165 831 l 268 731 q 328 750 297 744 q 394 756 358 756 m 508 482 q 475 572 508 542 q 394 603 442 603 q 314 572 347 603 q 281 482 281 542 q 314 392 281 422 q 394 361 347 361 q 475 392 442 361 q 508 482 508 422 z "},"¥":{"ha":789,"x_min":-7,"x_max":796,"o":"m 290 0 l 290 154 l 85 154 l 85 292 l 290 292 l 290 382 l 85 382 l 85 519 l 224 519 q 163 631 194 572 q 100 747 131 689 q 42 861 69 806 q -7 963 14 917 l 229 963 q 312 770 272 867 q 399 582 351 674 q 482 772 444 674 q 561 963 519 869 l 796 963 q 687 744 743 856 q 567 519 631 632 l 706 519 l 706 382 l 500 382 l 500 292 l 706 292 l 706 154 l 500 154 l 500 0 l 290 0 z "},"¦":{"ha":419,"x_min":111,"x_max":308,"o":"m 111 294 l 308 294 l 308 -257 l 111 -257 l 111 294 m 111 1088 l 308 1088 l 308 536 l 111 536 l 111 1088 z "},"§":{"ha":715,"x_min":39,"x_max":669,"o":"m 90 75 q 151 53 122 63 q 208 37 179 43 q 267 27 236 31 q 335 24 297 24 q 413 35 386 24 q 439 76 439 47 q 433 101 439 90 q 413 121 428 111 q 374 140 399 131 q 313 163 350 150 q 210 201 258 181 q 127 251 163 221 q 72 323 92 281 q 51 428 51 365 q 83 538 51 493 q 158 625 114 582 q 92 758 92 681 q 170 925 92 865 q 396 985 249 985 q 527 971 460 985 q 649 935 594 957 l 597 768 q 505 799 553 788 q 394 810 457 810 q 320 798 342 810 q 299 763 299 786 q 322 716 299 733 q 408 678 346 699 q 518 635 469 657 q 600 583 567 613 q 651 514 633 554 q 669 417 669 474 q 663 362 669 386 q 642 317 656 338 q 610 276 629 296 q 567 235 590 256 q 628 165 610 203 q 646 75 646 126 q 346 -151 646 -151 q 163 -133 239 -151 q 39 -90 88 -115 l 90 75 m 289 533 q 252 490 267 514 q 238 443 238 467 q 284 363 238 390 q 426 303 331 335 q 463 346 449 322 q 478 393 478 369 q 466 438 478 419 q 431 473 454 457 q 372 503 408 489 q 289 533 336 517 z "},"¨":{"ha":744,"x_min":110,"x_max":633,"o":"m 217 836 q 142 865 174 836 q 110 942 110 893 q 142 1019 110 990 q 217 1047 174 1047 q 292 1019 260 1047 q 324 942 324 990 q 292 865 324 893 q 217 836 260 836 m 526 836 q 451 865 483 836 q 419 942 419 893 q 451 1019 419 990 q 526 1047 483 1047 q 601 1019 569 1047 q 633 942 633 990 q 601 865 633 893 q 526 836 569 836 z "},"©":{"ha":1106,"x_min":69,"x_max":1036,"o":"m 1036 482 q 997 270 1036 364 q 890 112 957 176 q 736 13 824 47 q 553 -21 649 -21 q 369 13 457 -21 q 215 112 282 47 q 109 270 149 176 q 69 482 69 364 q 109 694 69 600 q 215 852 149 788 q 369 951 282 917 q 553 985 457 985 q 736 951 649 985 q 890 852 824 917 q 997 694 957 788 q 1036 482 1036 600 m 894 482 q 869 633 894 565 q 799 750 844 701 q 691 825 754 799 q 553 851 628 851 q 415 825 478 851 q 306 750 351 799 q 236 633 261 701 q 211 482 211 565 q 236 331 211 399 q 306 214 261 263 q 415 139 351 165 q 553 113 478 113 q 691 139 628 113 q 799 214 754 165 q 869 331 844 263 q 894 482 894 399 m 575 222 q 386 290 451 222 q 321 485 321 358 q 390 678 321 610 q 571 746 458 746 q 678 728 638 746 q 735 701 719 710 l 690 579 q 647 598 671 590 q 583 606 622 606 q 510 576 538 606 q 482 492 482 547 q 486 444 482 467 q 501 403 490 421 q 532 375 513 386 q 583 364 551 364 q 653 374 625 364 q 703 392 681 383 l 742 265 q 681 239 724 256 q 575 222 638 222 z "},"ª":{"ha":554,"x_min":33,"x_max":501,"o":"m 278 546 q 320 547 300 546 q 353 550 340 549 l 353 658 q 325 663 343 661 q 292 665 307 665 q 219 654 250 665 q 189 607 189 643 q 213 558 189 571 q 278 546 238 546 m 265 983 q 377 969 332 983 q 450 926 422 954 q 490 860 478 899 q 501 771 501 821 l 501 456 q 409 438 469 449 q 268 428 349 428 q 96 467 158 428 q 33 603 33 506 q 52 681 33 650 q 102 732 71 713 q 176 760 133 751 q 264 768 218 768 q 315 765 292 768 q 353 760 338 763 l 353 774 q 329 834 353 813 q 249 856 306 856 q 171 850 210 856 q 104 835 132 844 l 83 958 q 162 975 110 967 q 265 983 214 983 z "},"«":{"ha":829,"x_min":28,"x_max":788,"o":"m 272 394 l 413 135 l 256 61 l 28 394 l 256 728 l 413 654 l 272 394 m 647 394 l 788 135 l 631 61 l 403 394 l 631 728 l 788 654 l 647 394 z "},"¬":{"ha":789,"x_min":69,"x_max":722,"o":"m 722 65 l 533 65 l 533 390 l 69 390 l 69 564 l 722 564 l 722 65 z "},"­":{"ha":472,"x_min":35,"x_max":438,"o":"m 35 508 l 438 508 l 438 321 l 35 321 l 35 508 z "},"®":{"ha":1106,"x_min":69,"x_max":1036,"o":"m 1036 482 q 997 269 1036 363 q 890 112 957 176 q 736 13 824 47 q 553 -21 649 -21 q 369 13 457 -21 q 215 112 282 47 q 109 269 149 176 q 69 482 69 363 q 109 694 69 600 q 215 852 149 788 q 369 951 282 917 q 553 985 457 985 q 736 951 649 985 q 890 852 824 917 q 997 694 957 788 q 1036 482 1036 600 m 894 482 q 869 633 894 565 q 799 750 844 701 q 691 825 754 799 q 553 851 628 851 q 415 825 478 851 q 306 750 351 799 q 236 633 261 701 q 211 482 211 565 q 236 331 211 399 q 306 214 261 263 q 415 139 351 165 q 553 113 478 113 q 691 139 628 113 q 799 214 754 165 q 869 331 844 263 q 894 482 894 399 m 638 246 q 597 338 614 299 q 560 410 581 378 l 504 410 l 504 246 l 369 246 l 369 721 q 458 737 417 732 q 529 742 499 742 q 753 574 753 742 q 678 447 753 488 q 705 402 693 424 q 728 358 717 381 q 752 308 740 335 q 779 246 764 281 l 638 246 m 504 518 l 529 518 q 596 530 574 518 q 618 575 618 542 q 599 614 618 603 q 542 625 579 625 q 522 624 532 625 q 504 622 511 624 l 504 518 z "},"¯":{"ha":522,"x_min":38,"x_max":485,"o":"m 38 1007 l 485 1007 l 485 865 l 38 865 l 38 1007 z "},"°":{"ha":504,"x_min":28,"x_max":475,"o":"m 251 1085 q 337 1070 296 1085 q 408 1027 378 1056 q 457 959 439 999 q 475 869 475 919 q 457 780 475 819 q 408 712 439 740 q 337 669 378 683 q 251 654 296 654 q 166 669 207 654 q 94 712 125 683 q 46 780 64 740 q 28 869 28 819 q 46 959 28 919 q 94 1027 64 999 q 166 1070 125 1056 q 251 1085 207 1085 m 251 790 q 304 812 281 790 q 328 869 328 833 q 304 927 328 906 q 251 949 281 949 q 199 927 222 949 q 175 869 175 906 q 199 812 175 833 q 251 790 222 790 z "},"±":{"ha":789,"x_min":68,"x_max":721,"o":"m 68 632 l 300 632 l 300 868 l 489 868 l 489 632 l 721 632 l 721 458 l 489 458 l 489 222 l 300 222 l 300 458 l 68 458 l 68 632 m 68 174 l 721 174 l 721 0 l 68 0 l 68 174 z "},"²":{"ha":504,"x_min":22,"x_max":447,"o":"m 433 814 q 424 758 433 783 q 398 712 414 733 q 361 672 382 690 q 319 635 340 653 q 271 591 296 615 q 231 546 246 567 l 447 546 l 447 419 l 49 419 q 47 440 47 431 q 47 458 47 449 q 84 581 47 526 q 192 696 121 636 q 252 751 229 728 q 275 800 275 775 q 263 833 275 821 q 226 846 250 846 q 152 830 186 846 q 94 794 118 814 l 22 903 q 115 959 58 933 q 233 985 171 985 q 326 972 288 985 q 388 937 364 960 q 422 883 411 914 q 433 814 433 851 z "},"³":{"ha":504,"x_min":24,"x_max":444,"o":"m 207 539 q 275 553 256 539 q 294 590 294 568 q 197 647 294 647 l 140 647 l 140 761 l 197 761 q 250 774 229 761 q 271 811 271 786 q 210 856 271 856 q 146 845 178 856 q 85 821 114 835 l 32 931 q 119 969 67 953 q 221 985 171 985 q 315 972 276 985 q 376 938 353 960 q 408 888 399 917 q 418 829 418 860 q 405 774 418 800 q 360 722 392 747 q 424 667 404 701 q 444 589 444 632 q 432 518 444 551 q 392 460 419 485 q 319 422 364 436 q 208 408 274 408 q 159 411 185 408 q 108 419 133 414 q 62 431 83 425 q 24 446 40 438 l 56 569 q 135 544 103 550 q 207 539 168 539 z "},"´":{"ha":397,"x_min":36,"x_max":360,"o":"m 360 993 l 131 800 l 36 885 l 233 1110 l 360 993 z "},"µ":{"ha":825,"x_min":97,"x_max":728,"o":"m 304 731 l 304 339 q 312 251 304 286 q 335 197 319 217 q 375 168 351 176 q 431 160 399 160 q 477 162 453 160 q 521 167 501 164 l 521 731 l 728 731 l 728 25 q 598 -2 674 10 q 435 -14 522 -14 q 361 -7 399 -14 q 297 13 324 0 q 302 -44 300 -15 q 304 -124 304 -72 l 304 -231 l 97 -231 l 97 731 l 304 731 z "},"¶":{"ha":986,"x_min":56,"x_max":875,"o":"m 360 358 q 130 451 204 379 q 56 661 56 522 q 174 893 56 813 q 517 974 293 974 q 608 971 560 974 q 703 964 656 968 q 794 953 750 960 q 875 938 839 946 l 875 -258 l 679 -258 l 679 797 q 624 801 660 800 q 557 803 588 803 l 557 -258 l 360 -258 l 360 358 z "},"·":{"ha":342,"x_min":42,"x_max":300,"o":"m 300 410 q 260 315 300 347 q 171 282 221 282 q 81 315 121 282 q 42 410 42 347 q 81 505 42 472 q 171 538 121 538 q 260 505 221 538 q 300 410 300 472 z "},"¸":{"ha":453,"x_min":63,"x_max":376,"o":"m 299 -56 q 360 -108 343 -78 q 376 -171 376 -139 q 324 -272 376 -237 q 185 -307 272 -307 q 124 -302 154 -307 q 63 -289 93 -297 l 88 -168 q 123 -177 97 -171 q 174 -183 149 -183 q 208 -176 193 -183 q 224 -149 222 -168 q 210 -118 225 -132 q 164 -97 196 -104 l 147 -93 q 159 -61 151 -79 q 175 -26 167 -43 q 190 6 183 -8 q 201 28 197 21 l 339 28 q 318 -13 331 13 q 299 -56 306 -39 z "},"¹":{"ha":504,"x_min":53,"x_max":382,"o":"m 53 858 q 166 912 111 882 q 261 974 221 942 l 382 974 l 382 419 l 224 419 l 224 794 q 167 766 196 779 q 96 738 138 753 l 53 858 z "},"º":{"ha":635,"x_min":46,"x_max":589,"o":"m 589 703 q 569 586 589 638 q 513 499 549 535 q 428 444 478 464 q 318 425 378 425 q 208 444 258 425 q 122 499 158 464 q 66 586 86 535 q 46 703 46 638 q 66 822 46 769 q 122 910 86 874 q 208 965 158 946 q 318 985 258 985 q 428 965 378 985 q 513 910 478 946 q 569 822 549 874 q 589 703 589 769 m 431 703 q 401 808 431 769 q 318 846 372 846 q 235 808 265 846 q 204 703 204 769 q 234 602 204 640 q 318 564 264 564 q 401 602 372 564 q 431 703 431 640 z "},"»":{"ha":829,"x_min":42,"x_max":801,"o":"m 42 654 l 199 728 l 426 394 l 199 61 l 42 135 l 182 394 l 42 654 m 417 654 l 574 728 l 801 394 l 574 61 l 417 135 l 557 394 l 417 654 z "},"¼":{"ha":1219,"x_min":28,"x_max":1197,"o":"m 28 858 q 141 912 86 882 q 236 974 196 942 l 357 974 l 357 419 l 199 419 l 199 794 q 142 766 171 779 q 71 738 113 753 l 28 858 m 942 963 l 449 0 l 257 0 l 753 963 l 942 963 m 1133 557 l 1133 236 l 1197 236 l 1197 121 l 1133 121 l 1133 1 l 1003 1 l 1003 121 l 743 121 l 743 221 q 862 399 801 319 q 996 557 922 479 l 1133 557 m 1003 403 q 942 326 971 367 q 889 236 914 285 l 1003 236 l 1003 403 z "},"½":{"ha":1219,"x_min":28,"x_max":1163,"o":"m 28 858 q 141 912 86 882 q 236 974 196 942 l 357 974 l 357 419 l 199 419 l 199 794 q 142 766 171 779 q 71 738 113 753 l 28 858 m 903 963 l 410 0 l 218 0 l 714 963 l 903 963 m 1149 397 q 1139 342 1149 367 q 1113 295 1129 317 q 1076 255 1097 274 q 1035 218 1056 236 q 986 174 1011 199 q 946 129 961 150 l 1163 129 l 1163 3 l 764 3 q 763 23 763 14 q 763 42 763 32 q 799 165 763 110 q 907 279 836 219 q 967 335 944 311 q 990 383 990 358 q 978 417 990 404 q 942 429 965 429 q 867 413 901 429 q 810 378 833 397 l 738 486 q 830 542 774 517 q 949 568 886 568 q 1041 556 1003 568 q 1103 520 1079 543 q 1138 466 1126 497 q 1149 397 1149 435 z "},"¾":{"ha":1219,"x_min":32,"x_max":1197,"o":"m 215 539 q 283 553 264 539 q 303 590 303 568 q 206 647 303 647 l 149 647 l 149 761 l 206 761 q 258 774 238 761 q 279 811 279 786 q 218 856 279 856 q 154 845 186 856 q 93 821 122 835 l 40 931 q 127 969 75 953 q 229 985 179 985 q 323 972 285 985 q 384 938 361 960 q 417 888 407 917 q 426 829 426 860 q 413 774 426 800 q 368 722 400 747 q 433 667 413 701 q 453 589 453 632 q 440 518 453 551 q 400 460 428 485 q 327 422 372 436 q 217 408 282 408 q 167 411 193 408 q 117 419 142 414 q 70 431 92 425 q 32 446 49 438 l 64 569 q 144 544 111 550 q 215 539 176 539 m 971 963 l 478 0 l 286 0 l 782 963 l 971 963 m 1133 557 l 1133 236 l 1197 236 l 1197 121 l 1133 121 l 1133 1 l 1003 1 l 1003 121 l 743 121 l 743 221 q 862 399 801 319 q 996 557 922 479 l 1133 557 m 1003 403 q 942 326 971 367 q 889 236 914 285 l 1003 236 l 1003 403 z "},"¿":{"ha":632,"x_min":35,"x_max":604,"o":"m 353 -97 q 447 -85 403 -97 q 546 -44 492 -72 l 604 -201 q 476 -255 550 -236 q 332 -274 403 -274 q 185 -250 243 -274 q 94 -190 128 -226 q 48 -111 61 -154 q 35 -29 35 -68 q 47 42 35 10 q 76 103 58 75 q 117 156 94 131 q 164 203 140 181 q 199 238 181 219 q 231 278 217 257 q 256 322 246 299 q 265 368 265 344 q 265 385 265 374 q 264 404 265 396 l 447 404 q 451 373 450 390 q 451 343 451 356 q 442 272 451 304 q 416 213 432 240 q 379 163 400 186 q 336 118 358 140 q 278 55 304 86 q 251 -17 251 24 q 277 -74 251 -50 q 353 -97 303 -97 m 224 601 q 263 696 224 663 q 353 729 303 729 q 442 696 403 729 q 482 601 482 663 q 442 507 482 540 q 353 474 403 474 q 263 507 303 474 q 224 601 224 540 z "},"À":{"ha":1001,"x_min":14,"x_max":988,"o":"m 756 0 q 722 103 740 50 q 685 208 703 156 l 310 208 q 273 103 292 156 q 239 0 254 50 l 14 0 q 117 288 68 156 q 212 536 165 419 q 303 758 258 653 q 397 963 349 863 l 604 963 q 697 758 651 863 q 790 536 743 653 q 885 288 836 419 q 988 0 933 156 l 756 0 m 496 744 q 475 688 489 724 q 443 604 461 651 q 403 500 425 557 q 360 381 382 443 l 633 381 q 590 500 611 443 q 551 604 569 557 q 518 688 532 651 q 496 744 504 724 m 456 1332 l 653 1107 l 558 1022 l 329 1215 l 456 1332 z "},"Á":{"ha":1001,"x_min":14,"x_max":988,"o":"m 756 0 q 722 103 740 50 q 685 208 703 156 l 310 208 q 273 103 292 156 q 239 0 254 50 l 14 0 q 117 288 68 156 q 212 536 165 419 q 303 758 258 653 q 397 963 349 863 l 604 963 q 697 758 651 863 q 790 536 743 653 q 885 288 836 419 q 988 0 933 156 l 756 0 m 496 744 q 475 688 489 724 q 443 604 461 651 q 403 500 425 557 q 360 381 382 443 l 633 381 q 590 500 611 443 q 551 604 569 557 q 518 688 532 651 q 496 744 504 724 m 661 1215 l 432 1022 l 338 1107 l 535 1332 l 661 1215 z "},"Â":{"ha":1001,"x_min":14,"x_max":988,"o":"m 756 0 q 722 103 740 50 q 685 208 703 156 l 310 208 q 273 103 292 156 q 239 0 254 50 l 14 0 q 117 288 68 156 q 212 536 165 419 q 303 758 258 653 q 397 963 349 863 l 604 963 q 697 758 651 863 q 790 536 743 653 q 885 288 836 419 q 988 0 933 156 l 756 0 m 496 744 q 475 688 489 724 q 443 604 461 651 q 403 500 425 557 q 360 381 382 443 l 633 381 q 590 500 611 443 q 551 604 569 557 q 518 688 532 651 q 496 744 504 724 m 715 1126 l 639 1035 l 500 1142 l 361 1035 l 282 1126 l 500 1317 l 715 1126 z "},"Ã":{"ha":1001,"x_min":14,"x_max":988,"o":"m 756 0 q 722 103 740 50 q 685 208 703 156 l 310 208 q 273 103 292 156 q 239 0 254 50 l 14 0 q 117 288 68 156 q 212 536 165 419 q 303 758 258 653 q 397 963 349 863 l 604 963 q 697 758 651 863 q 790 536 743 653 q 885 288 836 419 q 988 0 933 156 l 756 0 m 496 744 q 475 688 489 724 q 443 604 461 651 q 403 500 425 557 q 360 381 382 443 l 633 381 q 590 500 611 443 q 551 604 569 557 q 518 688 532 651 q 496 744 504 724 m 761 1211 q 738 1165 753 1190 q 703 1119 724 1140 q 656 1083 682 1097 q 597 1069 629 1069 q 551 1077 572 1069 q 508 1094 529 1085 q 467 1110 488 1103 q 424 1118 446 1118 q 378 1100 396 1118 q 349 1058 360 1082 l 247 1125 q 270 1171 256 1146 q 306 1217 285 1196 q 353 1253 326 1239 q 411 1267 379 1267 q 458 1259 436 1267 q 500 1242 479 1251 q 541 1226 521 1233 q 585 1218 561 1218 q 631 1236 613 1218 q 660 1278 649 1254 l 761 1211 z "},"Ä":{"ha":1001,"x_min":14,"x_max":988,"o":"m 756 0 q 722 103 740 50 q 685 208 703 156 l 310 208 q 273 103 292 156 q 239 0 254 50 l 14 0 q 117 288 68 156 q 212 536 165 419 q 303 758 258 653 q 397 963 349 863 l 604 963 q 697 758 651 863 q 790 536 743 653 q 885 288 836 419 q 988 0 933 156 l 756 0 m 496 744 q 475 688 489 724 q 443 604 461 651 q 403 500 425 557 q 360 381 382 443 l 633 381 q 590 500 611 443 q 551 604 569 557 q 518 688 532 651 q 496 744 504 724 m 336 1058 q 261 1087 293 1058 q 229 1164 229 1115 q 261 1241 229 1213 q 336 1269 293 1269 q 411 1241 379 1269 q 443 1164 443 1213 q 411 1087 443 1115 q 336 1058 379 1058 m 646 1058 q 571 1087 603 1058 q 539 1164 539 1115 q 571 1241 539 1213 q 646 1269 603 1269 q 721 1241 689 1269 q 753 1164 753 1213 q 721 1087 753 1115 q 646 1058 689 1058 z "},"Å":{"ha":1001,"x_min":14,"x_max":988,"o":"m 756 0 q 722 103 740 50 q 685 208 703 156 l 310 208 q 273 103 292 156 q 239 0 254 50 l 14 0 q 114 281 67 151 q 207 526 161 411 q 297 743 253 640 q 389 944 342 846 q 351 995 365 965 q 338 1065 338 1025 q 351 1134 338 1104 q 387 1184 364 1164 q 439 1215 410 1204 q 500 1225 468 1225 q 563 1215 533 1225 q 616 1184 593 1204 q 652 1134 639 1164 q 665 1065 665 1104 q 651 994 665 1025 q 613 944 636 964 q 703 743 658 846 q 794 526 749 640 q 887 281 839 411 q 988 0 935 151 l 756 0 m 496 744 q 475 688 489 724 q 443 604 461 651 q 403 500 425 557 q 360 381 382 443 l 633 381 q 590 500 611 443 q 551 604 569 557 q 518 688 532 651 q 496 744 504 724 m 564 1065 q 544 1114 564 1097 q 500 1131 525 1131 q 457 1114 476 1131 q 438 1065 438 1097 q 457 1017 438 1033 q 500 1000 476 1000 q 544 1017 525 1000 q 564 1065 564 1033 z "},"Æ":{"ha":1381,"x_min":14,"x_max":1332,"o":"m 681 228 l 375 228 q 311 114 346 175 q 251 0 276 53 l 14 0 q 329 542 183 304 q 606 963 475 781 l 1300 963 l 1300 781 l 890 781 l 890 592 l 1251 592 l 1251 414 l 890 414 l 890 182 l 1332 182 l 1332 0 l 681 0 l 681 228 m 681 753 q 631 676 658 721 q 573 584 603 632 q 515 488 543 536 q 463 400 486 439 l 681 400 l 681 753 z "},"Ç":{"ha":900,"x_min":69,"x_max":872,"o":"m 600 -18 q 590 -39 594 -29 q 583 -56 586 -49 q 644 -108 628 -78 q 661 -171 661 -139 q 608 -272 661 -237 q 469 -307 556 -307 q 408 -302 439 -307 q 347 -289 378 -297 l 372 -168 q 408 -177 382 -171 q 458 -183 433 -183 q 492 -176 478 -183 q 508 -149 507 -168 q 495 -118 510 -132 q 449 -97 481 -104 l 432 -93 q 447 -55 438 -76 q 464 -14 456 -33 q 169 137 269 10 q 69 482 69 264 q 107 695 69 601 q 210 853 144 789 q 365 951 275 918 q 561 985 456 985 q 672 976 622 985 q 760 955 722 967 q 822 931 797 943 q 858 911 847 918 l 796 736 q 692 776 751 760 q 558 793 633 793 q 460 776 508 793 q 376 723 413 760 q 317 628 339 686 q 294 486 294 569 q 309 362 294 419 q 356 263 324 304 q 442 197 389 221 q 569 172 494 172 q 654 178 617 172 q 721 191 692 183 q 772 208 750 199 q 813 226 794 218 l 872 53 q 762 8 832 28 q 600 -18 692 -12 z "},"È":{"ha":842,"x_min":111,"x_max":793,"o":"m 111 0 l 111 963 l 761 963 l 761 781 l 328 781 l 328 592 l 713 592 l 713 414 l 328 414 l 328 182 l 793 182 l 793 0 l 111 0 m 392 1332 l 589 1107 l 494 1022 l 265 1215 l 392 1332 z "},"É":{"ha":842,"x_min":111,"x_max":793,"o":"m 111 0 l 111 963 l 761 963 l 761 781 l 328 781 l 328 592 l 713 592 l 713 414 l 328 414 l 328 182 l 793 182 l 793 0 l 111 0 m 611 1215 l 382 1022 l 288 1107 l 485 1332 l 611 1215 z "},"Ê":{"ha":842,"x_min":111,"x_max":793,"o":"m 111 0 l 111 963 l 761 963 l 761 781 l 328 781 l 328 592 l 713 592 l 713 414 l 328 414 l 328 182 l 793 182 l 793 0 l 111 0 m 654 1126 l 578 1035 l 439 1142 l 300 1035 l 221 1126 l 439 1317 l 654 1126 z "},"Ë":{"ha":842,"x_min":111,"x_max":793,"o":"m 111 0 l 111 963 l 761 963 l 761 781 l 328 781 l 328 592 l 713 592 l 713 414 l 328 414 l 328 182 l 793 182 l 793 0 l 111 0 m 278 1058 q 203 1087 235 1058 q 171 1164 171 1115 q 203 1241 171 1213 q 278 1269 235 1269 q 353 1241 321 1269 q 385 1164 385 1213 q 353 1087 385 1115 q 278 1058 321 1058 m 588 1058 q 513 1087 544 1058 q 481 1164 481 1115 q 513 1241 481 1213 q 588 1269 544 1269 q 663 1241 631 1269 q 694 1164 694 1213 q 663 1087 694 1115 q 588 1058 631 1058 z "},"Ì":{"ha":439,"x_min":49,"x_max":372,"o":"m 111 963 l 328 963 l 328 0 l 111 0 l 111 963 m 175 1332 l 372 1107 l 278 1022 l 49 1215 l 175 1332 z "},"Í":{"ha":439,"x_min":69,"x_max":393,"o":"m 111 963 l 328 963 l 328 0 l 111 0 l 111 963 m 393 1215 l 164 1022 l 69 1107 l 267 1332 l 393 1215 z "},"Î":{"ha":439,"x_min":6,"x_max":439,"o":"m 111 963 l 328 963 l 328 0 l 111 0 l 111 963 m 439 1126 l 363 1035 l 224 1142 l 85 1035 l 6 1126 l 224 1317 l 439 1126 z "},"Ï":{"ha":439,"x_min":-39,"x_max":485,"o":"m 111 963 l 328 963 l 328 0 l 111 0 l 111 963 m 68 1058 q -7 1087 25 1058 q -39 1164 -39 1115 q -7 1241 -39 1213 q 68 1269 25 1269 q 143 1241 111 1269 q 175 1164 175 1213 q 143 1087 175 1115 q 68 1058 111 1058 m 378 1058 q 303 1087 335 1058 q 271 1164 271 1115 q 303 1241 271 1213 q 378 1269 335 1269 q 453 1241 421 1269 q 485 1164 485 1213 q 453 1087 485 1115 q 378 1058 421 1058 z "},"Ð":{"ha":1039,"x_min":14,"x_max":969,"o":"m 343 176 q 378 174 358 175 q 426 174 399 174 q 667 256 589 174 q 746 482 746 338 q 671 711 746 633 q 433 789 596 789 q 388 788 411 789 q 343 785 364 788 l 343 579 l 518 579 l 518 419 l 343 419 l 343 176 m 969 482 q 931 264 969 357 q 820 110 892 171 q 646 18 749 49 q 415 -12 543 -12 q 279 -8 357 -12 q 126 13 201 -3 l 126 419 l 14 419 l 14 579 l 126 579 l 126 950 q 283 969 201 964 q 422 974 364 974 q 647 946 546 974 q 819 858 747 918 q 931 706 892 799 q 969 482 969 613 z "},"Ñ":{"ha":1050,"x_min":111,"x_max":939,"o":"m 757 0 q 556 326 664 165 q 325 631 447 488 l 325 0 l 111 0 l 111 963 l 288 963 q 389 850 333 917 q 502 708 444 783 q 617 551 560 632 q 724 394 674 469 l 724 963 l 939 963 l 939 0 l 757 0 m 785 1211 q 762 1165 776 1190 q 726 1119 747 1140 q 679 1083 706 1097 q 621 1069 653 1069 q 574 1077 596 1069 q 532 1094 553 1085 q 490 1110 511 1103 q 447 1118 469 1118 q 401 1100 419 1118 q 372 1058 383 1082 l 271 1125 q 294 1171 279 1146 q 329 1217 308 1196 q 376 1253 350 1239 q 435 1267 403 1267 q 481 1259 460 1267 q 524 1242 503 1251 q 565 1226 544 1233 q 608 1218 585 1218 q 654 1236 636 1218 q 683 1278 672 1254 l 785 1211 z "},"Ò":{"ha":1097,"x_min":69,"x_max":1028,"o":"m 293 482 q 310 354 293 411 q 360 256 328 297 q 440 193 393 215 q 549 171 488 171 q 656 193 608 171 q 737 256 704 215 q 787 354 769 297 q 804 482 804 411 q 787 610 804 553 q 737 709 769 668 q 656 772 704 750 q 549 794 608 794 q 440 772 488 794 q 360 708 393 749 q 310 609 328 667 q 293 482 293 551 m 1028 482 q 991 265 1028 358 q 890 108 954 171 q 738 13 826 44 q 549 -19 650 -19 q 363 13 450 -19 q 210 108 275 44 q 107 265 144 171 q 69 482 69 358 q 108 699 69 606 q 213 857 147 793 q 366 953 279 921 q 549 985 453 985 q 735 953 647 985 q 888 857 822 921 q 990 699 953 793 q 1028 482 1028 606 m 504 1332 l 701 1107 l 607 1022 l 378 1215 l 504 1332 z "},"Ó":{"ha":1097,"x_min":69,"x_max":1028,"o":"m 293 482 q 310 354 293 411 q 360 256 328 297 q 440 193 393 215 q 549 171 488 171 q 656 193 608 171 q 737 256 704 215 q 787 354 769 297 q 804 482 804 411 q 787 610 804 553 q 737 709 769 668 q 656 772 704 750 q 549 794 608 794 q 440 772 488 794 q 360 708 393 749 q 310 609 328 667 q 293 482 293 551 m 1028 482 q 991 265 1028 358 q 890 108 954 171 q 738 13 826 44 q 549 -19 650 -19 q 363 13 450 -19 q 210 108 275 44 q 107 265 144 171 q 69 482 69 358 q 108 699 69 606 q 213 857 147 793 q 366 953 279 921 q 549 985 453 985 q 735 953 647 985 q 888 857 822 921 q 990 699 953 793 q 1028 482 1028 606 m 713 1215 l 483 1022 l 389 1107 l 586 1332 l 713 1215 z "},"Ô":{"ha":1097,"x_min":69,"x_max":1028,"o":"m 293 482 q 310 354 293 411 q 360 256 328 297 q 440 193 393 215 q 549 171 488 171 q 656 193 608 171 q 737 256 704 215 q 787 354 769 297 q 804 482 804 411 q 787 610 804 553 q 737 709 769 668 q 656 772 704 750 q 549 794 608 794 q 440 772 488 794 q 360 708 393 749 q 310 609 328 667 q 293 482 293 551 m 1028 482 q 991 265 1028 358 q 890 108 954 171 q 738 13 826 44 q 549 -19 650 -19 q 363 13 450 -19 q 210 108 275 44 q 107 265 144 171 q 69 482 69 358 q 108 699 69 606 q 213 857 147 793 q 366 953 279 921 q 549 985 453 985 q 735 953 647 985 q 888 857 822 921 q 990 699 953 793 q 1028 482 1028 606 m 765 1126 l 689 1035 l 550 1142 l 411 1035 l 332 1126 l 550 1317 l 765 1126 z "},"Õ":{"ha":1097,"x_min":69,"x_max":1028,"o":"m 293 482 q 310 354 293 411 q 360 256 328 297 q 440 193 393 215 q 549 171 488 171 q 656 193 608 171 q 737 256 704 215 q 787 354 769 297 q 804 482 804 411 q 787 610 804 553 q 737 709 769 668 q 656 772 704 750 q 549 794 608 794 q 440 772 488 794 q 360 708 393 749 q 310 609 328 667 q 293 482 293 551 m 1028 482 q 991 265 1028 358 q 890 108 954 171 q 738 13 826 44 q 549 -19 650 -19 q 363 13 450 -19 q 210 108 275 44 q 107 265 144 171 q 69 482 69 358 q 108 699 69 606 q 213 857 147 793 q 366 953 279 921 q 549 985 453 985 q 735 953 647 985 q 888 857 822 921 q 990 699 953 793 q 1028 482 1028 606 m 808 1211 q 785 1165 800 1190 q 750 1119 771 1140 q 703 1083 729 1097 q 644 1069 676 1069 q 598 1077 619 1069 q 556 1094 576 1085 q 514 1110 535 1103 q 471 1118 493 1118 q 425 1100 443 1118 q 396 1058 407 1082 l 294 1125 q 317 1171 303 1146 q 353 1217 332 1196 q 400 1253 374 1239 q 458 1267 426 1267 q 505 1259 483 1267 q 547 1242 526 1251 q 588 1226 568 1233 q 632 1218 608 1218 q 678 1236 660 1218 q 707 1278 696 1254 l 808 1211 z "},"Ö":{"ha":1097,"x_min":69,"x_max":1028,"o":"m 293 482 q 310 354 293 411 q 360 256 328 297 q 440 193 393 215 q 549 171 488 171 q 656 193 608 171 q 737 256 704 215 q 787 354 769 297 q 804 482 804 411 q 787 610 804 553 q 737 709 769 668 q 656 772 704 750 q 549 794 608 794 q 440 772 488 794 q 360 708 393 749 q 310 609 328 667 q 293 482 293 551 m 1028 482 q 991 265 1028 358 q 890 108 954 171 q 738 13 826 44 q 549 -19 650 -19 q 363 13 450 -19 q 210 108 275 44 q 107 265 144 171 q 69 482 69 358 q 108 699 69 606 q 213 857 147 793 q 366 953 279 921 q 549 985 453 985 q 735 953 647 985 q 888 857 822 921 q 990 699 953 793 q 1028 482 1028 606 m 385 1058 q 310 1087 342 1058 q 278 1164 278 1115 q 310 1241 278 1213 q 385 1269 342 1269 q 460 1241 428 1269 q 492 1164 492 1213 q 460 1087 492 1115 q 385 1058 428 1058 m 694 1058 q 619 1087 651 1058 q 588 1164 588 1115 q 619 1241 588 1213 q 694 1269 651 1269 q 769 1241 738 1269 q 801 1164 801 1213 q 769 1087 801 1115 q 694 1058 738 1058 z "},"×":{"ha":789,"x_min":86,"x_max":704,"o":"m 583 725 l 704 604 l 515 415 l 704 228 l 583 107 l 394 296 l 207 107 l 86 228 l 275 415 l 86 604 l 207 725 l 394 536 l 583 725 z "},"Ø":{"ha":1097,"x_min":69,"x_max":1028,"o":"m 1028 482 q 991 265 1028 358 q 890 108 954 171 q 738 13 826 44 q 549 -19 650 -19 q 416 -5 479 -19 q 299 42 353 10 l 218 -62 l 100 25 l 185 133 q 100 283 131 196 q 69 482 69 369 q 108 699 69 606 q 213 857 147 793 q 366 953 279 921 q 549 985 453 985 q 796 924 686 985 l 874 1025 l 992 938 l 910 832 q 997 682 965 769 q 1028 482 1028 594 m 804 482 q 771 653 804 582 l 422 201 q 549 171 479 171 q 656 193 608 171 q 737 256 704 215 q 787 354 769 297 q 804 482 804 411 m 293 482 q 325 315 293 386 l 672 764 q 549 794 618 794 q 440 772 488 794 q 360 708 393 749 q 310 609 328 667 q 293 482 293 551 z "},"Ù":{"ha":982,"x_min":97,"x_max":885,"o":"m 488 -19 q 313 9 386 -19 q 191 88 239 38 q 120 209 143 139 q 97 364 97 279 l 97 963 l 314 963 l 314 382 q 327 283 314 324 q 363 216 340 242 q 419 179 386 190 q 490 168 451 168 q 619 217 569 168 q 668 382 668 265 l 668 963 l 885 963 l 885 364 q 861 208 885 279 q 789 87 838 138 q 665 8 740 36 q 488 -19 590 -19 m 418 1332 l 615 1107 l 521 1022 l 292 1215 l 418 1332 z "},"Ú":{"ha":982,"x_min":97,"x_max":885,"o":"m 488 -19 q 313 9 386 -19 q 191 88 239 38 q 120 209 143 139 q 97 364 97 279 l 97 963 l 314 963 l 314 382 q 327 283 314 324 q 363 216 340 242 q 419 179 386 190 q 490 168 451 168 q 619 217 569 168 q 668 382 668 265 l 668 963 l 885 963 l 885 364 q 861 208 885 279 q 789 87 838 138 q 665 8 740 36 q 488 -19 590 -19 m 679 1215 l 450 1022 l 356 1107 l 553 1332 l 679 1215 z "},"Û":{"ha":982,"x_min":97,"x_max":885,"o":"m 488 -19 q 313 9 386 -19 q 191 88 239 38 q 120 209 143 139 q 97 364 97 279 l 97 963 l 314 963 l 314 382 q 327 283 314 324 q 363 216 340 242 q 419 179 386 190 q 490 168 451 168 q 619 217 569 168 q 668 382 668 265 l 668 963 l 885 963 l 885 364 q 861 208 885 279 q 789 87 838 138 q 665 8 740 36 q 488 -19 590 -19 m 706 1126 l 629 1035 l 490 1142 l 351 1035 l 272 1126 l 490 1317 l 706 1126 z "},"Ü":{"ha":982,"x_min":97,"x_max":885,"o":"m 488 -19 q 313 9 386 -19 q 191 88 239 38 q 120 209 143 139 q 97 364 97 279 l 97 963 l 314 963 l 314 382 q 327 283 314 324 q 363 216 340 242 q 419 179 386 190 q 490 168 451 168 q 619 217 569 168 q 668 382 668 265 l 668 963 l 885 963 l 885 364 q 861 208 885 279 q 789 87 838 138 q 665 8 740 36 q 488 -19 590 -19 m 336 1058 q 261 1087 293 1058 q 229 1164 229 1115 q 261 1241 229 1213 q 336 1269 293 1269 q 411 1241 379 1269 q 443 1164 443 1213 q 411 1087 443 1115 q 336 1058 379 1058 m 646 1058 q 571 1087 603 1058 q 539 1164 539 1115 q 571 1241 539 1213 q 646 1269 603 1269 q 721 1241 689 1269 q 753 1164 753 1213 q 721 1087 753 1115 q 646 1058 689 1058 z "},"Ý":{"ha":918,"x_min":7,"x_max":911,"o":"m 464 567 q 575 764 522 665 q 672 963 628 863 l 911 963 q 747 661 832 807 q 568 368 663 515 l 568 0 l 351 0 l 351 365 q 172 660 257 513 q 7 963 86 807 l 258 963 q 354 764 303 863 q 464 567 406 665 m 654 1215 l 425 1022 l 331 1107 l 528 1332 l 654 1215 z "},"Þ":{"ha":894,"x_min":111,"x_max":846,"o":"m 428 828 q 597 810 519 828 q 729 754 674 793 q 815 654 785 715 q 846 506 846 593 q 729 255 846 332 q 396 178 613 178 l 328 178 l 328 0 l 111 0 l 111 963 l 328 963 l 328 824 q 351 826 338 825 q 379 827 365 826 q 406 828 393 828 q 428 828 419 828 m 414 644 q 367 643 390 644 q 328 640 344 642 l 328 363 l 396 363 q 565 393 508 363 q 622 507 622 424 q 608 574 622 547 q 566 616 593 600 q 500 638 539 632 q 414 644 461 644 z "},"ß":{"ha":915,"x_min":97,"x_max":863,"o":"m 733 847 q 722 754 733 789 q 682 688 710 719 q 627 621 651 651 q 603 551 603 590 q 614 515 603 531 q 643 486 625 500 q 685 458 661 472 q 738 429 710 444 q 825 353 788 400 q 863 231 863 306 q 794 47 863 111 q 569 -17 726 -17 q 447 -3 493 -17 q 374 22 401 11 l 408 189 q 442 177 422 183 q 482 165 461 171 q 524 156 503 160 q 565 153 546 153 q 658 228 658 153 q 621 292 658 264 q 525 347 583 321 q 460 386 485 365 q 424 430 436 407 q 407 476 411 453 q 403 525 403 500 q 429 623 403 583 q 492 704 456 663 q 528 756 515 732 q 540 815 540 779 q 511 883 540 861 q 432 906 482 906 q 333 864 365 906 q 300 744 300 822 l 300 0 l 97 0 l 97 740 q 117 876 97 814 q 177 983 136 938 q 280 1053 218 1028 q 426 1078 342 1078 q 565 1059 507 1078 q 661 1009 624 1040 q 716 935 699 978 q 733 847 733 893 z "},"à":{"ha":768,"x_min":49,"x_max":678,"o":"m 376 144 q 435 146 407 144 q 479 150 463 147 l 479 307 q 442 313 467 310 q 396 315 417 315 q 341 312 367 315 q 296 299 315 308 q 265 272 276 289 q 254 231 254 256 q 287 163 254 182 q 376 144 319 144 m 360 750 q 513 729 451 750 q 610 669 574 708 q 663 575 647 631 q 678 451 678 519 l 678 21 q 554 -2 633 11 q 363 -15 475 -15 q 234 -3 292 -15 q 135 38 176 10 q 71 113 93 67 q 49 225 49 158 q 74 333 49 289 q 143 404 100 378 q 242 442 186 431 q 357 454 297 454 q 428 451 397 454 q 479 442 460 447 l 479 461 q 447 546 479 514 q 336 578 415 578 q 232 570 283 578 q 143 549 181 563 l 117 715 q 162 727 135 721 q 221 738 189 733 q 288 747 253 743 q 360 750 324 750 m 325 1110 l 522 885 l 428 800 l 199 993 l 325 1110 z "},"á":{"ha":768,"x_min":49,"x_max":678,"o":"m 376 144 q 435 146 407 144 q 479 150 463 147 l 479 307 q 442 313 467 310 q 396 315 417 315 q 341 312 367 315 q 296 299 315 308 q 265 272 276 289 q 254 231 254 256 q 287 163 254 182 q 376 144 319 144 m 360 750 q 513 729 451 750 q 610 669 574 708 q 663 575 647 631 q 678 451 678 519 l 678 21 q 554 -2 633 11 q 363 -15 475 -15 q 234 -3 292 -15 q 135 38 176 10 q 71 113 93 67 q 49 225 49 158 q 74 333 49 289 q 143 404 100 378 q 242 442 186 431 q 357 454 297 454 q 428 451 397 454 q 479 442 460 447 l 479 461 q 447 546 479 514 q 336 578 415 578 q 232 570 283 578 q 143 549 181 563 l 117 715 q 162 727 135 721 q 221 738 189 733 q 288 747 253 743 q 360 750 324 750 m 551 993 l 322 800 l 228 885 l 425 1110 l 551 993 z "},"â":{"ha":768,"x_min":49,"x_max":678,"o":"m 376 144 q 435 146 407 144 q 479 150 463 147 l 479 307 q 442 313 467 310 q 396 315 417 315 q 341 312 367 315 q 296 299 315 308 q 265 272 276 289 q 254 231 254 256 q 287 163 254 182 q 376 144 319 144 m 360 750 q 513 729 451 750 q 610 669 574 708 q 663 575 647 631 q 678 451 678 519 l 678 21 q 554 -2 633 11 q 363 -15 475 -15 q 234 -3 292 -15 q 135 38 176 10 q 71 113 93 67 q 49 225 49 158 q 74 333 49 289 q 143 404 100 378 q 242 442 186 431 q 357 454 297 454 q 428 451 397 454 q 479 442 460 447 l 479 461 q 447 546 479 514 q 336 578 415 578 q 232 570 283 578 q 143 549 181 563 l 117 715 q 162 727 135 721 q 221 738 189 733 q 288 747 253 743 q 360 750 324 750 m 578 896 l 501 804 l 363 911 l 224 804 l 144 896 l 363 1086 l 578 896 z "},"ã":{"ha":768,"x_min":49,"x_max":678,"o":"m 376 144 q 435 146 407 144 q 479 150 463 147 l 479 307 q 442 313 467 310 q 396 315 417 315 q 341 312 367 315 q 296 299 315 308 q 265 272 276 289 q 254 231 254 256 q 287 163 254 182 q 376 144 319 144 m 360 750 q 513 729 451 750 q 610 669 574 708 q 663 575 647 631 q 678 451 678 519 l 678 21 q 554 -2 633 11 q 363 -15 475 -15 q 234 -3 292 -15 q 135 38 176 10 q 71 113 93 67 q 49 225 49 158 q 74 333 49 289 q 143 404 100 378 q 242 442 186 431 q 357 454 297 454 q 428 451 397 454 q 479 442 460 447 l 479 461 q 447 546 479 514 q 336 578 415 578 q 232 570 283 578 q 143 549 181 563 l 117 715 q 162 727 135 721 q 221 738 189 733 q 288 747 253 743 q 360 750 324 750 m 632 985 q 609 939 624 964 q 574 892 594 914 q 526 857 553 871 q 468 843 500 843 q 422 851 443 843 q 379 867 400 858 q 338 884 358 876 q 294 892 317 892 q 249 874 267 892 q 219 832 231 856 l 118 899 q 141 944 126 919 q 176 991 156 969 q 224 1026 197 1013 q 282 1040 250 1040 q 328 1033 307 1040 q 371 1016 350 1025 q 412 999 392 1007 q 456 992 432 992 q 501 1010 483 992 q 531 1051 519 1028 l 632 985 z "},"ä":{"ha":768,"x_min":49,"x_max":678,"o":"m 376 144 q 435 146 407 144 q 479 150 463 147 l 479 307 q 442 313 467 310 q 396 315 417 315 q 341 312 367 315 q 296 299 315 308 q 265 272 276 289 q 254 231 254 256 q 287 163 254 182 q 376 144 319 144 m 360 750 q 513 729 451 750 q 610 669 574 708 q 663 575 647 631 q 678 451 678 519 l 678 21 q 554 -2 633 11 q 363 -15 475 -15 q 234 -3 292 -15 q 135 38 176 10 q 71 113 93 67 q 49 225 49 158 q 74 333 49 289 q 143 404 100 378 q 242 442 186 431 q 357 454 297 454 q 428 451 397 454 q 479 442 460 447 l 479 461 q 447 546 479 514 q 336 578 415 578 q 232 570 283 578 q 143 549 181 563 l 117 715 q 162 727 135 721 q 221 738 189 733 q 288 747 253 743 q 360 750 324 750 m 214 836 q 139 865 171 836 q 107 942 107 893 q 139 1019 107 990 q 214 1047 171 1047 q 289 1019 257 1047 q 321 942 321 990 q 289 865 321 893 q 214 836 257 836 m 524 836 q 449 865 481 836 q 417 942 417 893 q 449 1019 417 990 q 524 1047 481 1047 q 599 1019 567 1047 q 631 942 631 990 q 599 865 631 893 q 524 836 567 836 z "},"å":{"ha":768,"x_min":49,"x_max":678,"o":"m 376 144 q 435 146 407 144 q 479 150 463 147 l 479 307 q 442 313 467 310 q 396 315 417 315 q 341 312 367 315 q 296 299 315 308 q 265 272 276 289 q 254 231 254 256 q 287 163 254 182 q 376 144 319 144 m 360 750 q 513 729 451 750 q 610 669 574 708 q 663 575 647 631 q 678 451 678 519 l 678 21 q 554 -2 633 11 q 363 -15 475 -15 q 234 -3 292 -15 q 135 38 176 10 q 71 113 93 67 q 49 225 49 158 q 74 333 49 289 q 143 404 100 378 q 242 442 186 431 q 357 454 297 454 q 428 451 397 454 q 479 442 460 447 l 479 461 q 447 546 479 514 q 336 578 415 578 q 232 570 283 578 q 143 549 181 563 l 117 715 q 162 727 135 721 q 221 738 189 733 q 288 747 253 743 q 360 750 324 750 m 549 971 q 535 902 549 932 q 499 852 522 872 q 447 822 476 832 q 383 811 417 811 q 322 822 351 811 q 270 852 293 832 q 234 902 247 872 q 221 971 221 932 q 234 1040 221 1010 q 270 1090 247 1069 q 322 1120 293 1110 q 383 1131 351 1131 q 447 1120 417 1131 q 499 1090 476 1110 q 535 1040 522 1069 q 549 971 549 1010 m 447 971 q 428 1019 447 1003 q 383 1036 408 1036 q 340 1019 360 1036 q 321 971 321 1003 q 340 922 321 939 q 383 906 360 906 q 428 922 408 906 q 447 971 447 939 z "},"æ":{"ha":1214,"x_min":49,"x_max":1151,"o":"m 360 750 q 438 744 403 750 q 499 727 472 739 q 549 697 526 715 q 590 651 571 678 q 697 727 638 704 q 825 750 757 750 q 960 726 900 750 q 1063 654 1019 701 q 1128 537 1106 607 q 1151 375 1151 467 q 1150 335 1151 357 q 1147 297 1149 314 l 678 297 q 738 196 685 233 q 879 158 790 158 q 991 169 936 158 q 1081 194 1046 179 l 1108 26 q 1064 10 1092 18 q 1002 -5 1036 1 q 929 -15 968 -11 q 851 -19 890 -19 q 708 -1 769 -19 q 604 46 647 17 q 363 -15 500 -15 q 234 -3 292 -15 q 135 38 176 10 q 71 113 93 67 q 49 225 49 158 q 74 333 49 289 q 143 404 100 378 q 242 442 186 431 q 357 454 297 454 q 428 451 397 454 q 479 442 460 447 l 479 465 q 447 548 479 518 q 336 578 415 578 q 232 570 283 578 q 143 549 181 563 l 117 715 q 162 727 135 721 q 221 738 189 733 q 288 747 253 743 q 360 750 324 750 m 376 144 q 455 149 419 144 q 517 165 490 154 q 490 247 497 215 q 482 310 483 278 q 436 314 463 313 q 396 315 410 315 q 341 312 367 315 q 296 299 315 308 q 265 272 276 289 q 254 231 254 256 q 287 163 254 182 q 376 144 319 144 m 950 439 q 941 490 949 465 q 917 535 933 515 q 877 567 901 554 q 817 579 853 579 q 757 567 782 579 q 715 536 732 556 q 690 491 699 517 q 676 439 681 465 l 950 439 z "},"ç":{"ha":694,"x_min":63,"x_max":653,"o":"m 456 -56 q 517 -108 500 -78 q 533 -171 533 -139 q 481 -272 533 -237 q 342 -307 428 -307 q 281 -302 311 -307 q 219 -289 250 -297 l 244 -168 q 280 -177 254 -171 q 331 -183 306 -183 q 365 -176 350 -183 q 381 -149 379 -168 q 367 -118 382 -132 q 321 -97 353 -104 l 304 -93 q 319 -52 310 -75 q 339 -10 329 -29 q 215 38 267 4 q 128 122 163 72 q 78 233 94 171 q 63 365 63 296 q 88 515 63 444 q 163 637 114 585 q 281 719 211 689 q 439 750 350 750 q 546 740 497 750 q 640 710 594 729 l 597 544 q 533 564 568 556 q 456 572 499 572 q 319 515 364 572 q 274 365 274 458 q 316 213 274 267 q 464 158 358 158 q 544 165 501 158 q 624 188 588 172 l 653 18 q 574 -6 621 4 q 472 -18 528 -15 q 463 -39 467 -29 q 456 -56 458 -49 z "},"è":{"ha":811,"x_min":63,"x_max":749,"o":"m 63 360 q 92 530 63 457 q 171 651 122 603 q 283 725 219 700 q 413 750 346 750 q 658 655 568 750 q 749 375 749 560 q 747 335 749 357 q 744 297 746 314 l 275 297 q 335 196 282 233 q 476 158 388 158 q 588 169 533 158 q 678 194 643 179 l 706 26 q 661 10 689 18 q 599 -5 633 1 q 526 -15 565 -11 q 449 -19 488 -19 q 277 10 350 -19 q 156 90 204 39 q 85 210 108 140 q 63 360 63 279 m 549 439 q 540 490 547 465 q 516 535 532 515 q 476 567 500 554 q 415 579 451 579 q 356 567 381 579 q 314 536 331 556 q 288 491 297 517 q 275 439 279 465 l 549 439 m 361 1110 l 558 885 l 464 800 l 235 993 l 361 1110 z "},"é":{"ha":811,"x_min":63,"x_max":749,"o":"m 63 360 q 92 530 63 457 q 171 651 122 603 q 283 725 219 700 q 413 750 346 750 q 658 655 568 750 q 749 375 749 560 q 747 335 749 357 q 744 297 746 314 l 275 297 q 335 196 282 233 q 476 158 388 158 q 588 169 533 158 q 678 194 643 179 l 706 26 q 661 10 689 18 q 599 -5 633 1 q 526 -15 565 -11 q 449 -19 488 -19 q 277 10 350 -19 q 156 90 204 39 q 85 210 108 140 q 63 360 63 279 m 549 439 q 540 490 547 465 q 516 535 532 515 q 476 567 500 554 q 415 579 451 579 q 356 567 381 579 q 314 536 331 556 q 288 491 297 517 q 275 439 279 465 l 549 439 m 581 993 l 351 800 l 257 885 l 454 1110 l 581 993 z "},"ê":{"ha":811,"x_min":63,"x_max":749,"o":"m 63 360 q 92 530 63 457 q 171 651 122 603 q 283 725 219 700 q 413 750 346 750 q 658 655 568 750 q 749 375 749 560 q 747 335 749 357 q 744 297 746 314 l 275 297 q 335 196 282 233 q 476 158 388 158 q 588 169 533 158 q 678 194 643 179 l 706 26 q 661 10 689 18 q 599 -5 633 1 q 526 -15 565 -11 q 449 -19 488 -19 q 277 10 350 -19 q 156 90 204 39 q 85 210 108 140 q 63 360 63 279 m 549 439 q 540 490 547 465 q 516 535 532 515 q 476 567 500 554 q 415 579 451 579 q 356 567 381 579 q 314 536 331 556 q 288 491 297 517 q 275 439 279 465 l 549 439 m 621 896 l 544 804 l 406 911 l 267 804 l 188 896 l 406 1086 l 621 896 z "},"ë":{"ha":811,"x_min":63,"x_max":749,"o":"m 63 360 q 92 530 63 457 q 171 651 122 603 q 283 725 219 700 q 413 750 346 750 q 658 655 568 750 q 749 375 749 560 q 747 335 749 357 q 744 297 746 314 l 275 297 q 335 196 282 233 q 476 158 388 158 q 588 169 533 158 q 678 194 643 179 l 706 26 q 661 10 689 18 q 599 -5 633 1 q 526 -15 565 -11 q 449 -19 488 -19 q 277 10 350 -19 q 156 90 204 39 q 85 210 108 140 q 63 360 63 279 m 549 439 q 540 490 547 465 q 516 535 532 515 q 476 567 500 554 q 415 579 451 579 q 356 567 381 579 q 314 536 331 556 q 288 491 297 517 q 275 439 279 465 l 549 439 m 258 836 q 183 865 215 836 q 151 942 151 893 q 183 1019 151 990 q 258 1047 215 1047 q 333 1019 301 1047 q 365 942 365 990 q 333 865 365 893 q 258 836 301 836 m 568 836 q 493 865 525 836 q 461 942 461 893 q 493 1019 461 990 q 568 1047 525 1047 q 643 1019 611 1047 q 675 942 675 990 q 643 865 675 893 q 568 836 611 836 z "},"ì":{"ha":401,"x_min":31,"x_max":354,"o":"m 304 0 l 97 0 l 97 731 l 304 731 l 304 0 m 157 1110 l 354 885 l 260 800 l 31 993 l 157 1110 z "},"í":{"ha":401,"x_min":57,"x_max":381,"o":"m 304 0 l 97 0 l 97 731 l 304 731 l 304 0 m 381 993 l 151 800 l 57 885 l 254 1110 l 381 993 z "},"î":{"ha":401,"x_min":-14,"x_max":419,"o":"m 304 0 l 97 0 l 97 731 l 304 731 l 304 0 m 419 896 l 343 804 l 204 911 l 65 804 l -14 896 l 204 1086 l 419 896 z "},"ï":{"ha":401,"x_min":-67,"x_max":457,"o":"m 304 0 l 97 0 l 97 731 l 304 731 l 304 0 m 40 836 q -35 865 -3 836 q -67 942 -67 893 q -35 1019 -67 990 q 40 1047 -3 1047 q 115 1019 83 1047 q 147 942 147 990 q 115 865 147 893 q 40 836 83 836 m 350 836 q 275 865 307 836 q 243 942 243 893 q 275 1019 243 990 q 350 1047 307 1047 q 425 1019 393 1047 q 457 942 457 990 q 425 865 457 893 q 350 836 393 836 z "},"ð":{"ha":835,"x_min":63,"x_max":794,"o":"m 671 838 q 747 657 719 754 q 775 450 775 560 q 753 260 775 346 q 688 112 732 174 q 574 15 643 50 q 411 -19 506 -19 q 258 8 324 -19 q 149 83 193 36 q 84 192 106 129 q 63 325 63 254 q 84 465 63 401 q 149 574 106 529 q 257 643 192 618 q 410 668 322 668 q 485 658 446 668 q 553 633 525 647 q 493 776 536 707 l 339 725 l 299 842 l 410 879 q 360 924 386 903 q 306 964 333 944 l 421 1083 q 513 1020 469 1056 q 594 942 557 985 l 754 996 l 794 879 l 671 838 m 564 435 q 564 444 564 438 q 563 457 564 450 q 492 494 528 485 q 424 503 457 503 q 350 489 379 503 q 303 451 321 475 q 278 396 285 428 q 271 328 271 364 q 305 206 271 253 q 411 160 339 160 q 487 183 457 160 q 534 244 517 206 q 558 332 551 282 q 564 435 564 382 z "},"ñ":{"ha":818,"x_min":97,"x_max":728,"o":"m 97 706 q 233 734 150 721 q 408 747 317 747 q 563 723 501 747 q 661 654 625 699 q 713 549 697 610 q 728 413 728 488 l 728 0 l 521 0 l 521 388 q 494 529 521 488 q 396 571 468 571 q 349 569 374 571 q 304 564 324 567 l 304 0 l 97 0 l 97 706 m 669 985 q 647 939 661 964 q 611 892 632 914 q 564 857 590 871 q 506 843 538 843 q 459 851 481 843 q 417 867 438 858 q 375 884 396 876 q 332 892 354 892 q 286 874 304 892 q 257 832 268 856 l 156 899 q 178 944 164 919 q 214 991 193 969 q 261 1026 235 1013 q 319 1040 288 1040 q 366 1033 344 1040 q 408 1016 388 1025 q 449 999 429 1007 q 493 992 469 992 q 539 1010 521 992 q 568 1051 557 1028 l 669 985 z "},"ò":{"ha":843,"x_min":63,"x_max":781,"o":"m 781 367 q 756 209 781 281 q 683 87 731 138 q 570 8 636 36 q 422 -19 504 -19 q 276 8 342 -19 q 163 87 210 36 q 89 209 115 138 q 63 367 63 281 q 90 524 63 453 q 165 644 117 594 q 278 722 213 694 q 422 750 344 750 q 567 722 501 750 q 681 644 633 694 q 754 524 728 594 q 781 367 781 453 m 569 367 q 531 517 569 463 q 422 572 493 572 q 313 517 351 572 q 274 367 274 463 q 313 215 274 271 q 422 158 351 158 q 531 215 493 158 q 569 367 569 271 m 376 1110 l 574 885 l 479 800 l 250 993 l 376 1110 z "},"ó":{"ha":843,"x_min":63,"x_max":781,"o":"m 781 367 q 756 209 781 281 q 683 87 731 138 q 570 8 636 36 q 422 -19 504 -19 q 276 8 342 -19 q 163 87 210 36 q 89 209 115 138 q 63 367 63 281 q 90 524 63 453 q 165 644 117 594 q 278 722 213 694 q 422 750 344 750 q 567 722 501 750 q 681 644 633 694 q 754 524 728 594 q 781 367 781 453 m 569 367 q 531 517 569 463 q 422 572 493 572 q 313 517 351 572 q 274 367 274 463 q 313 215 274 271 q 422 158 351 158 q 531 215 493 158 q 569 367 569 271 m 593 993 l 364 800 l 269 885 l 467 1110 l 593 993 z "},"ô":{"ha":843,"x_min":63,"x_max":781,"o":"m 781 367 q 756 209 781 281 q 683 87 731 138 q 570 8 636 36 q 422 -19 504 -19 q 276 8 342 -19 q 163 87 210 36 q 89 209 115 138 q 63 367 63 281 q 90 524 63 453 q 165 644 117 594 q 278 722 213 694 q 422 750 344 750 q 567 722 501 750 q 681 644 633 694 q 754 524 728 594 q 781 367 781 453 m 569 367 q 531 517 569 463 q 422 572 493 572 q 313 517 351 572 q 274 367 274 463 q 313 215 274 271 q 422 158 351 158 q 531 215 493 158 q 569 367 569 271 m 636 896 l 560 804 l 421 911 l 282 804 l 203 896 l 421 1086 l 636 896 z "},"õ":{"ha":843,"x_min":63,"x_max":781,"o":"m 781 367 q 756 209 781 281 q 683 87 731 138 q 570 8 636 36 q 422 -19 504 -19 q 276 8 342 -19 q 163 87 210 36 q 89 209 115 138 q 63 367 63 281 q 90 524 63 453 q 165 644 117 594 q 278 722 213 694 q 422 750 344 750 q 567 722 501 750 q 681 644 633 694 q 754 524 728 594 q 781 367 781 453 m 569 367 q 531 517 569 463 q 422 572 493 572 q 313 517 351 572 q 274 367 274 463 q 313 215 274 271 q 422 158 351 158 q 531 215 493 158 q 569 367 569 271 m 678 985 q 655 939 669 964 q 619 892 640 914 q 572 857 599 871 q 514 843 546 843 q 467 851 489 843 q 425 867 446 858 q 383 884 404 876 q 340 892 363 892 q 294 874 313 892 q 265 832 276 856 l 164 899 q 187 944 172 919 q 222 991 201 969 q 269 1026 243 1013 q 328 1040 296 1040 q 374 1033 353 1040 q 417 1016 396 1025 q 458 999 438 1007 q 501 992 478 992 q 547 1010 529 992 q 576 1051 565 1028 l 678 985 z "},"ö":{"ha":843,"x_min":63,"x_max":781,"o":"m 781 367 q 756 209 781 281 q 683 87 731 138 q 570 8 636 36 q 422 -19 504 -19 q 276 8 342 -19 q 163 87 210 36 q 89 209 115 138 q 63 367 63 281 q 90 524 63 453 q 165 644 117 594 q 278 722 213 694 q 422 750 344 750 q 567 722 501 750 q 681 644 633 694 q 754 524 728 594 q 781 367 781 453 m 569 367 q 531 517 569 463 q 422 572 493 572 q 313 517 351 572 q 274 367 274 463 q 313 215 274 271 q 422 158 351 158 q 531 215 493 158 q 569 367 569 271 m 267 836 q 192 865 224 836 q 160 942 160 893 q 192 1019 160 990 q 267 1047 224 1047 q 342 1019 310 1047 q 374 942 374 990 q 342 865 374 893 q 267 836 310 836 m 576 836 q 501 865 533 836 q 469 942 469 893 q 501 1019 469 990 q 576 1047 533 1047 q 651 1019 619 1047 q 683 942 683 990 q 651 865 683 893 q 576 836 619 836 z "},"÷":{"ha":789,"x_min":68,"x_max":721,"o":"m 514 696 q 478 608 514 638 q 396 579 442 579 q 314 608 350 579 q 278 696 278 638 q 314 783 278 754 q 396 813 350 813 q 478 783 442 813 q 514 696 514 754 m 514 133 q 478 46 514 75 q 396 17 442 17 q 314 46 350 17 q 278 133 278 75 q 314 221 278 192 q 396 250 350 250 q 478 221 442 250 q 514 133 514 192 m 68 501 l 721 501 l 721 328 l 68 328 l 68 501 z "},"ø":{"ha":843,"x_min":63,"x_max":781,"o":"m 781 367 q 756 209 781 281 q 683 87 731 138 q 570 8 636 36 q 422 -19 504 -19 q 236 28 318 -19 l 174 -54 l 76 19 l 144 107 q 83 222 104 157 q 63 367 63 288 q 90 524 63 453 q 165 644 117 594 q 278 722 213 694 q 422 750 344 750 q 519 738 474 750 q 604 704 565 726 l 668 786 l 765 713 l 697 625 q 759 511 738 576 q 781 367 781 446 m 581 367 q 569 458 581 414 l 346 168 q 422 147 379 147 q 539 206 497 147 q 581 367 581 265 m 263 367 q 265 317 263 340 q 274 275 267 294 l 496 564 q 422 583 464 583 q 305 526 347 583 q 263 367 263 468 z "},"ù":{"ha":818,"x_min":90,"x_max":721,"o":"m 721 25 q 585 -3 668 10 q 410 -17 501 -17 q 255 8 317 -17 q 157 78 193 33 q 106 186 121 124 q 90 324 90 249 l 90 731 l 297 731 l 297 349 q 324 204 297 249 q 422 160 350 160 q 469 162 444 160 q 514 167 494 164 l 514 731 l 721 731 l 721 25 m 332 1110 l 529 885 l 435 800 l 206 993 l 332 1110 z "},"ú":{"ha":818,"x_min":90,"x_max":721,"o":"m 721 25 q 585 -3 668 10 q 410 -17 501 -17 q 255 8 317 -17 q 157 78 193 33 q 106 186 121 124 q 90 324 90 249 l 90 731 l 297 731 l 297 349 q 324 204 297 249 q 422 160 350 160 q 469 162 444 160 q 514 167 494 164 l 514 731 l 721 731 l 721 25 m 583 993 l 354 800 l 260 885 l 457 1110 l 583 993 z "},"û":{"ha":818,"x_min":90,"x_max":721,"o":"m 721 25 q 585 -3 668 10 q 410 -17 501 -17 q 255 8 317 -17 q 157 78 193 33 q 106 186 121 124 q 90 324 90 249 l 90 731 l 297 731 l 297 349 q 324 204 297 249 q 422 160 350 160 q 469 162 444 160 q 514 167 494 164 l 514 731 l 721 731 l 721 25 m 624 896 l 547 804 l 408 911 l 269 804 l 190 896 l 408 1086 l 624 896 z "},"ü":{"ha":818,"x_min":90,"x_max":721,"o":"m 721 25 q 585 -3 668 10 q 410 -17 501 -17 q 255 8 317 -17 q 157 78 193 33 q 106 186 121 124 q 90 324 90 249 l 90 731 l 297 731 l 297 349 q 324 204 297 249 q 422 160 350 160 q 469 162 444 160 q 514 167 494 164 l 514 731 l 721 731 l 721 25 m 251 836 q 176 865 208 836 q 144 942 144 893 q 176 1019 144 990 q 251 1047 208 1047 q 326 1019 294 1047 q 358 942 358 990 q 326 865 358 893 q 251 836 294 836 m 561 836 q 486 865 518 836 q 454 942 454 893 q 486 1019 454 990 q 561 1047 518 1047 q 636 1019 604 1047 q 668 942 668 990 q 636 865 668 893 q 561 836 604 836 z "},"ý":{"ha":760,"x_min":7,"x_max":746,"o":"m 746 731 q 615 335 683 519 q 467 -24 547 150 q 408 -130 438 -86 q 344 -202 379 -174 q 266 -244 310 -231 q 164 -257 222 -257 q 74 -248 115 -257 q 7 -228 33 -239 l 43 -62 q 100 -78 75 -74 q 153 -82 125 -82 q 238 -52 208 -82 q 289 31 268 -22 q 147 342 218 169 q 14 731 76 515 l 233 731 q 266 613 247 676 q 306 485 285 550 q 348 360 326 421 q 389 249 369 299 q 426 360 407 299 q 465 485 446 421 q 501 613 483 550 q 532 731 518 676 l 746 731 m 597 993 l 368 800 l 274 885 l 471 1110 l 597 993 z "},"þ":{"ha":839,"x_min":97,"x_max":776,"o":"m 776 365 q 756 211 776 281 q 694 92 735 142 q 594 14 654 42 q 457 -14 535 -14 q 376 -6 414 -14 q 304 18 339 3 l 304 -257 l 97 -257 l 97 1044 l 304 1078 l 304 733 q 357 744 328 740 q 408 747 386 747 q 561 720 493 747 q 677 644 629 693 q 751 524 725 594 q 776 365 776 453 m 565 360 q 523 513 565 456 q 401 571 481 571 q 347 567 374 571 q 304 558 319 564 l 304 190 q 355 169 324 178 q 418 161 386 161 q 565 360 565 161 z "},"ÿ":{"ha":760,"x_min":7,"x_max":746,"o":"m 746 731 q 615 335 683 519 q 467 -24 547 150 q 408 -130 438 -86 q 344 -202 379 -174 q 266 -244 310 -231 q 164 -257 222 -257 q 74 -248 115 -257 q 7 -228 33 -239 l 43 -62 q 100 -78 75 -74 q 153 -82 125 -82 q 238 -52 208 -82 q 289 31 268 -22 q 147 342 218 169 q 14 731 76 515 l 233 731 q 266 613 247 676 q 306 485 285 550 q 348 360 326 421 q 389 249 369 299 q 426 360 407 299 q 465 485 446 421 q 501 613 483 550 q 532 731 518 676 l 746 731 m 229 836 q 154 865 186 836 q 122 942 122 893 q 154 1019 122 990 q 229 1047 186 1047 q 304 1019 272 1047 q 336 942 336 990 q 304 865 336 893 q 229 836 272 836 m 539 836 q 464 865 496 836 q 432 942 432 893 q 464 1019 432 990 q 539 1047 496 1047 q 614 1019 582 1047 q 646 942 646 990 q 614 865 646 893 q 539 836 582 836 z "},"Ā":{"ha":1001,"x_min":14,"x_max":988,"o":"m 756 0 q 722 103 740 50 q 685 208 703 156 l 310 208 q 273 103 292 156 q 239 0 254 50 l 14 0 q 117 288 68 156 q 212 536 165 419 q 303 758 258 653 q 397 963 349 863 l 604 963 q 697 758 651 863 q 790 536 743 653 q 885 288 836 419 q 988 0 933 156 l 756 0 m 496 744 q 475 688 489 724 q 443 604 461 651 q 403 500 425 557 q 360 381 382 443 l 633 381 q 590 500 611 443 q 551 604 569 557 q 518 688 532 651 q 496 744 504 724 m 276 1219 l 724 1219 l 724 1078 l 276 1078 l 276 1219 z "},"ā":{"ha":768,"x_min":49,"x_max":678,"o":"m 376 144 q 435 146 407 144 q 479 150 463 147 l 479 307 q 442 313 467 310 q 396 315 417 315 q 341 312 367 315 q 296 299 315 308 q 265 272 276 289 q 254 231 254 256 q 287 163 254 182 q 376 144 319 144 m 360 750 q 513 729 451 750 q 610 669 574 708 q 663 575 647 631 q 678 451 678 519 l 678 21 q 554 -2 633 11 q 363 -15 475 -15 q 234 -3 292 -15 q 135 38 176 10 q 71 113 93 67 q 49 225 49 158 q 74 333 49 289 q 143 404 100 378 q 242 442 186 431 q 357 454 297 454 q 428 451 397 454 q 479 442 460 447 l 479 461 q 447 546 479 514 q 336 578 415 578 q 232 570 283 578 q 143 549 181 563 l 117 715 q 162 727 135 721 q 221 738 189 733 q 288 747 253 743 q 360 750 324 750 m 154 1007 l 601 1007 l 601 865 l 154 865 l 154 1007 z "},"Ă":{"ha":1001,"x_min":14,"x_max":988,"o":"m 756 0 q 722 103 740 50 q 685 208 703 156 l 310 208 q 273 103 292 156 q 239 0 254 50 l 14 0 q 117 288 68 156 q 212 536 165 419 q 303 758 258 653 q 397 963 349 863 l 604 963 q 697 758 651 863 q 790 536 743 653 q 885 288 836 419 q 988 0 933 156 l 756 0 m 496 744 q 475 688 489 724 q 443 604 461 651 q 403 500 425 557 q 360 381 382 443 l 633 381 q 590 500 611 443 q 551 604 569 557 q 518 688 532 651 q 496 744 504 724 m 514 1043 q 424 1058 465 1043 q 353 1101 383 1074 q 306 1170 324 1129 q 289 1263 289 1211 l 289 1274 l 429 1274 q 457 1195 433 1215 q 514 1175 481 1175 q 571 1195 547 1175 q 599 1274 594 1215 l 739 1274 l 739 1263 q 722 1170 739 1211 q 674 1101 704 1129 q 603 1058 644 1074 q 514 1043 561 1043 z "},"ă":{"ha":768,"x_min":49,"x_max":678,"o":"m 376 144 q 435 146 407 144 q 479 150 463 147 l 479 307 q 442 313 467 310 q 396 315 417 315 q 341 312 367 315 q 296 299 315 308 q 265 272 276 289 q 254 231 254 256 q 287 163 254 182 q 376 144 319 144 m 360 750 q 513 729 451 750 q 610 669 574 708 q 663 575 647 631 q 678 451 678 519 l 678 21 q 554 -2 633 11 q 363 -15 475 -15 q 234 -3 292 -15 q 135 38 176 10 q 71 113 93 67 q 49 225 49 158 q 74 333 49 289 q 143 404 100 378 q 242 442 186 431 q 357 454 297 454 q 428 451 397 454 q 479 442 460 447 l 479 461 q 447 546 479 514 q 336 578 415 578 q 232 570 283 578 q 143 549 181 563 l 117 715 q 162 727 135 721 q 221 738 189 733 q 288 747 253 743 q 360 750 324 750 m 385 831 q 295 846 336 831 q 224 889 254 861 q 177 958 194 917 q 160 1050 160 999 l 160 1061 l 300 1061 q 328 983 304 1003 q 385 963 351 963 q 442 983 418 963 q 469 1061 465 1003 l 610 1061 l 610 1050 q 592 958 610 999 q 545 889 575 917 q 474 846 515 861 q 385 831 432 831 z "},"Ą":{"ha":1001,"x_min":14,"x_max":1015,"o":"m 878 -307 q 744 -272 785 -307 q 704 -181 704 -237 q 717 -124 704 -151 q 750 -69 729 -96 q 785 -31 767 -49 q 822 0 804 -14 l 756 0 q 722 103 740 50 q 685 208 703 156 l 310 208 q 273 103 292 156 q 239 0 254 50 l 14 0 q 117 288 68 156 q 212 536 165 419 q 303 758 258 653 q 397 963 349 863 l 604 963 q 697 760 651 864 q 788 541 742 657 q 883 292 835 425 q 988 0 932 158 q 956 -26 972 -11 q 925 -57 940 -42 q 897 -91 907 -75 q 886 -122 886 -107 q 895 -147 886 -137 q 928 -157 904 -157 q 958 -155 940 -157 q 999 -146 975 -153 l 1015 -285 q 949 -301 988 -296 q 878 -307 910 -307 m 496 744 q 475 688 489 724 q 443 604 461 651 q 403 500 425 557 q 360 381 382 443 l 633 381 q 590 500 611 443 q 551 604 569 557 q 518 688 532 651 q 496 744 504 724 z "},"ą":{"ha":768,"x_min":49,"x_max":681,"o":"m 376 144 q 435 146 407 144 q 479 150 463 147 l 479 307 q 442 313 467 310 q 396 315 417 315 q 341 312 367 315 q 296 299 315 308 q 265 272 276 289 q 254 231 254 256 q 287 163 254 182 q 376 144 319 144 m 360 750 q 513 729 451 750 q 610 669 574 708 q 663 575 647 631 q 678 451 678 519 l 678 21 q 639 -12 664 10 q 590 -57 614 -33 q 562 -91 572 -75 q 551 -122 551 -107 q 560 -147 551 -137 q 593 -157 569 -157 q 623 -155 606 -157 q 664 -146 640 -153 l 681 -285 q 614 -301 653 -296 q 543 -307 575 -307 q 410 -272 450 -307 q 369 -181 369 -237 q 382 -124 369 -151 q 415 -69 394 -96 q 472 -11 440 -37 q 419 -15 449 -14 q 363 -15 390 -15 q 234 -3 292 -15 q 135 38 176 10 q 71 113 93 67 q 49 225 49 158 q 74 333 49 289 q 143 404 100 378 q 242 442 186 431 q 357 454 297 454 q 428 451 397 454 q 479 442 460 447 l 479 461 q 447 546 479 514 q 336 578 415 578 q 232 570 283 578 q 143 549 181 563 l 117 715 q 162 727 135 721 q 221 738 189 733 q 288 747 253 743 q 360 750 324 750 z "},"Ć":{"ha":900,"x_min":69,"x_max":872,"o":"m 550 -19 q 192 111 315 -19 q 69 482 69 242 q 107 695 69 601 q 210 853 144 789 q 365 951 275 918 q 561 985 456 985 q 672 976 622 985 q 760 955 722 967 q 822 931 797 943 q 858 911 847 918 l 796 736 q 692 776 751 760 q 558 793 633 793 q 460 776 508 793 q 376 723 413 760 q 317 628 339 686 q 294 486 294 569 q 309 362 294 419 q 356 263 324 304 q 442 197 389 221 q 569 172 494 172 q 654 178 617 172 q 721 191 692 183 q 772 208 750 199 q 813 226 794 218 l 872 53 q 743 3 826 25 q 550 -19 660 -19 m 721 1215 l 492 1022 l 397 1107 l 594 1332 l 721 1215 z "},"ć":{"ha":694,"x_min":63,"x_max":653,"o":"m 63 365 q 88 515 63 444 q 163 637 114 585 q 281 719 211 689 q 439 750 350 750 q 546 740 497 750 q 640 710 594 729 l 597 544 q 533 564 568 556 q 456 572 499 572 q 319 515 364 572 q 274 365 274 458 q 316 213 274 267 q 464 158 358 158 q 544 165 501 158 q 624 188 588 172 l 653 18 q 563 -8 617 3 q 443 -19 508 -19 q 271 10 343 -19 q 152 92 199 40 q 84 213 106 143 q 63 365 63 283 m 601 993 l 372 800 l 278 885 l 475 1110 l 601 993 z "},"Ĉ":{"ha":900,"x_min":69,"x_max":872,"o":"m 550 -19 q 192 111 315 -19 q 69 482 69 242 q 107 695 69 601 q 210 853 144 789 q 365 951 275 918 q 561 985 456 985 q 672 976 622 985 q 760 955 722 967 q 822 931 797 943 q 858 911 847 918 l 796 736 q 692 776 751 760 q 558 793 633 793 q 460 776 508 793 q 376 723 413 760 q 317 628 339 686 q 294 486 294 569 q 309 362 294 419 q 356 263 324 304 q 442 197 389 221 q 569 172 494 172 q 654 178 617 172 q 721 191 692 183 q 772 208 750 199 q 813 226 794 218 l 872 53 q 743 3 826 25 q 550 -19 660 -19 m 763 1126 l 686 1035 l 547 1142 l 408 1035 l 329 1126 l 547 1317 l 763 1126 z "},"ĉ":{"ha":694,"x_min":63,"x_max":653,"o":"m 63 365 q 88 515 63 444 q 163 637 114 585 q 281 719 211 689 q 439 750 350 750 q 546 740 497 750 q 640 710 594 729 l 597 544 q 533 564 568 556 q 456 572 499 572 q 319 515 364 572 q 274 365 274 458 q 316 213 274 267 q 464 158 358 158 q 544 165 501 158 q 624 188 588 172 l 653 18 q 563 -8 617 3 q 443 -19 508 -19 q 271 10 343 -19 q 152 92 199 40 q 84 213 106 143 q 63 365 63 283 m 631 896 l 554 804 l 415 911 l 276 804 l 197 896 l 415 1086 l 631 896 z "},"Ċ":{"ha":900,"x_min":69,"x_max":872,"o":"m 550 -19 q 192 111 315 -19 q 69 482 69 242 q 107 695 69 601 q 210 853 144 789 q 365 951 275 918 q 561 985 456 985 q 672 976 622 985 q 760 955 722 967 q 822 931 797 943 q 858 911 847 918 l 796 736 q 692 776 751 760 q 558 793 633 793 q 460 776 508 793 q 376 723 413 760 q 317 628 339 686 q 294 486 294 569 q 309 362 294 419 q 356 263 324 304 q 442 197 389 221 q 569 172 494 172 q 654 178 617 172 q 721 191 692 183 q 772 208 750 199 q 813 226 794 218 l 872 53 q 743 3 826 25 q 550 -19 660 -19 m 544 1056 q 467 1085 500 1056 q 435 1164 435 1114 q 467 1243 435 1214 q 544 1272 500 1272 q 622 1243 589 1272 q 654 1164 654 1214 q 622 1085 654 1114 q 544 1056 589 1056 z "},"ċ":{"ha":694,"x_min":63,"x_max":653,"o":"m 63 365 q 88 515 63 444 q 163 637 114 585 q 281 719 211 689 q 439 750 350 750 q 546 740 497 750 q 640 710 594 729 l 597 544 q 533 564 568 556 q 456 572 499 572 q 319 515 364 572 q 274 365 274 458 q 316 213 274 267 q 464 158 358 158 q 544 165 501 158 q 624 188 588 172 l 653 18 q 563 -8 617 3 q 443 -19 508 -19 q 271 10 343 -19 q 152 92 199 40 q 84 213 106 143 q 63 365 63 283 m 417 833 q 340 863 372 833 q 307 942 307 892 q 340 1021 307 992 q 417 1050 372 1050 q 494 1021 461 1050 q 526 942 526 992 q 494 863 526 892 q 417 833 461 833 z "},"Č":{"ha":900,"x_min":69,"x_max":872,"o":"m 550 -19 q 192 111 315 -19 q 69 482 69 242 q 107 695 69 601 q 210 853 144 789 q 365 951 275 918 q 561 985 456 985 q 672 976 622 985 q 760 955 722 967 q 822 931 797 943 q 858 911 847 918 l 796 736 q 692 776 751 760 q 558 793 633 793 q 460 776 508 793 q 376 723 413 760 q 317 628 339 686 q 294 486 294 569 q 309 362 294 419 q 356 263 324 304 q 442 197 389 221 q 569 172 494 172 q 654 178 617 172 q 721 191 692 183 q 772 208 750 199 q 813 226 794 218 l 872 53 q 743 3 826 25 q 550 -19 660 -19 m 328 1228 l 404 1319 l 543 1213 l 682 1319 l 761 1228 l 543 1038 l 328 1228 z "},"č":{"ha":694,"x_min":63,"x_max":653,"o":"m 63 365 q 88 515 63 444 q 163 637 114 585 q 281 719 211 689 q 439 750 350 750 q 546 740 497 750 q 640 710 594 729 l 597 544 q 533 564 568 556 q 456 572 499 572 q 319 515 364 572 q 274 365 274 458 q 316 213 274 267 q 464 158 358 158 q 544 165 501 158 q 624 188 588 172 l 653 18 q 563 -8 617 3 q 443 -19 508 -19 q 271 10 343 -19 q 152 92 199 40 q 84 213 106 143 q 63 365 63 283 m 201 1004 l 278 1096 l 417 989 l 556 1096 l 635 1004 l 417 814 l 201 1004 z "},"Ď":{"ha":1024,"x_min":111,"x_max":954,"o":"m 328 176 q 363 174 343 175 q 411 174 383 174 q 652 256 574 174 q 731 482 731 338 q 656 711 731 633 q 418 789 581 789 q 372 788 396 789 q 328 785 349 788 l 328 176 m 954 482 q 915 264 954 357 q 805 110 876 171 q 631 18 733 49 q 400 -12 528 -12 q 264 -8 342 -12 q 111 13 186 -3 l 111 950 q 267 969 186 964 q 407 974 349 974 q 631 946 531 974 q 804 858 732 918 q 915 706 876 799 q 954 482 954 613 m 275 1228 l 351 1319 l 490 1213 l 629 1319 l 708 1228 l 490 1038 l 275 1228 z "},"ď":{"ha":951,"x_min":63,"x_max":1007,"o":"m 274 371 q 317 217 274 275 q 444 158 360 158 q 496 160 472 158 q 535 165 519 163 l 535 542 q 484 563 515 554 q 421 571 453 571 q 274 371 274 571 m 742 24 q 678 8 714 15 q 602 -6 642 0 q 522 -15 563 -11 q 443 -18 481 -18 q 282 8 353 -18 q 163 84 211 35 q 88 203 114 133 q 63 361 63 274 q 85 522 63 450 q 149 643 107 593 q 251 719 190 693 q 389 746 311 746 q 466 738 432 746 q 535 714 500 729 l 535 1044 l 742 1078 l 742 24 m 1007 1078 l 961 739 l 838 739 l 838 1078 l 1007 1078 z "},"Đ":{"ha":1039,"x_min":14,"x_max":969,"o":"m 343 176 q 378 174 358 175 q 426 174 399 174 q 667 256 589 174 q 746 482 746 338 q 671 711 746 633 q 433 789 596 789 q 388 788 411 789 q 343 785 364 788 l 343 579 l 518 579 l 518 419 l 343 419 l 343 176 m 969 482 q 931 264 969 357 q 820 110 892 171 q 646 18 749 49 q 415 -12 543 -12 q 279 -8 357 -12 q 126 13 201 -3 l 126 419 l 14 419 l 14 579 l 126 579 l 126 950 q 283 969 201 964 q 422 974 364 974 q 647 946 546 974 q 819 858 747 918 q 931 706 892 799 q 969 482 969 613 z "},"đ":{"ha":842,"x_min":63,"x_max":828,"o":"m 742 957 l 828 957 l 828 828 l 742 828 l 742 24 q 678 8 714 15 q 602 -6 642 0 q 522 -15 563 -11 q 443 -18 481 -18 q 282 8 353 -18 q 163 83 211 35 q 88 200 114 132 q 63 351 63 268 q 85 505 63 436 q 149 623 107 574 q 251 699 190 672 q 389 726 311 726 q 466 718 432 726 q 535 694 500 710 l 535 828 l 336 828 l 336 957 l 535 957 l 535 1044 l 742 1078 l 742 957 m 274 361 q 317 216 274 274 q 444 158 361 158 q 535 165 500 158 l 535 522 q 484 543 515 535 q 421 551 453 551 q 310 502 346 551 q 274 361 274 453 z "},"Ē":{"ha":842,"x_min":111,"x_max":793,"o":"m 111 0 l 111 963 l 761 963 l 761 781 l 328 781 l 328 592 l 713 592 l 713 414 l 328 414 l 328 182 l 793 182 l 793 0 l 111 0 m 215 1219 l 663 1219 l 663 1078 l 215 1078 l 215 1219 z "},"ē":{"ha":811,"x_min":63,"x_max":749,"o":"m 63 360 q 92 530 63 457 q 171 651 122 603 q 283 725 219 700 q 413 750 346 750 q 658 655 568 750 q 749 375 749 560 q 747 335 749 357 q 744 297 746 314 l 275 297 q 335 196 282 233 q 476 158 388 158 q 588 169 533 158 q 678 194 643 179 l 706 26 q 661 10 689 18 q 599 -5 633 1 q 526 -15 565 -11 q 449 -19 488 -19 q 277 10 350 -19 q 156 90 204 39 q 85 210 108 140 q 63 360 63 279 m 549 439 q 540 490 547 465 q 516 535 532 515 q 476 567 500 554 q 415 579 451 579 q 356 567 381 579 q 314 536 331 556 q 288 491 297 517 q 275 439 279 465 l 549 439 m 182 1007 l 629 1007 l 629 865 l 182 865 l 182 1007 z "},"Ĕ":{"ha":842,"x_min":111,"x_max":793,"o":"m 111 0 l 111 963 l 761 963 l 761 781 l 328 781 l 328 592 l 713 592 l 713 414 l 328 414 l 328 182 l 793 182 l 793 0 l 111 0 m 444 1043 q 355 1058 396 1043 q 284 1101 314 1074 q 237 1170 254 1129 q 219 1263 219 1211 l 219 1274 l 360 1274 q 388 1195 364 1215 q 444 1175 411 1175 q 501 1195 478 1175 q 529 1274 525 1215 l 669 1274 l 669 1263 q 652 1170 669 1211 q 605 1101 635 1129 q 533 1058 575 1074 q 444 1043 492 1043 z "},"ĕ":{"ha":811,"x_min":63,"x_max":749,"o":"m 63 360 q 92 530 63 457 q 171 651 122 603 q 283 725 219 700 q 413 750 346 750 q 658 655 568 750 q 749 375 749 560 q 747 335 749 357 q 744 297 746 314 l 275 297 q 335 196 282 233 q 476 158 388 158 q 588 169 533 158 q 678 194 643 179 l 706 26 q 661 10 689 18 q 599 -5 633 1 q 526 -15 565 -11 q 449 -19 488 -19 q 277 10 350 -19 q 156 90 204 39 q 85 210 108 140 q 63 360 63 279 m 549 439 q 540 490 547 465 q 516 535 532 515 q 476 567 500 554 q 415 579 451 579 q 356 567 381 579 q 314 536 331 556 q 288 491 297 517 q 275 439 279 465 l 549 439 m 406 831 q 316 846 357 831 q 245 889 275 861 q 198 958 215 917 q 181 1050 181 999 l 181 1061 l 321 1061 q 349 983 325 1003 q 406 963 372 963 q 463 983 439 963 q 490 1061 486 1003 l 631 1061 l 631 1050 q 613 958 631 999 q 566 889 596 917 q 494 846 536 861 q 406 831 453 831 z "},"Ė":{"ha":842,"x_min":111,"x_max":793,"o":"m 111 0 l 111 963 l 761 963 l 761 781 l 328 781 l 328 592 l 713 592 l 713 414 l 328 414 l 328 182 l 793 182 l 793 0 l 111 0 m 449 1056 q 372 1085 404 1056 q 339 1164 339 1114 q 372 1243 339 1214 q 449 1272 404 1272 q 526 1243 493 1272 q 558 1164 558 1214 q 526 1085 558 1114 q 449 1056 493 1056 z "},"ė":{"ha":811,"x_min":63,"x_max":749,"o":"m 63 360 q 92 530 63 457 q 171 651 122 603 q 283 725 219 700 q 413 750 346 750 q 658 655 568 750 q 749 375 749 560 q 747 335 749 357 q 744 297 746 314 l 275 297 q 335 196 282 233 q 476 158 388 158 q 588 169 533 158 q 678 194 643 179 l 706 26 q 661 10 689 18 q 599 -5 633 1 q 526 -15 565 -11 q 449 -19 488 -19 q 277 10 350 -19 q 156 90 204 39 q 85 210 108 140 q 63 360 63 279 m 549 439 q 540 490 547 465 q 516 535 532 515 q 476 567 500 554 q 415 579 451 579 q 356 567 381 579 q 314 536 331 556 q 288 491 297 517 q 275 439 279 465 l 549 439 m 404 833 q 327 863 360 833 q 294 942 294 892 q 327 1021 294 992 q 404 1050 360 1050 q 481 1021 449 1050 q 514 942 514 992 q 481 863 514 892 q 404 833 449 833 z "},"Ę":{"ha":842,"x_min":111,"x_max":821,"o":"m 683 -307 q 550 -272 590 -307 q 510 -181 510 -237 q 522 -124 510 -151 q 556 -69 535 -96 q 591 -31 572 -49 q 628 0 610 -14 l 111 0 l 111 963 l 761 963 l 761 781 l 328 781 l 328 592 l 713 592 l 713 414 l 328 414 l 328 182 l 793 182 l 793 0 q 763 -26 779 -11 q 731 -57 746 -42 q 702 -91 713 -75 q 692 -122 692 -107 q 701 -147 692 -137 q 733 -157 710 -157 q 763 -155 746 -157 q 804 -146 781 -153 l 821 -285 q 754 -301 793 -296 q 683 -307 715 -307 z "},"ę":{"ha":811,"x_min":63,"x_max":749,"o":"m 558 -307 q 425 -272 465 -307 q 385 -181 385 -237 q 397 -124 385 -151 q 431 -69 410 -96 q 454 -42 442 -54 q 479 -19 467 -31 l 449 -19 q 277 10 350 -19 q 156 90 204 39 q 85 210 108 140 q 63 360 63 279 q 92 530 63 457 q 171 651 122 603 q 283 725 219 700 q 413 750 346 750 q 658 655 568 750 q 749 375 749 560 q 747 335 749 357 q 744 297 746 314 l 275 297 q 335 196 282 233 q 476 158 388 158 q 588 169 533 158 q 678 194 643 179 l 706 26 q 656 -10 685 13 q 606 -57 628 -33 q 577 -91 588 -75 q 567 -122 567 -107 q 576 -147 567 -137 q 608 -157 585 -157 q 638 -155 621 -157 q 679 -146 656 -153 l 696 -285 q 629 -301 668 -296 q 558 -307 590 -307 m 549 439 q 540 490 547 465 q 516 535 532 515 q 476 567 500 554 q 415 579 451 579 q 356 567 381 579 q 314 536 331 556 q 288 491 297 517 q 275 439 279 465 l 549 439 z "},"Ě":{"ha":842,"x_min":111,"x_max":793,"o":"m 111 0 l 111 963 l 761 963 l 761 781 l 328 781 l 328 592 l 713 592 l 713 414 l 328 414 l 328 182 l 793 182 l 793 0 l 111 0 m 225 1228 l 301 1319 l 440 1213 l 579 1319 l 658 1228 l 440 1038 l 225 1228 z "},"ě":{"ha":811,"x_min":63,"x_max":749,"o":"m 63 360 q 92 530 63 457 q 171 651 122 603 q 283 725 219 700 q 413 750 346 750 q 658 655 568 750 q 749 375 749 560 q 747 335 749 357 q 744 297 746 314 l 275 297 q 335 196 282 233 q 476 158 388 158 q 588 169 533 158 q 678 194 643 179 l 706 26 q 661 10 689 18 q 599 -5 633 1 q 526 -15 565 -11 q 449 -19 488 -19 q 277 10 350 -19 q 156 90 204 39 q 85 210 108 140 q 63 360 63 279 m 549 439 q 540 490 547 465 q 516 535 532 515 q 476 567 500 554 q 415 579 451 579 q 356 567 381 579 q 314 536 331 556 q 288 491 297 517 q 275 439 279 465 l 549 439 m 199 1004 l 275 1096 l 414 989 l 553 1096 l 632 1004 l 414 814 l 199 1004 z "},"Ĝ":{"ha":975,"x_min":69,"x_max":885,"o":"m 581 796 q 362 712 429 796 q 294 482 294 628 q 311 353 294 411 q 361 254 328 296 q 444 190 394 213 q 561 167 494 167 q 623 168 597 167 q 668 174 649 169 l 668 508 l 885 508 l 885 32 q 760 -1 846 17 q 547 -18 674 -18 q 351 15 439 -18 q 200 113 263 49 q 103 269 138 176 q 69 482 69 363 q 107 696 69 603 q 210 853 144 789 q 363 951 275 918 q 551 985 451 985 q 674 976 619 985 q 769 955 729 967 q 834 931 808 943 q 871 911 860 918 l 808 738 q 706 778 764 761 q 581 796 649 796 m 761 1126 l 685 1035 l 546 1142 l 407 1035 l 328 1126 l 546 1317 l 761 1126 z "},"ĝ":{"ha":825,"x_min":63,"x_max":728,"o":"m 274 389 q 414 215 274 215 q 474 224 446 215 q 521 243 501 232 l 521 574 q 485 578 506 576 q 436 581 464 581 q 314 526 354 581 q 274 389 274 472 m 728 92 q 637 -174 728 -87 q 356 -261 546 -261 q 222 -249 289 -261 q 99 -218 156 -237 l 135 -44 q 237 -75 183 -64 q 358 -86 290 -86 q 484 -47 447 -86 q 521 53 521 -8 l 521 79 q 452 56 488 64 q 375 49 417 49 q 143 138 224 49 q 63 389 63 228 q 88 535 63 469 q 160 649 113 601 q 278 722 208 696 q 435 747 347 747 q 512 744 472 747 q 590 735 551 740 q 665 722 629 729 q 728 706 700 714 l 728 92 m 656 896 l 579 804 l 440 911 l 301 804 l 222 896 l 440 1086 l 656 896 z "},"Ğ":{"ha":975,"x_min":69,"x_max":885,"o":"m 581 796 q 362 712 429 796 q 294 482 294 628 q 311 353 294 411 q 361 254 328 296 q 444 190 394 213 q 561 167 494 167 q 623 168 597 167 q 668 174 649 169 l 668 508 l 885 508 l 885 32 q 760 -1 846 17 q 547 -18 674 -18 q 351 15 439 -18 q 200 113 263 49 q 103 269 138 176 q 69 482 69 363 q 107 696 69 603 q 210 853 144 789 q 363 951 275 918 q 551 985 451 985 q 674 976 619 985 q 769 955 729 967 q 834 931 808 943 q 871 911 860 918 l 808 738 q 706 778 764 761 q 581 796 649 796 m 540 1043 q 451 1058 492 1043 q 380 1101 410 1074 q 333 1170 350 1129 q 315 1263 315 1211 l 315 1274 l 456 1274 q 483 1195 460 1215 q 540 1175 507 1175 q 597 1195 574 1175 q 625 1274 621 1215 l 765 1274 l 765 1263 q 748 1170 765 1211 q 701 1101 731 1129 q 629 1058 671 1074 q 540 1043 588 1043 z "},"ğ":{"ha":825,"x_min":63,"x_max":728,"o":"m 274 389 q 414 215 274 215 q 474 224 446 215 q 521 243 501 232 l 521 574 q 485 578 506 576 q 436 581 464 581 q 314 526 354 581 q 274 389 274 472 m 728 92 q 637 -174 728 -87 q 356 -261 546 -261 q 222 -249 289 -261 q 99 -218 156 -237 l 135 -44 q 237 -75 183 -64 q 358 -86 290 -86 q 484 -47 447 -86 q 521 53 521 -8 l 521 79 q 452 56 488 64 q 375 49 417 49 q 143 138 224 49 q 63 389 63 228 q 88 535 63 469 q 160 649 113 601 q 278 722 208 696 q 435 747 347 747 q 512 744 472 747 q 590 735 551 740 q 665 722 629 729 q 728 706 700 714 l 728 92 m 440 831 q 351 846 392 831 q 280 889 310 861 q 233 958 250 917 q 215 1050 215 999 l 215 1061 l 356 1061 q 383 983 360 1003 q 440 963 407 963 q 497 983 474 963 q 525 1061 521 1003 l 665 1061 l 665 1050 q 648 958 665 999 q 601 889 631 917 q 529 846 571 861 q 440 831 488 831 z "},"Ġ":{"ha":975,"x_min":69,"x_max":885,"o":"m 581 796 q 362 712 429 796 q 294 482 294 628 q 311 353 294 411 q 361 254 328 296 q 444 190 394 213 q 561 167 494 167 q 623 168 597 167 q 668 174 649 169 l 668 508 l 885 508 l 885 32 q 760 -1 846 17 q 547 -18 674 -18 q 351 15 439 -18 q 200 113 263 49 q 103 269 138 176 q 69 482 69 363 q 107 696 69 603 q 210 853 144 789 q 363 951 275 918 q 551 985 451 985 q 674 976 619 985 q 769 955 729 967 q 834 931 808 943 q 871 911 860 918 l 808 738 q 706 778 764 761 q 581 796 649 796 m 544 1056 q 467 1085 500 1056 q 435 1164 435 1114 q 467 1243 435 1214 q 544 1272 500 1272 q 622 1243 589 1272 q 654 1164 654 1214 q 622 1085 654 1114 q 544 1056 589 1056 z "},"ġ":{"ha":825,"x_min":63,"x_max":728,"o":"m 274 389 q 414 215 274 215 q 474 224 446 215 q 521 243 501 232 l 521 574 q 485 578 506 576 q 436 581 464 581 q 314 526 354 581 q 274 389 274 472 m 728 92 q 637 -174 728 -87 q 356 -261 546 -261 q 222 -249 289 -261 q 99 -218 156 -237 l 135 -44 q 237 -75 183 -64 q 358 -86 290 -86 q 484 -47 447 -86 q 521 53 521 -8 l 521 79 q 452 56 488 64 q 375 49 417 49 q 143 138 224 49 q 63 389 63 228 q 88 535 63 469 q 160 649 113 601 q 278 722 208 696 q 435 747 347 747 q 512 744 472 747 q 590 735 551 740 q 665 722 629 729 q 728 706 700 714 l 728 92 m 425 833 q 348 863 381 833 q 315 942 315 892 q 348 1021 315 992 q 425 1050 381 1050 q 502 1021 469 1050 q 535 942 535 992 q 502 863 535 892 q 425 833 469 833 z "},"Ģ":{"ha":975,"x_min":69,"x_max":885,"o":"m 581 796 q 362 712 429 796 q 294 482 294 628 q 311 353 294 411 q 361 254 328 296 q 444 190 394 213 q 561 167 494 167 q 623 168 597 167 q 668 174 649 169 l 668 508 l 885 508 l 885 32 q 760 -1 846 17 q 547 -18 674 -18 q 351 15 439 -18 q 200 113 263 49 q 103 269 138 176 q 69 482 69 363 q 107 696 69 603 q 210 853 144 789 q 363 951 275 918 q 551 985 451 985 q 674 976 619 985 q 769 955 729 967 q 834 931 808 943 q 871 911 860 918 l 808 738 q 706 778 764 761 q 581 796 649 796 m 482 -72 l 646 -72 q 649 -103 649 -87 q 650 -124 650 -118 q 633 -211 650 -176 q 589 -267 617 -246 q 526 -297 561 -287 q 453 -306 490 -306 q 411 -303 432 -306 q 382 -297 390 -300 l 382 -181 q 422 -178 403 -181 q 453 -166 440 -175 q 474 -140 467 -157 q 482 -92 482 -122 l 482 -72 z "},"ģ":{"ha":825,"x_min":63,"x_max":728,"o":"m 274 389 q 414 215 274 215 q 474 224 446 215 q 521 243 501 232 l 521 574 q 485 578 506 576 q 436 581 464 581 q 314 526 354 581 q 274 389 274 472 m 728 92 q 637 -174 728 -87 q 356 -261 546 -261 q 222 -249 289 -261 q 99 -218 156 -237 l 135 -44 q 237 -75 183 -64 q 358 -86 290 -86 q 484 -47 447 -86 q 521 53 521 -8 l 521 79 q 452 56 488 64 q 375 49 417 49 q 143 138 224 49 q 63 389 63 228 q 88 535 63 469 q 160 649 113 601 q 278 722 208 696 q 435 747 347 747 q 512 744 472 747 q 590 735 551 740 q 665 722 629 729 q 728 706 700 714 l 728 92 m 510 832 l 340 832 q 381 1012 329 947 q 528 1101 432 1076 l 596 1007 q 531 947 553 981 q 510 851 510 913 l 510 832 z "},"Ĥ":{"ha":1019,"x_min":111,"x_max":908,"o":"m 692 963 l 908 963 l 908 0 l 692 0 l 692 408 l 328 408 l 328 0 l 111 0 l 111 963 l 328 963 l 328 594 l 692 594 l 692 963 m 725 1126 l 649 1035 l 510 1142 l 371 1035 l 292 1126 l 510 1317 l 725 1126 z "},"ĥ":{"ha":818,"x_min":94,"x_max":728,"o":"m 97 0 l 97 1044 l 304 1078 l 304 728 q 358 741 325 735 q 421 747 390 747 q 569 723 510 747 q 663 654 628 699 q 713 549 699 610 q 728 413 728 488 l 728 0 l 521 0 l 521 388 q 495 529 521 488 q 400 571 469 571 q 348 566 372 571 q 304 556 324 561 l 304 0 l 97 0 m 503 1188 l 443 1100 l 300 1183 l 154 1100 l 94 1188 l 300 1336 l 503 1188 z "},"Ħ":{"ha":1050,"x_min":14,"x_max":1036,"o":"m 14 850 l 126 850 l 126 963 l 343 963 l 343 850 l 707 850 l 707 963 l 924 963 l 924 850 l 1036 850 l 1036 697 l 924 697 l 924 0 l 707 0 l 707 394 l 343 394 l 343 0 l 126 0 l 126 697 l 14 697 l 14 850 m 707 697 l 343 697 l 343 581 l 707 581 l 707 697 z "},"ħ":{"ha":832,"x_min":25,"x_max":742,"o":"m 25 957 l 111 957 l 111 1044 l 318 1078 l 318 957 l 517 957 l 517 828 l 318 828 l 318 707 q 372 720 339 714 q 435 726 404 726 q 583 702 524 726 q 677 633 642 678 q 727 528 713 589 q 742 392 742 467 l 742 0 l 535 0 l 535 367 q 509 508 535 467 q 414 550 483 550 q 362 545 386 550 q 318 535 338 540 l 318 0 l 111 0 l 111 828 l 25 828 l 25 957 z "},"Ĩ":{"ha":439,"x_min":-35,"x_max":479,"o":"m 111 963 l 328 963 l 328 0 l 111 0 l 111 963 m 479 1211 q 456 1165 471 1190 q 421 1119 442 1140 q 374 1083 400 1097 q 315 1069 347 1069 q 269 1077 290 1069 q 226 1094 247 1085 q 185 1110 206 1103 q 142 1118 164 1118 q 96 1100 114 1118 q 67 1058 78 1082 l -35 1125 q -12 1171 -26 1146 q 24 1217 3 1196 q 71 1253 44 1239 q 129 1267 97 1267 q 176 1259 154 1267 q 218 1242 197 1251 q 259 1226 239 1233 q 303 1218 279 1218 q 349 1236 331 1218 q 378 1278 367 1254 l 479 1211 z "},"ĩ":{"ha":401,"x_min":-54,"x_max":460,"o":"m 304 0 l 97 0 l 97 731 l 304 731 l 304 0 m 460 985 q 437 939 451 964 q 401 892 422 914 q 354 857 381 871 q 296 843 328 843 q 249 851 271 843 q 207 867 228 858 q 165 884 186 876 q 122 892 144 892 q 76 874 94 892 q 47 832 58 856 l -54 899 q -31 944 -46 919 q 4 991 -17 969 q 51 1026 25 1013 q 110 1040 78 1040 q 156 1033 135 1040 q 199 1016 178 1025 q 240 999 219 1007 q 283 992 260 992 q 329 1010 311 992 q 358 1051 347 1028 l 460 985 z "},"Ī":{"ha":439,"x_min":-1,"x_max":446,"o":"m 111 963 l 328 963 l 328 0 l 111 0 l 111 963 m -1 1219 l 446 1219 l 446 1078 l -1 1078 l -1 1219 z "},"ī":{"ha":401,"x_min":-21,"x_max":426,"o":"m 304 0 l 97 0 l 97 731 l 304 731 l 304 0 m -21 1007 l 426 1007 l 426 865 l -21 865 l -21 1007 z "},"Ĭ":{"ha":439,"x_min":11,"x_max":461,"o":"m 111 963 l 328 963 l 328 0 l 111 0 l 111 963 m 236 1043 q 147 1058 188 1043 q 76 1101 106 1074 q 28 1170 46 1129 q 11 1263 11 1211 l 11 1274 l 151 1274 q 179 1195 156 1215 q 236 1175 203 1175 q 293 1195 269 1175 q 321 1274 317 1215 l 461 1274 l 461 1263 q 444 1170 461 1211 q 397 1101 426 1129 q 325 1058 367 1074 q 236 1043 283 1043 z "},"ĭ":{"ha":401,"x_min":-22,"x_max":428,"o":"m 304 0 l 97 0 l 97 731 l 304 731 l 304 0 m 203 831 q 113 846 154 831 q 42 889 72 861 q -5 958 13 917 q -22 1050 -22 999 l -22 1061 l 118 1061 q 146 983 122 1003 q 203 963 169 963 q 260 983 236 963 q 288 1061 283 1003 l 428 1061 l 428 1050 q 410 958 428 999 q 363 889 393 917 q 292 846 333 861 q 203 831 250 831 z "},"Į":{"ha":439,"x_min":44,"x_max":356,"o":"m 111 963 l 328 963 l 328 0 q 297 -26 314 -11 q 265 -57 281 -42 q 237 -91 247 -75 q 226 -122 226 -107 q 235 -147 226 -137 q 268 -157 244 -157 q 298 -155 281 -157 q 339 -146 315 -153 l 356 -285 q 289 -301 328 -296 q 218 -307 250 -307 q 85 -272 125 -307 q 44 -181 44 -237 q 57 -124 44 -151 q 90 -69 69 -96 q 126 -31 107 -49 q 163 0 144 -14 l 111 0 l 111 963 z "},"į":{"ha":401,"x_min":21,"x_max":332,"o":"m 194 -307 q 61 -272 101 -307 q 21 -181 21 -237 q 33 -124 21 -151 q 67 -69 46 -96 q 102 -31 83 -49 q 139 0 121 -14 l 97 0 l 97 731 l 304 731 l 304 0 q 274 -26 290 -11 q 242 -57 257 -42 q 213 -91 224 -75 q 203 -122 203 -107 q 212 -147 203 -137 q 244 -157 221 -157 q 274 -155 257 -157 q 315 -146 292 -153 l 332 -285 q 265 -301 304 -296 q 194 -307 226 -307 m 324 942 q 287 852 324 885 q 200 819 250 819 q 113 852 150 819 q 76 942 76 885 q 113 1031 76 999 q 200 1064 150 1064 q 287 1031 250 1064 q 324 942 324 999 z "},"İ":{"ha":439,"x_min":108,"x_max":328,"o":"m 111 963 l 328 963 l 328 0 l 111 0 l 111 963 m 218 1056 q 141 1085 174 1056 q 108 1164 108 1114 q 141 1243 108 1214 q 218 1272 174 1272 q 295 1243 263 1272 q 328 1164 328 1214 q 295 1085 328 1114 q 218 1056 263 1056 z "},"ı":{"ha":401,"x_min":97,"x_max":304,"o":"m 304 0 l 97 0 l 97 731 l 304 731 l 304 0 z "},"Ĳ":{"ha":1168,"x_min":111,"x_max":1071,"o":"m 111 963 l 328 963 l 328 0 l 111 0 l 111 963 m 1071 324 q 1055 190 1071 253 q 999 81 1039 128 q 892 8 960 35 q 722 -19 825 -19 q 560 3 628 -19 q 447 57 492 26 l 519 225 q 606 183 560 201 q 706 165 651 165 q 819 204 785 165 q 854 335 854 243 l 854 963 l 1071 963 l 1071 324 z "},"ĳ":{"ha":800,"x_min":76,"x_max":722,"o":"m 304 0 l 97 0 l 97 731 l 304 731 l 304 0 m 324 942 q 287 852 324 885 q 200 819 250 819 q 113 852 150 819 q 76 942 76 885 q 113 1031 76 999 q 200 1064 150 1064 q 287 1031 250 1064 q 324 942 324 999 m 428 -257 q 370 -253 408 -257 q 299 -237 332 -249 l 326 -69 q 365 -79 347 -76 q 408 -82 382 -82 q 476 -53 457 -82 q 496 32 496 -24 l 496 731 l 703 731 l 703 26 q 632 -187 703 -118 q 428 -257 561 -257 m 722 942 q 685 852 722 885 q 599 819 649 819 q 512 852 549 819 q 475 942 475 885 q 512 1031 475 999 q 599 1064 549 1064 q 685 1031 649 1064 q 722 942 722 999 z "},"Ĵ":{"ha":735,"x_min":14,"x_max":742,"o":"m 638 324 q 622 190 638 253 q 566 81 606 128 q 459 8 526 35 q 289 -19 392 -19 q 126 3 194 -19 q 14 57 58 26 l 86 225 q 172 183 126 201 q 272 165 218 165 q 386 204 351 165 q 421 335 421 243 l 421 963 l 638 963 l 638 324 m 742 1126 l 665 1035 l 526 1142 l 388 1035 l 308 1126 l 526 1317 l 742 1126 z "},"ĵ":{"ha":401,"x_min":-100,"x_max":417,"o":"m 29 -257 q -28 -253 10 -257 q -100 -237 -67 -249 l -72 -69 q -34 -79 -51 -76 q 10 -82 -17 -82 q 78 -53 58 -82 q 97 32 97 -24 l 97 731 l 304 731 l 304 26 q 233 -187 304 -118 q 29 -257 163 -257 m 417 896 l 340 804 l 201 911 l 63 804 l -17 896 l 201 1086 l 417 896 z "},"Ķ":{"ha":950,"x_min":111,"x_max":936,"o":"m 679 0 q 610 102 650 47 q 524 212 571 157 q 428 317 478 267 q 328 407 378 368 l 328 0 l 111 0 l 111 963 l 328 963 l 328 599 q 498 784 413 688 q 657 963 583 881 l 914 963 q 716 738 815 846 q 507 519 617 629 q 730 292 622 424 q 936 0 838 160 l 679 0 m 428 -72 l 592 -72 q 595 -103 594 -87 q 596 -124 596 -118 q 579 -211 596 -176 q 535 -267 563 -246 q 472 -297 507 -287 q 399 -306 436 -306 q 357 -303 378 -306 q 328 -297 336 -300 l 328 -181 q 367 -178 349 -181 q 399 -166 386 -175 q 420 -140 413 -157 q 428 -92 428 -122 l 428 -72 z "},"ķ":{"ha":804,"x_min":97,"x_max":790,"o":"m 304 467 q 367 536 335 500 q 431 608 400 572 q 488 675 461 643 q 535 731 515 707 l 781 731 q 637 569 707 646 q 483 410 567 492 q 569 320 525 372 q 656 213 614 268 q 732 101 697 157 q 790 0 767 46 l 553 0 q 502 80 531 36 q 442 167 474 124 q 374 251 410 211 q 304 319 339 292 l 304 0 l 97 0 l 97 1044 l 304 1078 l 304 467 m 346 -72 l 510 -72 q 513 -103 513 -87 q 514 -124 514 -118 q 497 -211 514 -176 q 453 -267 481 -246 q 390 -297 425 -287 q 317 -306 354 -306 q 275 -303 296 -306 q 246 -297 254 -300 l 246 -181 q 285 -178 267 -181 q 317 -166 304 -175 q 338 -140 331 -157 q 346 -92 346 -122 l 346 -72 z "},"ĸ":{"ha":808,"x_min":97,"x_max":794,"o":"m 304 457 q 367 527 335 490 q 431 601 400 564 q 489 671 461 638 q 538 731 517 704 l 783 731 q 714 649 753 693 q 633 560 675 604 q 553 473 592 515 q 483 400 514 431 q 570 310 525 360 q 657 206 615 260 q 734 99 699 153 q 794 0 769 46 l 557 0 q 506 78 535 36 q 443 163 476 121 q 374 243 410 204 q 304 311 339 282 l 304 0 l 97 0 l 97 731 l 304 731 l 304 457 z "},"Ĺ":{"ha":782,"x_min":103,"x_max":754,"o":"m 754 186 l 754 0 l 111 0 l 111 963 l 328 963 l 328 186 l 754 186 m 426 1215 l 197 1022 l 103 1107 l 300 1332 l 426 1215 z "},"ĺ":{"ha":439,"x_min":69,"x_max":418,"o":"m 389 -14 q 242 6 299 -12 q 153 56 186 24 q 109 135 121 89 q 97 240 97 182 l 97 1044 l 304 1078 l 304 282 q 308 232 304 254 q 324 194 313 210 q 358 169 336 179 q 418 157 381 160 l 389 -14 m 414 1196 l 111 1100 l 69 1196 l 364 1336 l 414 1196 z "},"Ļ":{"ha":782,"x_min":111,"x_max":754,"o":"m 754 186 l 754 0 l 111 0 l 111 963 l 328 963 l 328 186 l 754 186 m 383 -72 l 547 -72 q 551 -103 550 -87 q 551 -124 551 -118 q 535 -211 551 -176 q 490 -267 518 -246 q 427 -297 463 -287 q 354 -306 392 -306 q 313 -303 333 -306 q 283 -297 292 -300 l 283 -181 q 323 -178 304 -181 q 355 -166 342 -175 q 376 -140 368 -157 q 383 -92 383 -122 l 383 -72 z "},"ļ":{"ha":439,"x_min":67,"x_max":418,"o":"m 389 -14 q 242 6 299 -12 q 153 56 186 24 q 109 135 121 89 q 97 240 97 182 l 97 1044 l 304 1078 l 304 282 q 308 232 304 254 q 324 194 313 210 q 358 169 336 179 q 418 157 381 160 l 389 -14 m 167 -72 l 331 -72 q 334 -103 333 -87 q 335 -124 335 -118 q 318 -211 335 -176 q 274 -267 301 -246 q 210 -297 246 -287 q 138 -306 175 -306 q 96 -303 117 -306 q 67 -297 75 -300 l 67 -181 q 106 -178 88 -181 q 138 -166 125 -175 q 159 -140 151 -157 q 167 -92 167 -122 l 167 -72 z "},"Ľ":{"ha":782,"x_min":111,"x_max":754,"o":"m 754 186 l 754 0 l 111 0 l 111 963 l 328 963 l 328 186 l 754 186 m 638 965 l 592 626 l 468 626 l 468 965 l 638 965 z "},"ľ":{"ha":514,"x_min":97,"x_max":569,"o":"m 389 -14 q 242 6 299 -12 q 153 56 186 24 q 109 135 121 89 q 97 240 97 182 l 97 1044 l 304 1078 l 304 282 q 308 232 304 254 q 324 194 313 210 q 358 169 336 179 q 418 157 381 160 l 389 -14 m 569 1078 l 524 739 l 400 739 l 400 1078 l 569 1078 z "},"Ŀ":{"ha":782,"x_min":111,"x_max":754,"o":"m 754 186 l 754 0 l 111 0 l 111 963 l 328 963 l 328 186 l 754 186 m 738 560 q 698 465 738 497 q 608 432 658 432 q 519 465 558 432 q 479 560 479 497 q 519 655 479 622 q 608 688 558 688 q 698 655 658 688 q 738 560 738 622 z "},"ŀ":{"ha":719,"x_min":97,"x_max":685,"o":"m 389 -14 q 242 6 299 -12 q 153 56 186 24 q 109 135 121 89 q 97 240 97 182 l 97 1044 l 304 1078 l 304 282 q 308 232 304 254 q 324 194 313 210 q 358 169 336 179 q 418 157 381 160 l 389 -14 m 685 572 q 645 477 685 510 q 556 444 606 444 q 466 477 506 444 q 426 572 426 510 q 466 667 426 635 q 556 700 506 700 q 645 667 606 700 q 685 572 685 635 z "},"Ł":{"ha":825,"x_min":0,"x_max":797,"o":"m 0 450 l 154 528 l 154 963 l 371 963 l 371 636 l 540 722 l 608 582 l 371 461 l 371 186 l 797 186 l 797 0 l 154 0 l 154 353 l 68 310 l 0 450 z "},"ł":{"ha":506,"x_min":-14,"x_max":503,"o":"m -14 546 l 135 619 l 135 1044 l 342 1078 l 342 722 l 440 772 l 503 644 l 342 564 l 342 282 q 346 232 342 254 q 362 194 350 210 q 396 169 374 179 q 456 157 418 160 l 426 -14 q 280 6 336 -12 q 191 56 224 24 q 147 135 158 89 q 135 240 135 182 l 135 461 l 49 418 l -14 546 z "},"Ń":{"ha":1050,"x_min":111,"x_max":939,"o":"m 757 0 q 556 326 664 165 q 325 631 447 488 l 325 0 l 111 0 l 111 963 l 288 963 q 389 850 333 917 q 502 708 444 783 q 617 551 560 632 q 724 394 674 469 l 724 963 l 939 963 l 939 0 l 757 0 m 700 1215 l 471 1022 l 376 1107 l 574 1332 l 700 1215 z "},"ń":{"ha":818,"x_min":97,"x_max":728,"o":"m 97 706 q 233 734 150 721 q 408 747 317 747 q 563 723 501 747 q 661 654 625 699 q 713 549 697 610 q 728 413 728 488 l 728 0 l 521 0 l 521 388 q 494 529 521 488 q 396 571 468 571 q 349 569 374 571 q 304 564 324 567 l 304 0 l 97 0 l 97 706 m 571 993 l 342 800 l 247 885 l 444 1110 l 571 993 z "},"Ņ":{"ha":1050,"x_min":111,"x_max":939,"o":"m 757 0 q 556 326 664 165 q 325 631 447 488 l 325 0 l 111 0 l 111 963 l 288 963 q 389 850 333 917 q 502 708 444 783 q 617 551 560 632 q 724 394 674 469 l 724 963 l 939 963 l 939 0 l 757 0 m 464 -72 l 628 -72 q 631 -103 631 -87 q 632 -124 632 -118 q 615 -211 632 -176 q 571 -267 599 -246 q 508 -297 543 -287 q 435 -306 472 -306 q 393 -303 414 -306 q 364 -297 372 -300 l 364 -181 q 403 -178 385 -181 q 435 -166 422 -175 q 456 -140 449 -157 q 464 -92 464 -122 l 464 -72 z "},"ņ":{"ha":818,"x_min":97,"x_max":728,"o":"m 97 706 q 233 734 150 721 q 408 747 317 747 q 563 723 501 747 q 661 654 625 699 q 713 549 697 610 q 728 413 728 488 l 728 0 l 521 0 l 521 388 q 494 529 521 488 q 396 571 468 571 q 349 569 374 571 q 304 564 324 567 l 304 0 l 97 0 l 97 706 m 332 -72 l 496 -72 q 499 -103 499 -87 q 500 -124 500 -118 q 483 -211 500 -176 q 439 -267 467 -246 q 376 -297 411 -287 q 303 -306 340 -306 q 261 -303 282 -306 q 232 -297 240 -300 l 232 -181 q 272 -178 253 -181 q 303 -166 290 -175 q 324 -140 317 -157 q 332 -92 332 -122 l 332 -72 z "},"Ň":{"ha":1050,"x_min":111,"x_max":939,"o":"m 757 0 q 556 326 664 165 q 325 631 447 488 l 325 0 l 111 0 l 111 963 l 288 963 q 389 850 333 917 q 502 708 444 783 q 617 551 560 632 q 724 394 674 469 l 724 963 l 939 963 l 939 0 l 757 0 m 292 1228 l 368 1319 l 507 1213 l 646 1319 l 725 1228 l 507 1038 l 292 1228 z "},"ň":{"ha":818,"x_min":97,"x_max":728,"o":"m 97 706 q 233 734 150 721 q 408 747 317 747 q 563 723 501 747 q 661 654 625 699 q 713 549 697 610 q 728 413 728 488 l 728 0 l 521 0 l 521 388 q 494 529 521 488 q 396 571 468 571 q 349 569 374 571 q 304 564 324 567 l 304 0 l 97 0 l 97 706 m 189 1004 l 265 1096 l 404 989 l 543 1096 l 622 1004 l 404 814 l 189 1004 z "},"ŉ":{"ha":860,"x_min":-26,"x_max":769,"o":"m 139 706 q 275 734 192 721 q 450 747 358 747 q 605 723 543 747 q 703 654 667 699 q 754 549 739 610 q 769 413 769 488 l 769 0 l 563 0 l 563 388 q 536 529 563 488 q 438 571 510 571 q 390 569 415 571 q 346 564 365 567 l 346 0 l 139 0 l 139 706 m 203 1078 q 203 1047 203 1060 q 201 1018 203 1035 q 172 872 196 932 q 108 750 149 811 l -26 788 q 15 903 3 850 q 26 1015 26 956 q 26 1049 26 1032 q 22 1078 25 1067 l 203 1078 z "},"Ŋ":{"ha":1050,"x_min":111,"x_max":939,"o":"m 724 58 q 535 355 636 210 q 325 631 435 500 l 325 0 l 111 0 l 111 963 l 288 963 q 389 850 333 917 q 502 708 444 783 q 617 551 560 632 q 724 394 674 469 l 724 963 l 939 963 l 939 24 q 874 -190 939 -121 q 665 -260 808 -260 q 612 -256 646 -260 q 544 -242 578 -253 l 572 -74 q 606 -83 593 -81 q 646 -85 619 -85 q 707 -56 690 -85 q 724 29 724 -26 l 724 58 z "},"ŋ":{"ha":818,"x_min":97,"x_max":728,"o":"m 521 388 q 494 529 521 488 q 396 571 468 571 q 349 569 374 571 q 304 564 324 567 l 304 0 l 97 0 l 97 706 q 233 734 150 721 q 408 747 317 747 q 563 723 501 747 q 661 654 625 699 q 713 549 697 610 q 728 413 728 488 l 728 4 q 669 -193 728 -129 q 468 -257 611 -257 q 419 -254 450 -257 q 357 -240 388 -251 l 382 -92 q 412 -99 397 -96 q 444 -101 426 -101 q 521 -3 521 -101 l 521 388 z "},"Ō":{"ha":1097,"x_min":69,"x_max":1028,"o":"m 293 482 q 310 354 293 411 q 360 256 328 297 q 440 193 393 215 q 549 171 488 171 q 656 193 608 171 q 737 256 704 215 q 787 354 769 297 q 804 482 804 411 q 787 610 804 553 q 737 709 769 668 q 656 772 704 750 q 549 794 608 794 q 440 772 488 794 q 360 708 393 749 q 310 609 328 667 q 293 482 293 551 m 1028 482 q 991 265 1028 358 q 890 108 954 171 q 738 13 826 44 q 549 -19 650 -19 q 363 13 450 -19 q 210 108 275 44 q 107 265 144 171 q 69 482 69 358 q 108 699 69 606 q 213 857 147 793 q 366 953 279 921 q 549 985 453 985 q 735 953 647 985 q 888 857 822 921 q 990 699 953 793 q 1028 482 1028 606 m 325 1219 l 772 1219 l 772 1078 l 325 1078 l 325 1219 z "},"ō":{"ha":843,"x_min":63,"x_max":781,"o":"m 781 367 q 756 209 781 281 q 683 87 731 138 q 570 8 636 36 q 422 -19 504 -19 q 276 8 342 -19 q 163 87 210 36 q 89 209 115 138 q 63 367 63 281 q 90 524 63 453 q 165 644 117 594 q 278 722 213 694 q 422 750 344 750 q 567 722 501 750 q 681 644 633 694 q 754 524 728 594 q 781 367 781 453 m 569 367 q 531 517 569 463 q 422 572 493 572 q 313 517 351 572 q 274 367 274 463 q 313 215 274 271 q 422 158 351 158 q 531 215 493 158 q 569 367 569 271 m 197 1007 l 644 1007 l 644 865 l 197 865 l 197 1007 z "},"Ŏ":{"ha":1097,"x_min":69,"x_max":1028,"o":"m 293 482 q 310 354 293 411 q 360 256 328 297 q 440 193 393 215 q 549 171 488 171 q 656 193 608 171 q 737 256 704 215 q 787 354 769 297 q 804 482 804 411 q 787 610 804 553 q 737 709 769 668 q 656 772 704 750 q 549 794 608 794 q 440 772 488 794 q 360 708 393 749 q 310 609 328 667 q 293 482 293 551 m 1028 482 q 991 265 1028 358 q 890 108 954 171 q 738 13 826 44 q 549 -19 650 -19 q 363 13 450 -19 q 210 108 275 44 q 107 265 144 171 q 69 482 69 358 q 108 699 69 606 q 213 857 147 793 q 366 953 279 921 q 549 985 453 985 q 735 953 647 985 q 888 857 822 921 q 990 699 953 793 q 1028 482 1028 606 m 549 1043 q 459 1058 500 1043 q 388 1101 418 1074 q 341 1170 358 1129 q 324 1263 324 1211 l 324 1274 l 464 1274 q 492 1195 468 1215 q 549 1175 515 1175 q 606 1195 582 1175 q 633 1274 629 1215 l 774 1274 l 774 1263 q 756 1170 774 1211 q 709 1101 739 1129 q 638 1058 679 1074 q 549 1043 596 1043 z "},"ŏ":{"ha":843,"x_min":63,"x_max":781,"o":"m 781 367 q 756 209 781 281 q 683 87 731 138 q 570 8 636 36 q 422 -19 504 -19 q 276 8 342 -19 q 163 87 210 36 q 89 209 115 138 q 63 367 63 281 q 90 524 63 453 q 165 644 117 594 q 278 722 213 694 q 422 750 344 750 q 567 722 501 750 q 681 644 633 694 q 754 524 728 594 q 781 367 781 453 m 569 367 q 531 517 569 463 q 422 572 493 572 q 313 517 351 572 q 274 367 274 463 q 313 215 274 271 q 422 158 351 158 q 531 215 493 158 q 569 367 569 271 m 421 831 q 331 846 372 831 q 260 889 290 861 q 213 958 231 917 q 196 1050 196 999 l 196 1061 l 336 1061 q 364 983 340 1003 q 421 963 388 963 q 478 983 454 963 q 506 1061 501 1003 l 646 1061 l 646 1050 q 628 958 646 999 q 581 889 611 917 q 510 846 551 861 q 421 831 468 831 z "},"Ő":{"ha":1097,"x_min":69,"x_max":1028,"o":"m 293 482 q 310 354 293 411 q 360 256 328 297 q 440 193 393 215 q 549 171 488 171 q 656 193 608 171 q 737 256 704 215 q 787 354 769 297 q 804 482 804 411 q 787 610 804 553 q 737 709 769 668 q 656 772 704 750 q 549 794 608 794 q 440 772 488 794 q 360 708 393 749 q 310 609 328 667 q 293 482 293 551 m 1028 482 q 991 265 1028 358 q 890 108 954 171 q 738 13 826 44 q 549 -19 650 -19 q 363 13 450 -19 q 210 108 275 44 q 107 265 144 171 q 69 482 69 358 q 108 699 69 606 q 213 857 147 793 q 366 953 279 921 q 549 985 453 985 q 735 953 647 985 q 888 857 822 921 q 990 699 953 793 q 1028 482 1028 606 m 610 1238 l 415 1026 l 322 1097 l 489 1335 l 610 1238 m 890 1238 l 696 1026 l 603 1097 l 769 1335 l 890 1238 z "},"ő":{"ha":843,"x_min":63,"x_max":781,"o":"m 781 367 q 756 209 781 281 q 683 87 731 138 q 570 8 636 36 q 422 -19 504 -19 q 276 8 342 -19 q 163 87 210 36 q 89 209 115 138 q 63 367 63 281 q 90 524 63 453 q 165 644 117 594 q 278 722 213 694 q 422 750 344 750 q 567 722 501 750 q 681 644 633 694 q 754 524 728 594 q 781 367 781 453 m 569 367 q 531 517 569 463 q 422 572 493 572 q 313 517 351 572 q 274 367 274 463 q 313 215 274 271 q 422 158 351 158 q 531 215 493 158 q 569 367 569 271 m 472 1013 l 278 801 l 185 872 l 351 1110 l 472 1013 m 753 1013 l 558 801 l 465 872 l 632 1110 l 753 1013 z "},"Ŕ":{"ha":926,"x_min":111,"x_max":899,"o":"m 393 974 q 725 897 610 974 q 840 657 840 819 q 794 492 840 556 q 660 393 747 429 q 721 310 689 357 q 784 213 753 264 q 844 108 815 163 q 899 0 874 53 l 656 0 q 602 96 629 47 q 547 190 575 144 q 490 277 518 236 q 435 351 463 318 l 328 351 l 328 0 l 111 0 l 111 949 q 258 968 182 963 q 393 974 333 974 m 406 789 q 363 788 382 789 q 328 785 344 786 l 328 524 l 389 524 q 564 554 511 524 q 617 658 617 585 q 563 759 617 729 q 406 789 510 789 m 624 1215 l 394 1022 l 300 1107 l 497 1332 l 624 1215 z "},"ŕ":{"ha":586,"x_min":97,"x_max":572,"o":"m 538 547 q 472 562 510 554 q 392 569 435 569 q 345 566 372 569 q 304 558 318 563 l 304 0 l 97 0 l 97 692 q 228 728 153 711 q 397 746 304 746 q 438 744 414 746 q 485 738 461 742 q 532 730 508 735 q 572 718 556 725 l 538 547 m 508 993 l 279 800 l 185 885 l 382 1110 l 508 993 z "},"Ŗ":{"ha":926,"x_min":111,"x_max":899,"o":"m 393 974 q 725 897 610 974 q 840 657 840 819 q 794 492 840 556 q 660 393 747 429 q 721 310 689 357 q 784 213 753 264 q 844 108 815 163 q 899 0 874 53 l 656 0 q 602 96 629 47 q 547 190 575 144 q 490 277 518 236 q 435 351 463 318 l 328 351 l 328 0 l 111 0 l 111 949 q 258 968 182 963 q 393 974 333 974 m 406 789 q 363 788 382 789 q 328 785 344 786 l 328 524 l 389 524 q 564 554 511 524 q 617 658 617 585 q 563 759 617 729 q 406 789 510 789 m 414 -72 l 578 -72 q 581 -103 581 -87 q 582 -124 582 -118 q 565 -211 582 -176 q 521 -267 549 -246 q 458 -297 493 -287 q 385 -306 422 -306 q 343 -303 364 -306 q 314 -297 322 -300 l 314 -181 q 353 -178 335 -181 q 385 -166 372 -175 q 406 -140 399 -157 q 414 -92 414 -122 l 414 -72 z "},"ŗ":{"ha":586,"x_min":19,"x_max":572,"o":"m 538 547 q 472 562 510 554 q 392 569 435 569 q 345 566 372 569 q 304 558 318 563 l 304 0 l 97 0 l 97 692 q 228 728 153 711 q 397 746 304 746 q 438 744 414 746 q 485 738 461 742 q 532 730 508 735 q 572 718 556 725 l 538 547 m 119 -72 l 283 -72 q 287 -103 286 -87 q 288 -124 288 -118 q 271 -211 288 -176 q 226 -267 254 -246 q 163 -297 199 -287 q 90 -306 128 -306 q 49 -303 69 -306 q 19 -297 28 -300 l 19 -181 q 59 -178 40 -181 q 91 -166 78 -175 q 112 -140 104 -157 q 119 -92 119 -122 l 119 -72 z "},"Ř":{"ha":926,"x_min":111,"x_max":899,"o":"m 393 974 q 725 897 610 974 q 840 657 840 819 q 794 492 840 556 q 660 393 747 429 q 721 310 689 357 q 784 213 753 264 q 844 108 815 163 q 899 0 874 53 l 656 0 q 602 96 629 47 q 547 190 575 144 q 490 277 518 236 q 435 351 463 318 l 328 351 l 328 0 l 111 0 l 111 949 q 258 968 182 963 q 393 974 333 974 m 406 789 q 363 788 382 789 q 328 785 344 786 l 328 524 l 389 524 q 564 554 511 524 q 617 658 617 585 q 563 759 617 729 q 406 789 510 789 m 228 1228 l 304 1319 l 443 1213 l 582 1319 l 661 1228 l 443 1038 l 228 1228 z "},"ř":{"ha":586,"x_min":97,"x_max":572,"o":"m 538 547 q 472 562 510 554 q 392 569 435 569 q 345 566 372 569 q 304 558 318 563 l 304 0 l 97 0 l 97 692 q 228 728 153 711 q 397 746 304 746 q 438 744 414 746 q 485 738 461 742 q 532 730 508 735 q 572 718 556 725 l 538 547 m 126 1004 l 203 1096 l 342 989 l 481 1096 l 560 1004 l 342 814 l 126 1004 z "},"Ś":{"ha":808,"x_min":51,"x_max":753,"o":"m 374 165 q 449 173 419 165 q 497 194 479 181 q 522 225 515 207 q 529 265 529 243 q 485 344 529 313 q 332 411 440 375 q 238 449 285 428 q 153 503 190 471 q 92 583 115 536 q 68 696 68 629 q 93 816 68 763 q 164 907 118 869 q 275 965 210 944 q 422 985 340 985 q 590 964 519 985 q 707 918 661 943 l 644 747 q 555 784 604 768 q 436 800 506 800 q 324 778 358 800 q 290 713 290 757 q 303 668 290 686 q 338 635 315 650 q 391 609 361 621 q 457 585 421 597 q 588 530 532 557 q 680 467 643 503 q 735 382 717 431 q 753 264 753 333 q 658 55 753 129 q 374 -19 564 -19 q 258 -12 310 -19 q 167 7 207 -4 q 99 31 128 18 q 51 54 71 43 l 113 226 q 219 184 156 203 q 374 165 282 165 m 603 1215 l 374 1022 l 279 1107 l 476 1332 l 603 1215 z "},"ś":{"ha":674,"x_min":54,"x_max":617,"o":"m 307 149 q 388 160 364 149 q 411 203 411 171 q 381 247 411 228 q 288 289 350 265 q 199 326 239 307 q 132 373 160 346 q 89 438 104 400 q 74 528 74 475 q 150 690 74 631 q 360 750 226 750 q 488 738 426 750 q 585 713 549 726 l 549 551 q 470 574 513 564 q 375 583 428 583 q 278 529 278 583 q 282 507 278 517 q 299 488 286 497 q 333 469 311 479 q 388 446 354 458 q 500 397 456 421 q 570 344 544 372 q 606 281 596 315 q 617 200 617 246 q 535 36 617 92 q 306 -19 454 -19 q 144 -3 208 -19 q 54 25 79 14 l 89 193 q 197 160 142 172 q 307 149 253 149 m 533 993 l 304 800 l 210 885 l 407 1110 l 533 993 z "},"Ŝ":{"ha":808,"x_min":51,"x_max":753,"o":"m 374 165 q 449 173 419 165 q 497 194 479 181 q 522 225 515 207 q 529 265 529 243 q 485 344 529 313 q 332 411 440 375 q 238 449 285 428 q 153 503 190 471 q 92 583 115 536 q 68 696 68 629 q 93 816 68 763 q 164 907 118 869 q 275 965 210 944 q 422 985 340 985 q 590 964 519 985 q 707 918 661 943 l 644 747 q 555 784 604 768 q 436 800 506 800 q 324 778 358 800 q 290 713 290 757 q 303 668 290 686 q 338 635 315 650 q 391 609 361 621 q 457 585 421 597 q 588 530 532 557 q 680 467 643 503 q 735 382 717 431 q 753 264 753 333 q 658 55 753 129 q 374 -19 564 -19 q 258 -12 310 -19 q 167 7 207 -4 q 99 31 128 18 q 51 54 71 43 l 113 226 q 219 184 156 203 q 374 165 282 165 m 638 1126 l 561 1035 l 422 1142 l 283 1035 l 204 1126 l 422 1317 l 638 1126 z "},"ŝ":{"ha":674,"x_min":54,"x_max":617,"o":"m 307 149 q 388 160 364 149 q 411 203 411 171 q 381 247 411 228 q 288 289 350 265 q 199 326 239 307 q 132 373 160 346 q 89 438 104 400 q 74 528 74 475 q 150 690 74 631 q 360 750 226 750 q 488 738 426 750 q 585 713 549 726 l 549 551 q 470 574 513 564 q 375 583 428 583 q 278 529 278 583 q 282 507 278 517 q 299 488 286 497 q 333 469 311 479 q 388 446 354 458 q 500 397 456 421 q 570 344 544 372 q 606 281 596 315 q 617 200 617 246 q 535 36 617 92 q 306 -19 454 -19 q 144 -3 208 -19 q 54 25 79 14 l 89 193 q 197 160 142 172 q 307 149 253 149 m 574 896 l 497 804 l 358 911 l 219 804 l 140 896 l 358 1086 l 574 896 z "},"Ş":{"ha":808,"x_min":51,"x_max":753,"o":"m 374 165 q 449 173 419 165 q 497 194 479 181 q 522 225 515 207 q 529 265 529 243 q 485 344 529 313 q 332 411 440 375 q 238 449 285 428 q 153 503 190 471 q 92 583 115 536 q 68 696 68 629 q 93 816 68 763 q 164 907 118 869 q 275 965 210 944 q 422 985 340 985 q 590 964 519 985 q 707 918 661 943 l 644 747 q 555 784 604 768 q 436 800 506 800 q 324 778 358 800 q 290 713 290 757 q 303 668 290 686 q 338 635 315 650 q 391 609 361 621 q 457 585 421 597 q 588 530 532 557 q 680 467 643 503 q 735 382 717 431 q 753 264 753 333 q 682 76 753 147 q 469 -14 611 4 q 450 -56 457 -36 q 511 -108 494 -78 q 528 -171 528 -139 q 475 -272 528 -237 q 336 -307 422 -307 q 275 -302 306 -307 q 214 -289 244 -297 l 239 -168 q 274 -177 249 -171 q 325 -183 300 -183 q 359 -176 344 -183 q 375 -149 374 -168 q 362 -118 376 -132 q 315 -97 347 -104 l 299 -93 q 313 -58 304 -78 q 329 -18 321 -37 q 153 11 221 -12 q 51 54 86 35 l 113 226 q 219 184 156 203 q 374 165 282 165 z "},"ş":{"ha":674,"x_min":54,"x_max":617,"o":"m 307 149 q 388 160 364 149 q 411 203 411 171 q 381 247 411 228 q 288 289 350 265 q 199 326 239 307 q 132 373 160 346 q 89 438 104 400 q 74 528 74 475 q 150 690 74 631 q 360 750 226 750 q 488 738 426 750 q 585 713 549 726 l 549 551 q 470 574 513 564 q 375 583 428 583 q 278 529 278 583 q 282 507 278 517 q 299 488 286 497 q 333 469 311 479 q 388 446 354 458 q 500 397 456 421 q 570 344 544 372 q 606 281 596 315 q 617 200 617 246 q 560 56 617 110 q 397 -12 503 3 q 385 -35 390 -24 q 378 -56 381 -47 q 439 -108 422 -78 q 456 -171 456 -139 q 403 -272 456 -237 q 264 -307 350 -307 q 203 -302 233 -307 q 142 -289 172 -297 l 167 -168 q 202 -177 176 -171 q 253 -183 228 -183 q 287 -176 272 -183 q 303 -149 301 -168 q 290 -118 304 -132 q 243 -97 275 -104 l 226 -93 q 240 -58 232 -78 q 257 -18 249 -37 q 128 1 179 -12 q 54 25 76 15 l 89 193 q 197 160 142 172 q 307 149 253 149 z "},"Ţ":{"ha":853,"x_min":28,"x_max":825,"o":"m 825 963 l 825 778 l 535 778 l 535 0 l 490 0 q 476 -30 483 -15 q 465 -56 469 -44 q 526 -108 510 -78 q 543 -171 543 -139 q 490 -272 543 -237 q 351 -307 438 -307 q 290 -302 321 -307 q 229 -289 260 -297 l 254 -168 q 290 -177 264 -171 q 340 -183 315 -183 q 374 -176 360 -183 q 390 -149 389 -168 q 377 -118 392 -132 q 331 -97 363 -104 l 314 -93 q 332 -47 321 -74 q 353 0 343 -21 l 318 0 l 318 778 l 28 778 l 28 963 l 825 963 z "},"ţ":{"ha":617,"x_min":90,"x_max":575,"o":"m 90 913 l 297 946 l 297 731 l 546 731 l 546 558 l 297 558 l 297 301 q 320 197 297 236 q 413 158 343 158 q 481 165 446 158 q 546 182 517 171 l 575 21 q 515 1 547 10 q 442 -12 482 -8 l 424 -56 q 485 -108 468 -78 q 501 -171 501 -139 q 449 -272 501 -237 q 310 -307 396 -307 q 249 -302 279 -307 q 188 -289 218 -297 l 213 -168 q 248 -177 222 -171 q 299 -183 274 -183 q 333 -176 318 -183 q 349 -149 347 -168 q 335 -118 350 -132 q 289 -97 321 -104 l 272 -93 q 287 -53 278 -76 q 306 -11 296 -31 q 201 24 243 -1 q 135 90 160 50 q 101 183 111 131 q 90 299 90 236 l 90 913 z "},"Ť":{"ha":853,"x_min":28,"x_max":825,"o":"m 825 963 l 825 778 l 535 778 l 535 0 l 318 0 l 318 778 l 28 778 l 28 963 l 825 963 m 210 1228 l 286 1319 l 425 1213 l 564 1319 l 643 1228 l 425 1038 l 210 1228 z "},"ť":{"ha":617,"x_min":90,"x_max":575,"o":"m 90 913 l 297 946 l 297 731 l 546 731 l 546 558 l 297 558 l 297 301 q 320 197 297 236 q 413 158 343 158 q 481 165 446 158 q 546 182 517 171 l 575 21 q 492 -6 538 6 q 379 -17 446 -17 q 239 6 294 -17 q 150 70 183 29 q 103 169 117 111 q 90 299 90 228 l 90 913 m 546 1078 l 500 813 l 381 813 l 381 1078 l 546 1078 z "},"Ŧ":{"ha":853,"x_min":28,"x_max":825,"o":"m 825 963 l 825 778 l 535 778 l 535 524 l 731 524 l 731 371 l 535 371 l 535 0 l 318 0 l 318 371 l 122 371 l 122 524 l 318 524 l 318 778 l 28 778 l 28 963 l 825 963 z "},"ŧ":{"ha":617,"x_min":90,"x_max":575,"o":"m 90 913 l 297 946 l 297 731 l 546 731 l 546 558 l 297 558 l 297 446 l 544 446 l 544 317 l 297 317 l 297 301 q 320 197 297 236 q 413 158 343 158 q 481 165 446 158 q 546 182 517 171 l 575 21 q 492 -6 538 6 q 379 -17 446 -17 q 239 6 294 -17 q 150 70 183 29 q 103 169 117 111 q 90 299 90 228 l 90 913 z "},"Ũ":{"ha":982,"x_min":97,"x_max":885,"o":"m 488 -19 q 313 9 386 -19 q 191 88 239 38 q 120 209 143 139 q 97 364 97 279 l 97 963 l 314 963 l 314 382 q 327 283 314 324 q 363 216 340 242 q 419 179 386 190 q 490 168 451 168 q 619 217 569 168 q 668 382 668 265 l 668 963 l 885 963 l 885 364 q 861 208 885 279 q 789 87 838 138 q 665 8 740 36 q 488 -19 590 -19 m 751 1211 q 728 1165 743 1190 q 693 1119 714 1140 q 646 1083 672 1097 q 588 1069 619 1069 q 541 1077 563 1069 q 499 1094 519 1085 q 457 1110 478 1103 q 414 1118 436 1118 q 368 1100 386 1118 q 339 1058 350 1082 l 238 1125 q 260 1171 246 1146 q 296 1217 275 1196 q 343 1253 317 1239 q 401 1267 369 1267 q 448 1259 426 1267 q 490 1242 469 1251 q 531 1226 511 1233 q 575 1218 551 1218 q 621 1236 603 1218 q 650 1278 639 1254 l 751 1211 z "},"ũ":{"ha":818,"x_min":90,"x_max":721,"o":"m 721 25 q 585 -3 668 10 q 410 -17 501 -17 q 255 8 317 -17 q 157 78 193 33 q 106 186 121 124 q 90 324 90 249 l 90 731 l 297 731 l 297 349 q 324 204 297 249 q 422 160 350 160 q 469 162 444 160 q 514 167 494 164 l 514 731 l 721 731 l 721 25 m 664 985 q 641 939 656 964 q 606 892 626 914 q 558 857 585 871 q 500 843 532 843 q 453 851 475 843 q 411 867 432 858 q 369 884 390 876 q 326 892 349 892 q 281 874 299 892 q 251 832 263 856 l 150 899 q 173 944 158 919 q 208 991 188 969 q 256 1026 229 1013 q 314 1040 282 1040 q 360 1033 339 1040 q 403 1016 382 1025 q 444 999 424 1007 q 488 992 464 992 q 533 1010 515 992 q 563 1051 551 1028 l 664 985 z "},"Ū":{"ha":982,"x_min":97,"x_max":885,"o":"m 488 -19 q 313 9 386 -19 q 191 88 239 38 q 120 209 143 139 q 97 364 97 279 l 97 963 l 314 963 l 314 382 q 327 283 314 324 q 363 216 340 242 q 419 179 386 190 q 490 168 451 168 q 619 217 569 168 q 668 382 668 265 l 668 963 l 885 963 l 885 364 q 861 208 885 279 q 789 87 838 138 q 665 8 740 36 q 488 -19 590 -19 m 267 1219 l 714 1219 l 714 1078 l 267 1078 l 267 1219 z "},"ū":{"ha":818,"x_min":90,"x_max":721,"o":"m 721 25 q 585 -3 668 10 q 410 -17 501 -17 q 255 8 317 -17 q 157 78 193 33 q 106 186 121 124 q 90 324 90 249 l 90 731 l 297 731 l 297 349 q 324 204 297 249 q 422 160 350 160 q 469 162 444 160 q 514 167 494 164 l 514 731 l 721 731 l 721 25 m 185 1007 l 632 1007 l 632 865 l 185 865 l 185 1007 z "},"Ŭ":{"ha":982,"x_min":97,"x_max":885,"o":"m 488 -19 q 313 9 386 -19 q 191 88 239 38 q 120 209 143 139 q 97 364 97 279 l 97 963 l 314 963 l 314 382 q 327 283 314 324 q 363 216 340 242 q 419 179 386 190 q 490 168 451 168 q 619 217 569 168 q 668 382 668 265 l 668 963 l 885 963 l 885 364 q 861 208 885 279 q 789 87 838 138 q 665 8 740 36 q 488 -19 590 -19 m 490 1043 q 401 1058 442 1043 q 330 1101 360 1074 q 283 1170 300 1129 q 265 1263 265 1211 l 265 1274 l 406 1274 q 433 1195 410 1215 q 490 1175 457 1175 q 547 1195 524 1175 q 575 1274 571 1215 l 715 1274 l 715 1263 q 698 1170 715 1211 q 651 1101 681 1129 q 579 1058 621 1074 q 490 1043 538 1043 z "},"ŭ":{"ha":818,"x_min":90,"x_max":721,"o":"m 721 25 q 585 -3 668 10 q 410 -17 501 -17 q 255 8 317 -17 q 157 78 193 33 q 106 186 121 124 q 90 324 90 249 l 90 731 l 297 731 l 297 349 q 324 204 297 249 q 422 160 350 160 q 469 162 444 160 q 514 167 494 164 l 514 731 l 721 731 l 721 25 m 410 831 q 320 846 361 831 q 249 889 279 861 q 202 958 219 917 q 185 1050 185 999 l 185 1061 l 325 1061 q 353 983 329 1003 q 410 963 376 963 q 467 983 443 963 q 494 1061 490 1003 l 635 1061 l 635 1050 q 617 958 635 999 q 570 889 600 917 q 499 846 540 861 q 410 831 457 831 z "},"Ů":{"ha":982,"x_min":97,"x_max":885,"o":"m 488 -19 q 313 9 386 -19 q 191 88 239 38 q 120 209 143 139 q 97 364 97 279 l 97 963 l 314 963 l 314 382 q 327 283 314 324 q 363 216 340 242 q 419 179 386 190 q 490 168 451 168 q 619 217 569 168 q 668 382 668 265 l 668 963 l 885 963 l 885 364 q 861 208 885 279 q 789 87 838 138 q 665 8 740 36 q 488 -19 590 -19 m 654 1158 q 641 1090 654 1119 q 605 1040 628 1060 q 552 1009 582 1019 q 489 999 522 999 q 428 1009 457 999 q 376 1040 399 1019 q 340 1090 353 1060 q 326 1158 326 1119 q 340 1227 326 1197 q 376 1277 353 1257 q 428 1308 399 1297 q 489 1318 457 1318 q 552 1308 522 1318 q 605 1277 582 1297 q 641 1227 628 1257 q 654 1158 654 1197 m 553 1158 q 533 1207 553 1190 q 489 1224 514 1224 q 446 1207 465 1224 q 426 1158 426 1190 q 446 1110 426 1126 q 489 1093 465 1093 q 533 1110 514 1093 q 553 1158 553 1126 z "},"ů":{"ha":818,"x_min":90,"x_max":721,"o":"m 721 25 q 585 -3 668 10 q 410 -17 501 -17 q 255 8 317 -17 q 157 78 193 33 q 106 186 121 124 q 90 324 90 249 l 90 731 l 297 731 l 297 349 q 324 204 297 249 q 422 160 350 160 q 469 162 444 160 q 514 167 494 164 l 514 731 l 721 731 l 721 25 m 574 971 q 560 902 574 932 q 524 852 547 872 q 472 822 501 832 q 408 811 442 811 q 347 822 376 811 q 295 852 318 832 q 259 902 272 872 q 246 971 246 932 q 259 1040 246 1010 q 295 1090 272 1069 q 347 1120 318 1110 q 408 1131 376 1131 q 472 1120 442 1131 q 524 1090 501 1110 q 560 1040 547 1069 q 574 971 574 1010 m 472 971 q 453 1019 472 1003 q 408 1036 433 1036 q 365 1019 385 1036 q 346 971 346 1003 q 365 922 346 939 q 408 906 385 906 q 453 922 433 906 q 472 971 472 939 z "},"Ű":{"ha":982,"x_min":97,"x_max":885,"o":"m 488 -19 q 313 9 386 -19 q 191 88 239 38 q 120 209 143 139 q 97 364 97 279 l 97 963 l 314 963 l 314 382 q 327 283 314 324 q 363 216 340 242 q 419 179 386 190 q 490 168 451 168 q 619 217 569 168 q 668 382 668 265 l 668 963 l 885 963 l 885 364 q 861 208 885 279 q 789 87 838 138 q 665 8 740 36 q 488 -19 590 -19 m 551 1238 l 357 1026 l 264 1097 l 431 1335 l 551 1238 m 832 1238 l 638 1026 l 544 1097 l 711 1335 l 832 1238 z "},"ű":{"ha":818,"x_min":90,"x_max":738,"o":"m 721 25 q 585 -3 668 10 q 410 -17 501 -17 q 255 8 317 -17 q 157 78 193 33 q 106 186 121 124 q 90 324 90 249 l 90 731 l 297 731 l 297 349 q 324 204 297 249 q 422 160 350 160 q 469 162 444 160 q 514 167 494 164 l 514 731 l 721 731 l 721 25 m 457 1013 l 263 801 l 169 872 l 336 1110 l 457 1013 m 738 1013 l 543 801 l 450 872 l 617 1110 l 738 1013 z "},"Ų":{"ha":982,"x_min":97,"x_max":885,"o":"m 479 -19 q 307 11 379 -18 q 188 91 235 40 q 119 211 142 142 q 97 364 97 281 l 97 963 l 314 963 l 314 382 q 327 283 314 324 q 363 216 340 242 q 419 179 386 190 q 490 168 451 168 q 619 217 569 168 q 668 382 668 265 l 668 963 l 885 963 l 885 364 q 847 171 885 254 q 722 35 810 88 q 688 13 703 24 q 660 -8 674 3 q 635 -30 647 -18 q 607 -57 622 -42 q 578 -91 589 -75 q 568 -122 568 -107 q 577 -147 568 -137 q 610 -157 586 -157 q 640 -155 622 -157 q 681 -146 657 -153 l 697 -285 q 631 -301 669 -296 q 560 -307 592 -307 q 426 -272 467 -307 q 386 -181 386 -237 q 399 -124 386 -151 q 432 -69 411 -96 q 479 -19 456 -39 z "},"ų":{"ha":818,"x_min":90,"x_max":724,"o":"m 586 -303 q 453 -268 493 -303 q 413 -176 413 -233 q 425 -119 413 -147 q 458 -65 438 -92 q 483 -37 469 -50 q 508 -12 496 -24 q 460 -16 486 -15 q 410 -17 433 -17 q 255 8 317 -17 q 157 78 193 33 q 106 186 121 124 q 90 324 90 249 l 90 731 l 297 731 l 297 349 q 324 204 297 249 q 422 160 350 160 q 469 162 444 160 q 514 167 494 164 l 514 731 l 721 731 l 721 25 q 682 -8 707 14 q 633 -53 657 -29 q 605 -87 615 -71 q 594 -118 594 -103 q 603 -143 594 -133 q 636 -153 613 -153 q 666 -151 649 -153 q 707 -142 683 -149 l 724 -281 q 657 -297 696 -292 q 586 -303 618 -303 z "},"Ŵ":{"ha":1317,"x_min":28,"x_max":1289,"o":"m 757 860 q 794 731 774 803 q 837 583 814 660 q 883 431 860 507 q 929 289 907 354 q 966 443 947 360 q 1001 615 985 526 q 1034 792 1018 704 q 1064 963 1050 881 l 1289 963 q 1177 472 1240 721 q 1040 0 1114 224 l 842 0 q 747 280 793 133 q 657 574 701 426 q 568 280 613 426 q 475 0 524 133 l 276 0 q 140 472 203 224 q 28 963 76 721 l 263 963 q 293 792 276 881 q 328 615 310 704 q 365 443 346 526 q 403 289 383 360 q 451 433 428 357 q 497 586 475 510 q 538 733 519 663 q 572 860 557 804 l 757 860 m 875 1113 l 799 1021 l 660 1128 l 521 1021 l 442 1113 l 660 1303 l 875 1113 z "},"ŵ":{"ha":1089,"x_min":14,"x_max":1075,"o":"m 542 419 q 483 210 514 314 q 417 0 451 106 l 256 0 q 201 139 231 58 q 141 315 172 219 q 77 516 110 410 q 14 731 44 622 l 232 731 q 256 622 243 681 q 284 500 269 563 q 315 374 299 438 q 347 253 331 311 q 383 378 365 314 q 416 503 400 442 q 447 623 432 565 q 472 731 461 681 l 622 731 q 647 623 633 681 q 676 503 661 565 q 708 378 692 442 q 743 253 725 314 q 776 374 760 311 q 808 500 793 438 q 835 622 822 563 q 860 731 849 681 l 1075 731 q 1012 516 1044 622 q 948 315 979 410 q 887 139 917 219 q 832 0 857 58 l 671 0 q 603 210 636 106 q 542 419 569 314 m 760 896 l 683 804 l 544 911 l 406 804 l 326 896 l 544 1086 l 760 896 z "},"Ŷ":{"ha":918,"x_min":7,"x_max":911,"o":"m 464 567 q 575 764 522 665 q 672 963 628 863 l 911 963 q 747 661 832 807 q 568 368 663 515 l 568 0 l 351 0 l 351 365 q 172 660 257 513 q 7 963 86 807 l 258 963 q 354 764 303 863 q 464 567 406 665 m 676 1126 l 600 1035 l 461 1142 l 322 1035 l 243 1126 l 461 1317 l 676 1126 z "},"ŷ":{"ha":760,"x_min":7,"x_max":746,"o":"m 746 731 q 615 335 683 519 q 467 -24 547 150 q 408 -130 438 -86 q 344 -202 379 -174 q 266 -244 310 -231 q 164 -257 222 -257 q 74 -248 115 -257 q 7 -228 33 -239 l 43 -62 q 100 -78 75 -74 q 153 -82 125 -82 q 238 -52 208 -82 q 289 31 268 -22 q 147 342 218 169 q 14 731 76 515 l 233 731 q 266 613 247 676 q 306 485 285 550 q 348 360 326 421 q 389 249 369 299 q 426 360 407 299 q 465 485 446 421 q 501 613 483 550 q 532 731 518 676 l 746 731 m 596 896 l 519 804 l 381 911 l 242 804 l 163 896 l 381 1086 l 596 896 z "},"Ź":{"ha":847,"x_min":49,"x_max":806,"o":"m 790 813 q 685 694 746 767 q 558 535 624 621 q 429 357 493 449 q 315 182 365 265 l 806 182 l 806 0 l 49 0 l 49 129 q 144 287 88 200 q 261 462 200 374 q 385 633 322 550 q 503 781 449 715 l 71 781 l 71 963 l 790 963 l 790 813 m 613 1215 l 383 1022 l 289 1107 l 486 1332 l 613 1215 z "},"ź":{"ha":694,"x_min":49,"x_max":653,"o":"m 646 592 q 578 517 621 564 q 488 413 536 469 q 390 293 439 356 q 300 172 340 231 l 653 172 l 653 0 l 49 0 l 49 122 q 119 230 78 172 q 205 346 160 288 q 294 459 250 404 q 376 558 339 514 l 65 558 l 65 731 l 646 731 l 646 592 m 538 993 l 308 800 l 214 885 l 411 1110 l 538 993 z "},"Ż":{"ha":847,"x_min":49,"x_max":806,"o":"m 790 813 q 685 694 746 767 q 558 535 624 621 q 429 357 493 449 q 315 182 365 265 l 806 182 l 806 0 l 49 0 l 49 129 q 144 287 88 200 q 261 462 200 374 q 385 633 322 550 q 503 781 449 715 l 71 781 l 71 963 l 790 963 l 790 813 m 424 1056 q 347 1085 379 1056 q 314 1164 314 1114 q 347 1243 314 1214 q 424 1272 379 1272 q 501 1243 468 1272 q 533 1164 533 1214 q 501 1085 533 1114 q 424 1056 468 1056 z "},"ż":{"ha":694,"x_min":49,"x_max":653,"o":"m 646 592 q 578 517 621 564 q 488 413 536 469 q 390 293 439 356 q 300 172 340 231 l 653 172 l 653 0 l 49 0 l 49 122 q 119 230 78 172 q 205 346 160 288 q 294 459 250 404 q 376 558 339 514 l 65 558 l 65 731 l 646 731 l 646 592 m 347 833 q 270 863 303 833 q 238 942 238 892 q 270 1021 238 992 q 347 1050 303 1050 q 424 1021 392 1050 q 457 942 457 992 q 424 863 457 892 q 347 833 392 833 z "},"Ž":{"ha":847,"x_min":49,"x_max":806,"o":"m 790 813 q 685 694 746 767 q 558 535 624 621 q 429 357 493 449 q 315 182 365 265 l 806 182 l 806 0 l 49 0 l 49 129 q 144 287 88 200 q 261 462 200 374 q 385 633 322 550 q 503 781 449 715 l 71 781 l 71 963 l 790 963 l 790 813 m 217 1228 l 293 1319 l 432 1213 l 571 1319 l 650 1228 l 432 1038 l 217 1228 z "},"ž":{"ha":694,"x_min":49,"x_max":653,"o":"m 646 592 q 578 517 621 564 q 488 413 536 469 q 390 293 439 356 q 300 172 340 231 l 653 172 l 653 0 l 49 0 l 49 122 q 119 230 78 172 q 205 346 160 288 q 294 459 250 404 q 376 558 339 514 l 65 558 l 65 731 l 646 731 l 646 592 m 142 1004 l 218 1096 l 357 989 l 496 1096 l 575 1004 l 357 814 l 142 1004 z "},"ſ":{"ha":457,"x_min":97,"x_max":596,"o":"m 414 1078 q 521 1066 472 1078 q 596 1043 569 1054 l 556 878 q 495 897 528 890 q 435 903 463 903 q 372 892 397 903 q 331 864 346 882 q 310 821 317 846 q 304 767 304 796 l 304 0 l 97 0 l 97 769 q 177 994 97 911 q 414 1078 257 1078 z "},"Ș":{"ha":808,"x_min":51,"x_max":753,"o":"m 374 165 q 449 173 419 165 q 497 194 479 181 q 522 225 515 207 q 529 265 529 243 q 485 344 529 313 q 332 411 440 375 q 238 449 285 428 q 153 503 190 471 q 92 583 115 536 q 68 696 68 629 q 93 816 68 763 q 164 907 118 869 q 275 965 210 944 q 422 985 340 985 q 590 964 519 985 q 707 918 661 943 l 644 747 q 555 784 604 768 q 436 800 506 800 q 324 778 358 800 q 290 713 290 757 q 303 668 290 686 q 338 635 315 650 q 391 609 361 621 q 457 585 421 597 q 588 530 532 557 q 680 467 643 503 q 735 382 717 431 q 753 264 753 333 q 658 55 753 129 q 374 -19 564 -19 q 258 -12 310 -19 q 167 7 207 -4 q 99 31 128 18 q 51 54 71 43 l 113 226 q 219 184 156 203 q 374 165 282 165 m 329 -72 l 493 -72 q 497 -103 496 -87 q 497 -124 497 -118 q 481 -211 497 -176 q 436 -267 464 -246 q 373 -297 408 -287 q 300 -306 338 -306 q 258 -303 279 -306 q 229 -297 238 -300 l 229 -181 q 269 -178 250 -181 q 301 -166 288 -175 q 322 -140 314 -157 q 329 -92 329 -122 l 329 -72 z "},"ș":{"ha":674,"x_min":54,"x_max":617,"o":"m 307 149 q 388 160 364 149 q 411 203 411 171 q 381 247 411 228 q 288 289 350 265 q 199 326 239 307 q 132 373 160 346 q 89 438 104 400 q 74 528 74 475 q 150 690 74 631 q 360 750 226 750 q 488 738 426 750 q 585 713 549 726 l 549 551 q 470 574 513 564 q 375 583 428 583 q 278 529 278 583 q 282 507 278 517 q 299 488 286 497 q 333 469 311 479 q 388 446 354 458 q 500 397 456 421 q 570 344 544 372 q 606 281 596 315 q 617 200 617 246 q 535 36 617 92 q 306 -19 454 -19 q 144 -3 208 -19 q 54 25 79 14 l 89 193 q 197 160 142 172 q 307 149 253 149 m 260 -72 l 424 -72 q 427 -103 426 -87 q 428 -124 428 -118 q 411 -211 428 -176 q 367 -267 394 -246 q 303 -297 339 -287 q 231 -306 268 -306 q 189 -303 210 -306 q 160 -297 168 -300 l 160 -181 q 199 -178 181 -181 q 231 -166 218 -175 q 252 -140 244 -157 q 260 -92 260 -122 l 260 -72 z "},"Ț":{"ha":853,"x_min":28,"x_max":825,"o":"m 825 963 l 825 778 l 535 778 l 535 0 l 318 0 l 318 778 l 28 778 l 28 963 l 825 963 m 342 -72 l 506 -72 q 509 -103 508 -87 q 510 -124 510 -118 q 493 -211 510 -176 q 449 -267 476 -246 q 385 -297 421 -287 q 313 -306 350 -306 q 271 -303 292 -306 q 242 -297 250 -300 l 242 -181 q 281 -178 263 -181 q 313 -166 300 -175 q 334 -140 326 -157 q 342 -92 342 -122 l 342 -72 z "},"ț":{"ha":617,"x_min":90,"x_max":575,"o":"m 90 913 l 297 946 l 297 731 l 546 731 l 546 558 l 297 558 l 297 301 q 320 197 297 236 q 413 158 343 158 q 481 165 446 158 q 546 182 517 171 l 575 21 q 492 -6 538 6 q 379 -17 446 -17 q 239 6 294 -17 q 150 70 183 29 q 103 169 117 111 q 90 299 90 228 l 90 913 m 272 -72 l 436 -72 q 440 -103 439 -87 q 440 -124 440 -118 q 424 -211 440 -176 q 379 -267 407 -246 q 316 -297 351 -287 q 243 -306 281 -306 q 201 -303 222 -306 q 172 -297 181 -300 l 172 -181 q 212 -178 193 -181 q 244 -166 231 -175 q 265 -140 257 -157 q 272 -92 272 -122 l 272 -72 z "},"ȷ":{"ha":401,"x_min":-100,"x_max":304,"o":"m 29 -257 q -28 -253 10 -257 q -100 -237 -67 -249 l -72 -69 q -34 -79 -51 -76 q 10 -82 -17 -82 q 78 -53 58 -82 q 97 32 97 -24 l 97 731 l 304 731 l 304 26 q 233 -187 304 -118 q 29 -257 163 -257 z "},"ʼ":{"ha":378,"x_min":89,"x_max":318,"o":"m 318 1078 q 318 1047 318 1060 q 317 1018 318 1035 q 288 872 311 932 q 224 750 264 811 l 89 788 q 130 903 118 850 q 142 1015 142 956 q 141 1049 142 1032 q 138 1078 140 1067 l 318 1078 z "},"ˇ":{"ha":539,"x_min":63,"x_max":496,"o":"m 63 1004 l 139 1096 l 278 989 l 417 1096 l 496 1004 l 278 814 l 63 1004 z "},"ˉ":{"ha":522,"x_min":38,"x_max":485,"o":"m 38 1007 l 485 1007 l 485 865 l 38 865 l 38 1007 z "},"˘":{"ha":569,"x_min":60,"x_max":510,"o":"m 285 831 q 195 846 236 831 q 124 889 154 861 q 77 958 94 917 q 60 1050 60 999 l 60 1061 l 200 1061 q 228 983 204 1003 q 285 963 251 963 q 342 983 318 963 q 369 1061 365 1003 l 510 1061 l 510 1050 q 492 958 510 999 q 445 889 475 917 q 374 846 415 861 q 285 831 332 831 z "},"˙":{"ha":342,"x_min":61,"x_max":281,"o":"m 171 833 q 94 863 126 833 q 61 942 61 892 q 94 1021 61 992 q 171 1050 126 1050 q 248 1021 215 1050 q 281 942 281 992 q 248 863 281 892 q 171 833 215 833 z "},"˚":{"ha":450,"x_min":61,"x_max":389,"o":"m 389 971 q 376 902 389 932 q 340 852 363 872 q 287 822 317 832 q 224 811 257 811 q 163 822 192 811 q 110 852 133 832 q 74 902 88 872 q 61 971 61 932 q 74 1040 61 1010 q 110 1090 88 1069 q 163 1120 133 1110 q 224 1131 192 1131 q 287 1120 257 1131 q 340 1090 317 1110 q 376 1040 363 1069 q 389 971 389 1010 m 288 971 q 268 1019 288 1003 q 224 1036 249 1036 q 181 1019 200 1036 q 161 971 161 1003 q 181 922 161 939 q 224 906 200 906 q 268 922 249 906 q 288 971 288 939 z "},"˛":{"ha":433,"x_min":71,"x_max":382,"o":"m 244 -307 q 111 -273 151 -307 q 71 -181 71 -239 q 83 -124 71 -151 q 117 -69 96 -96 q 167 -18 140 -40 q 217 21 193 4 l 379 21 q 340 -12 365 10 q 292 -57 315 -33 q 263 -91 274 -75 q 253 -122 253 -107 q 262 -147 253 -137 q 294 -157 271 -157 q 324 -155 307 -157 q 365 -146 342 -153 l 382 -285 q 315 -301 354 -296 q 244 -307 276 -307 z "},"˝":{"ha":603,"x_min":54,"x_max":622,"o":"m 342 1013 l 147 801 l 54 872 l 221 1110 l 342 1013 m 622 1013 l 428 801 l 335 872 l 501 1110 l 622 1013 z "},"Ẁ":{"ha":1317,"x_min":28,"x_max":1289,"o":"m 757 860 q 794 731 774 803 q 837 583 814 660 q 883 431 860 507 q 929 289 907 354 q 966 443 947 360 q 1001 615 985 526 q 1034 792 1018 704 q 1064 963 1050 881 l 1289 963 q 1177 472 1240 721 q 1040 0 1114 224 l 842 0 q 747 280 793 133 q 657 574 701 426 q 568 280 613 426 q 475 0 524 133 l 276 0 q 140 472 203 224 q 28 963 76 721 l 263 963 q 293 792 276 881 q 328 615 310 704 q 365 443 346 526 q 403 289 383 360 q 451 433 428 357 q 497 586 475 510 q 538 733 519 663 q 572 860 557 804 l 757 860 m 614 1329 l 811 1104 l 717 1019 l 488 1213 l 614 1329 z "},"ẁ":{"ha":1089,"x_min":14,"x_max":1075,"o":"m 542 419 q 483 210 514 314 q 417 0 451 106 l 256 0 q 201 139 231 58 q 141 315 172 219 q 77 516 110 410 q 14 731 44 622 l 232 731 q 256 622 243 681 q 284 500 269 563 q 315 374 299 438 q 347 253 331 311 q 383 378 365 314 q 416 503 400 442 q 447 623 432 565 q 472 731 461 681 l 622 731 q 647 623 633 681 q 676 503 661 565 q 708 378 692 442 q 743 253 725 314 q 776 374 760 311 q 808 500 793 438 q 835 622 822 563 q 860 731 849 681 l 1075 731 q 1012 516 1044 622 q 948 315 979 410 q 887 139 917 219 q 832 0 857 58 l 671 0 q 603 210 636 106 q 542 419 569 314 m 486 1110 l 683 885 l 589 800 l 360 993 l 486 1110 z "},"Ẃ":{"ha":1317,"x_min":28,"x_max":1289,"o":"m 757 860 q 794 731 774 803 q 837 583 814 660 q 883 431 860 507 q 929 289 907 354 q 966 443 947 360 q 1001 615 985 526 q 1034 792 1018 704 q 1064 963 1050 881 l 1289 963 q 1177 472 1240 721 q 1040 0 1114 224 l 842 0 q 747 280 793 133 q 657 574 701 426 q 568 280 613 426 q 475 0 524 133 l 276 0 q 140 472 203 224 q 28 963 76 721 l 263 963 q 293 792 276 881 q 328 615 310 704 q 365 443 346 526 q 403 289 383 360 q 451 433 428 357 q 497 586 475 510 q 538 733 519 663 q 572 860 557 804 l 757 860 m 819 1213 l 590 1019 l 496 1104 l 693 1329 l 819 1213 z "},"ẃ":{"ha":1089,"x_min":14,"x_max":1075,"o":"m 542 419 q 483 210 514 314 q 417 0 451 106 l 256 0 q 201 139 231 58 q 141 315 172 219 q 77 516 110 410 q 14 731 44 622 l 232 731 q 256 622 243 681 q 284 500 269 563 q 315 374 299 438 q 347 253 331 311 q 383 378 365 314 q 416 503 400 442 q 447 623 432 565 q 472 731 461 681 l 622 731 q 647 623 633 681 q 676 503 661 565 q 708 378 692 442 q 743 253 725 314 q 776 374 760 311 q 808 500 793 438 q 835 622 822 563 q 860 731 849 681 l 1075 731 q 1012 516 1044 622 q 948 315 979 410 q 887 139 917 219 q 832 0 857 58 l 671 0 q 603 210 636 106 q 542 419 569 314 m 733 993 l 504 800 l 410 885 l 607 1110 l 733 993 z "},"Ẅ":{"ha":1317,"x_min":28,"x_max":1289,"o":"m 757 860 q 794 731 774 803 q 837 583 814 660 q 883 431 860 507 q 929 289 907 354 q 966 443 947 360 q 1001 615 985 526 q 1034 792 1018 704 q 1064 963 1050 881 l 1289 963 q 1177 472 1240 721 q 1040 0 1114 224 l 842 0 q 747 280 793 133 q 657 574 701 426 q 568 280 613 426 q 475 0 524 133 l 276 0 q 140 472 203 224 q 28 963 76 721 l 263 963 q 293 792 276 881 q 328 615 310 704 q 365 443 346 526 q 403 289 383 360 q 451 433 428 357 q 497 586 475 510 q 538 733 519 663 q 572 860 557 804 l 757 860 m 504 1044 q 429 1073 461 1044 q 397 1150 397 1101 q 429 1227 397 1199 q 504 1256 461 1256 q 579 1227 547 1256 q 611 1150 611 1199 q 579 1073 611 1101 q 504 1044 547 1044 m 814 1044 q 739 1073 771 1044 q 707 1150 707 1101 q 739 1227 707 1199 q 814 1256 771 1256 q 889 1227 857 1256 q 921 1150 921 1199 q 889 1073 921 1101 q 814 1044 857 1044 z "},"ẅ":{"ha":1089,"x_min":14,"x_max":1075,"o":"m 542 419 q 483 210 514 314 q 417 0 451 106 l 256 0 q 201 139 231 58 q 141 315 172 219 q 77 516 110 410 q 14 731 44 622 l 232 731 q 256 622 243 681 q 284 500 269 563 q 315 374 299 438 q 347 253 331 311 q 383 378 365 314 q 416 503 400 442 q 447 623 432 565 q 472 731 461 681 l 622 731 q 647 623 633 681 q 676 503 661 565 q 708 378 692 442 q 743 253 725 314 q 776 374 760 311 q 808 500 793 438 q 835 622 822 563 q 860 731 849 681 l 1075 731 q 1012 516 1044 622 q 948 315 979 410 q 887 139 917 219 q 832 0 857 58 l 671 0 q 603 210 636 106 q 542 419 569 314 m 381 836 q 306 865 338 836 q 274 942 274 893 q 306 1019 274 990 q 381 1047 338 1047 q 456 1019 424 1047 q 488 942 488 990 q 456 865 488 893 q 381 836 424 836 m 690 836 q 615 865 647 836 q 583 942 583 893 q 615 1019 583 990 q 690 1047 647 1047 q 765 1019 733 1047 q 797 942 797 990 q 765 865 797 893 q 690 836 733 836 z "},"Ỳ":{"ha":918,"x_min":7,"x_max":911,"o":"m 464 567 q 575 764 522 665 q 672 963 628 863 l 911 963 q 747 661 832 807 q 568 368 663 515 l 568 0 l 351 0 l 351 365 q 172 660 257 513 q 7 963 86 807 l 258 963 q 354 764 303 863 q 464 567 406 665 m 386 1332 l 583 1107 l 489 1022 l 260 1215 l 386 1332 z "},"ỳ":{"ha":760,"x_min":7,"x_max":746,"o":"m 746 731 q 615 335 683 519 q 467 -24 547 150 q 408 -130 438 -86 q 344 -202 379 -174 q 266 -244 310 -231 q 164 -257 222 -257 q 74 -248 115 -257 q 7 -228 33 -239 l 43 -62 q 100 -78 75 -74 q 153 -82 125 -82 q 238 -52 208 -82 q 289 31 268 -22 q 147 342 218 169 q 14 731 76 515 l 233 731 q 266 613 247 676 q 306 485 285 550 q 348 360 326 421 q 389 249 369 299 q 426 360 407 299 q 465 485 446 421 q 501 613 483 550 q 532 731 518 676 l 746 731 m 283 1110 l 481 885 l 386 800 l 157 993 l 283 1110 z "},"⁄":{"ha":211,"x_min":-236,"x_max":449,"o":"m 449 963 l -44 0 l -236 0 l 260 963 l 449 963 z "},"⁰":{"ha":504,"x_min":21,"x_max":483,"o":"m 21 697 q 81 910 21 835 q 253 985 142 985 q 423 910 363 985 q 483 697 483 835 q 423 483 483 558 q 253 408 363 408 q 81 483 142 408 q 21 697 21 558 m 335 697 q 318 815 335 769 q 254 860 301 860 q 188 815 207 860 q 169 697 169 769 q 188 578 169 624 q 254 533 207 533 q 318 578 301 533 q 335 697 335 624 z "},"⁴":{"ha":504,"x_min":28,"x_max":482,"o":"m 418 974 l 418 653 l 482 653 l 482 538 l 418 538 l 418 418 l 288 418 l 288 538 l 28 538 l 28 638 q 147 816 86 736 q 281 974 207 896 l 418 974 m 288 819 q 227 742 256 783 q 174 653 199 701 l 288 653 l 288 819 z "},"⁵":{"ha":504,"x_min":36,"x_max":453,"o":"m 453 596 q 441 521 453 556 q 401 461 429 486 q 329 422 374 436 q 221 408 285 408 q 121 417 172 408 q 36 443 69 426 l 68 567 q 96 556 82 561 q 126 547 110 551 q 161 541 142 543 q 207 539 181 539 q 296 594 296 539 q 281 631 296 618 q 239 651 267 644 q 169 658 211 657 q 72 660 128 660 q 81 741 76 696 q 90 830 86 786 q 97 912 94 874 q 103 974 100 950 l 432 974 l 432 847 l 219 847 q 217 809 218 833 q 213 769 215 785 q 326 756 281 768 q 400 721 372 743 q 440 667 428 699 q 453 596 453 635 z "},"⁶":{"ha":504,"x_min":43,"x_max":467,"o":"m 249 665 q 213 661 232 665 q 185 651 194 657 q 264 528 176 528 q 314 549 299 528 q 329 596 329 569 q 311 648 329 631 q 249 665 293 665 m 276 767 q 364 754 328 767 q 423 719 400 742 q 456 667 446 697 q 467 600 467 636 q 454 528 467 563 q 417 467 442 493 q 353 424 392 440 q 261 408 314 408 q 98 470 153 408 q 43 646 43 532 q 69 783 43 722 q 144 886 94 843 q 263 952 193 929 q 422 975 333 975 l 429 851 q 276 823 331 847 q 194 751 222 799 q 231 762 208 757 q 276 767 253 767 z "},"⁷":{"ha":504,"x_min":42,"x_max":468,"o":"m 129 419 q 188 656 149 556 q 289 840 226 756 l 42 840 l 42 974 l 468 974 l 468 857 q 412 778 440 825 q 358 674 383 731 q 315 551 333 617 q 288 419 296 486 l 129 419 z "},"⁸":{"ha":504,"x_min":29,"x_max":476,"o":"m 476 574 q 464 507 476 538 q 424 455 451 476 q 355 421 397 433 q 251 408 313 408 q 139 424 182 408 q 72 463 96 439 q 38 513 47 486 q 29 564 29 540 q 54 644 29 613 q 115 699 79 675 q 60 754 76 726 q 43 824 43 782 q 56 885 43 856 q 94 936 68 914 q 160 972 121 958 q 253 985 200 985 q 354 971 314 985 q 419 935 394 957 q 453 886 443 913 q 463 833 463 860 q 441 763 463 796 q 385 711 419 731 q 456 649 436 681 q 476 574 476 617 m 175 574 q 192 535 175 554 q 253 517 208 517 q 313 535 296 517 q 331 574 331 553 q 302 628 331 608 q 226 657 274 647 q 189 622 203 642 q 175 574 175 601 m 321 825 q 306 860 321 842 q 254 878 290 878 q 203 860 218 878 q 188 825 188 842 q 205 781 188 801 q 267 746 222 760 q 308 779 294 761 q 321 825 321 797 z "},"⁹":{"ha":504,"x_min":42,"x_max":465,"o":"m 261 731 q 297 735 278 731 q 325 744 315 739 q 249 868 333 868 q 197 849 214 868 q 181 803 181 829 q 199 749 181 768 q 261 731 217 731 m 232 626 q 144 640 181 626 q 85 676 108 653 q 52 730 63 699 q 42 797 42 761 q 54 867 42 833 q 92 927 67 901 q 156 969 117 953 q 247 985 194 985 q 410 922 356 985 q 465 747 465 858 q 374 506 465 594 q 86 418 282 418 l 79 542 q 239 569 186 544 q 315 642 292 593 q 278 631 301 636 q 232 626 256 626 z "},"₀":{"ha":504,"x_min":21,"x_max":483,"o":"m 21 281 q 81 493 21 418 q 253 568 142 568 q 423 493 363 568 q 483 281 483 418 q 423 67 483 142 q 253 -8 363 -8 q 81 67 142 -8 q 21 281 21 142 m 335 281 q 318 398 335 353 q 254 443 301 443 q 188 398 207 443 q 169 281 169 353 q 188 162 169 207 q 254 117 207 117 q 318 162 301 117 q 335 281 335 207 z "},"₁":{"ha":504,"x_min":53,"x_max":382,"o":"m 53 442 q 166 495 111 465 q 261 557 221 525 l 382 557 l 382 3 l 224 3 l 224 378 q 167 349 196 363 q 96 321 138 336 l 53 442 z "},"₂":{"ha":504,"x_min":22,"x_max":447,"o":"m 433 397 q 424 342 433 367 q 398 295 414 317 q 361 255 382 274 q 319 218 340 236 q 271 174 296 199 q 231 129 246 150 l 447 129 l 447 3 l 49 3 q 47 23 47 14 q 47 42 47 32 q 84 165 47 110 q 192 279 121 219 q 252 335 229 311 q 275 383 275 358 q 263 417 275 404 q 226 429 250 429 q 152 413 186 429 q 94 378 118 397 l 22 486 q 115 542 58 517 q 233 568 171 568 q 326 556 288 568 q 388 520 364 543 q 422 466 411 497 q 433 397 433 435 z "},"₃":{"ha":504,"x_min":24,"x_max":444,"o":"m 207 122 q 275 137 256 122 q 294 174 294 151 q 197 231 294 231 l 140 231 l 140 344 l 197 344 q 250 357 229 344 q 271 394 271 369 q 210 439 271 439 q 146 428 178 439 q 85 404 114 418 l 32 514 q 119 552 67 536 q 221 568 171 568 q 315 556 276 568 q 376 522 353 543 q 408 472 399 500 q 418 413 418 443 q 405 357 418 383 q 360 306 392 331 q 424 250 404 285 q 444 172 444 215 q 432 101 444 135 q 392 44 419 68 q 319 6 364 19 q 208 -8 274 -8 q 159 -6 185 -8 q 108 3 133 -3 q 62 15 83 8 q 24 29 40 21 l 56 153 q 135 128 103 133 q 207 122 168 122 z "},"₄":{"ha":504,"x_min":28,"x_max":482,"o":"m 418 557 l 418 236 l 482 236 l 482 121 l 418 121 l 418 1 l 288 1 l 288 121 l 28 121 l 28 221 q 147 399 86 319 q 281 557 207 479 l 418 557 m 288 403 q 227 326 256 367 q 174 236 199 285 l 288 236 l 288 403 z "},"₅":{"ha":504,"x_min":36,"x_max":453,"o":"m 453 179 q 441 104 453 139 q 401 44 429 69 q 329 6 374 19 q 221 -8 285 -8 q 121 1 172 -8 q 36 26 69 10 l 68 150 q 96 140 82 144 q 126 131 110 135 q 161 124 142 126 q 207 122 181 122 q 296 178 296 122 q 281 215 296 201 q 239 234 267 228 q 169 242 211 240 q 72 243 128 243 q 81 324 76 279 q 90 413 86 369 q 97 495 94 457 q 103 557 100 533 l 432 557 l 432 431 l 219 431 q 217 392 218 417 q 213 353 215 368 q 326 339 281 351 q 400 304 372 326 q 440 250 428 282 q 453 179 453 218 z "},"₆":{"ha":504,"x_min":43,"x_max":467,"o":"m 249 249 q 213 244 232 249 q 185 235 194 240 q 264 111 176 111 q 314 132 299 111 q 329 179 329 153 q 311 231 329 214 q 249 249 293 249 m 276 350 q 364 338 328 350 q 423 303 400 325 q 456 250 446 281 q 467 183 467 219 q 454 111 467 146 q 417 50 442 76 q 353 8 392 24 q 261 -8 314 -8 q 98 53 153 -8 q 43 229 43 115 q 69 366 43 306 q 144 469 94 426 q 263 535 193 513 q 422 558 333 558 l 429 435 q 276 406 331 431 q 194 335 222 382 q 231 345 208 340 q 276 350 253 350 z "},"₇":{"ha":504,"x_min":42,"x_max":468,"o":"m 129 3 q 188 239 149 139 q 289 424 226 339 l 42 424 l 42 557 l 468 557 l 468 440 q 412 361 440 408 q 358 257 383 314 q 315 135 333 200 q 288 3 296 69 l 129 3 z "},"₈":{"ha":504,"x_min":29,"x_max":476,"o":"m 476 157 q 464 90 476 121 q 424 38 451 60 q 355 4 397 17 q 251 -8 313 -8 q 139 7 182 -8 q 72 46 96 22 q 38 97 47 69 q 29 147 29 124 q 54 227 29 196 q 115 282 79 258 q 60 338 76 310 q 43 407 43 365 q 56 468 43 439 q 94 519 68 497 q 160 555 121 542 q 253 568 200 568 q 354 554 314 568 q 419 518 394 540 q 453 469 443 496 q 463 417 463 443 q 441 347 463 379 q 385 294 419 314 q 456 232 436 264 q 476 157 476 200 m 175 157 q 192 119 175 138 q 253 100 208 100 q 313 118 296 100 q 331 157 331 136 q 302 211 331 192 q 226 240 274 231 q 189 205 203 225 q 175 157 175 185 m 321 408 q 306 443 321 425 q 254 461 290 461 q 203 443 218 461 q 188 408 188 425 q 205 364 188 385 q 267 329 222 343 q 308 363 294 344 q 321 408 321 381 z "},"₉":{"ha":504,"x_min":42,"x_max":465,"o":"m 261 314 q 297 318 278 314 q 325 328 315 322 q 249 451 333 451 q 197 432 214 451 q 181 386 181 413 q 199 333 181 351 q 261 314 217 314 m 232 210 q 144 223 181 210 q 85 259 108 236 q 52 313 63 282 q 42 381 42 344 q 54 451 42 417 q 92 510 67 485 q 156 552 117 536 q 247 568 194 568 q 410 505 356 568 q 465 331 465 442 q 374 90 465 178 q 86 1 282 1 l 79 125 q 239 152 186 128 q 315 225 292 176 q 278 215 301 219 q 232 210 256 210 z "},"ℓ":{"ha":751,"x_min":36,"x_max":703,"o":"m 703 85 q 582 8 650 35 q 431 -19 514 -19 q 246 36 313 -19 q 165 214 179 92 l 103 169 l 36 269 q 101 319 69 296 q 163 367 132 342 l 163 700 q 235 987 163 896 q 431 1078 308 1078 q 531 1057 489 1078 q 602 1001 574 1036 q 644 918 631 965 q 657 818 657 871 q 577 575 657 692 q 354 332 497 458 l 354 286 q 472 156 354 156 q 550 174 511 156 q 618 218 589 193 l 703 85 m 354 517 q 472 675 426 594 q 517 824 517 756 q 500 906 517 878 q 442 933 483 933 q 409 924 425 933 q 381 890 393 914 q 362 824 369 865 q 354 722 354 783 l 354 517 z "},"℮":{"ha":1300,"x_min":93,"x_max":1207,"o":"m 304 468 q 297 463 297 468 l 297 189 q 310 158 297 171 q 463 49 376 88 q 650 10 549 10 q 851 55 760 10 q 1010 175 943 100 l 1089 175 q 1005 95 1053 131 q 900 35 957 60 q 779 -4 843 10 q 649 -18 715 -18 q 432 22 533 -18 q 256 128 331 61 q 137 287 181 196 q 93 482 93 378 q 137 677 93 586 q 256 836 181 768 q 432 944 331 904 q 649 983 533 983 q 866 944 764 983 q 1044 836 968 904 q 1163 677 1119 768 q 1207 482 1207 586 l 1207 468 l 304 468 m 1001 778 q 989 811 1001 796 q 836 915 922 878 q 650 953 750 953 q 464 913 551 953 q 311 806 376 872 q 301 791 304 800 q 297 772 297 782 l 297 504 q 304 494 297 494 l 996 494 q 1001 504 1001 494 l 1001 778 z "},"⅓":{"ha":1219,"x_min":28,"x_max":1160,"o":"m 28 858 q 141 912 86 882 q 236 974 196 942 l 357 974 l 357 419 l 199 419 l 199 794 q 142 766 171 779 q 71 738 113 753 l 28 858 m 903 963 l 410 0 l 218 0 l 714 963 l 903 963 m 922 122 q 990 137 971 122 q 1010 174 1010 151 q 913 231 1010 231 l 856 231 l 856 344 l 913 344 q 965 357 944 344 q 986 394 986 369 q 925 439 986 439 q 861 428 893 439 q 800 404 829 418 l 747 514 q 834 552 782 536 q 936 568 886 568 q 1030 556 992 568 q 1091 522 1068 543 q 1124 472 1114 500 q 1133 413 1133 443 q 1120 357 1133 383 q 1075 306 1107 331 q 1140 250 1119 285 q 1160 172 1160 215 q 1147 101 1160 135 q 1107 44 1135 68 q 1034 6 1079 19 q 924 -8 989 -8 q 874 -6 900 -8 q 824 3 849 -3 q 777 15 799 8 q 739 29 756 21 l 771 153 q 851 128 818 133 q 922 122 883 122 z "},"⅔":{"ha":1219,"x_min":22,"x_max":1160,"o":"m 433 814 q 424 758 433 783 q 398 712 414 733 q 361 672 382 690 q 319 635 340 653 q 271 591 296 615 q 231 546 246 567 l 447 546 l 447 419 l 49 419 q 47 440 47 431 q 47 458 47 449 q 84 581 47 526 q 192 696 121 636 q 252 751 229 728 q 275 800 275 775 q 263 833 275 821 q 226 846 250 846 q 152 830 186 846 q 94 794 118 814 l 22 903 q 115 959 58 933 q 233 985 171 985 q 326 972 288 985 q 388 937 364 960 q 422 883 411 914 q 433 814 433 851 m 950 963 l 457 0 l 265 0 l 761 963 l 950 963 m 922 122 q 990 137 971 122 q 1010 174 1010 151 q 913 231 1010 231 l 856 231 l 856 344 l 913 344 q 965 357 944 344 q 986 394 986 369 q 925 439 986 439 q 861 428 893 439 q 800 404 829 418 l 747 514 q 834 552 782 536 q 936 568 886 568 q 1030 556 992 568 q 1091 522 1068 543 q 1124 472 1114 500 q 1133 413 1133 443 q 1120 357 1133 383 q 1075 306 1107 331 q 1140 250 1119 285 q 1160 172 1160 215 q 1147 101 1160 135 q 1107 44 1135 68 q 1034 6 1079 19 q 924 -8 989 -8 q 874 -6 900 -8 q 824 3 849 -3 q 777 15 799 8 q 739 29 756 21 l 771 153 q 851 128 818 133 q 922 122 883 122 z "},"⅛":{"ha":1219,"x_min":28,"x_max":1192,"o":"m 28 858 q 141 912 86 882 q 236 974 196 942 l 357 974 l 357 419 l 199 419 l 199 794 q 142 766 171 779 q 71 738 113 753 l 28 858 m 911 963 l 418 0 l 226 0 l 722 963 l 911 963 m 1192 157 q 1179 90 1192 121 q 1140 38 1167 60 q 1070 4 1113 17 q 967 -8 1028 -8 q 854 7 897 -8 q 787 46 811 22 q 753 97 763 69 q 744 147 744 124 q 769 227 744 196 q 831 282 794 258 q 775 338 792 310 q 758 407 758 365 q 771 468 758 439 q 810 519 783 497 q 876 555 836 542 q 968 568 915 568 q 1069 554 1029 568 q 1134 518 1110 540 q 1168 469 1158 496 q 1178 417 1178 443 q 1156 347 1178 379 q 1100 294 1135 314 q 1172 232 1151 264 q 1192 157 1192 200 m 890 157 q 907 119 890 138 q 968 100 924 100 q 1028 118 1011 100 q 1046 157 1046 136 q 1017 211 1046 192 q 942 240 989 231 q 904 205 918 225 q 890 157 890 185 m 1036 408 q 1021 443 1036 425 q 969 461 1006 461 q 918 443 933 461 q 903 408 903 425 q 920 364 903 385 q 982 329 938 343 q 1023 363 1010 344 q 1036 408 1036 381 z "},"⅜":{"ha":1219,"x_min":32,"x_max":1192,"o":"m 215 539 q 283 553 264 539 q 303 590 303 568 q 206 647 303 647 l 149 647 l 149 761 l 206 761 q 258 774 238 761 q 279 811 279 786 q 218 856 279 856 q 154 845 186 856 q 93 821 122 835 l 40 931 q 127 969 75 953 q 229 985 179 985 q 323 972 285 985 q 384 938 361 960 q 417 888 407 917 q 426 829 426 860 q 413 774 426 800 q 368 722 400 747 q 433 667 413 701 q 453 589 453 632 q 440 518 453 551 q 400 460 428 485 q 327 422 372 436 q 217 408 282 408 q 167 411 193 408 q 117 419 142 414 q 70 431 92 425 q 32 446 49 438 l 64 569 q 144 544 111 550 q 215 539 176 539 m 939 963 l 446 0 l 254 0 l 750 963 l 939 963 m 1192 157 q 1179 90 1192 121 q 1140 38 1167 60 q 1070 4 1113 17 q 967 -8 1028 -8 q 854 7 897 -8 q 787 46 811 22 q 753 97 763 69 q 744 147 744 124 q 769 227 744 196 q 831 282 794 258 q 775 338 792 310 q 758 407 758 365 q 771 468 758 439 q 810 519 783 497 q 876 555 836 542 q 968 568 915 568 q 1069 554 1029 568 q 1134 518 1110 540 q 1168 469 1158 496 q 1178 417 1178 443 q 1156 347 1178 379 q 1100 294 1135 314 q 1172 232 1151 264 q 1192 157 1192 200 m 890 157 q 907 119 890 138 q 968 100 924 100 q 1028 118 1011 100 q 1046 157 1046 136 q 1017 211 1046 192 q 942 240 989 231 q 904 205 918 225 q 890 157 890 185 m 1036 408 q 1021 443 1036 425 q 969 461 1006 461 q 918 443 933 461 q 903 408 903 425 q 920 364 903 385 q 982 329 938 343 q 1023 363 1010 344 q 1036 408 1036 381 z "},"⅝":{"ha":1219,"x_min":36,"x_max":1192,"o":"m 453 596 q 441 521 453 556 q 401 461 429 486 q 329 422 374 436 q 221 408 285 408 q 121 417 172 408 q 36 443 69 426 l 68 567 q 96 556 82 561 q 126 547 110 551 q 161 541 142 543 q 207 539 181 539 q 296 594 296 539 q 281 631 296 618 q 239 651 267 644 q 169 658 211 657 q 72 660 128 660 q 81 741 76 696 q 90 830 86 786 q 97 912 94 874 q 103 974 100 950 l 432 974 l 432 847 l 219 847 q 217 809 218 833 q 213 769 215 785 q 326 756 281 768 q 400 721 372 743 q 440 667 428 699 q 453 596 453 635 m 939 963 l 446 0 l 254 0 l 750 963 l 939 963 m 1192 157 q 1179 90 1192 121 q 1140 38 1167 60 q 1070 4 1113 17 q 967 -8 1028 -8 q 854 7 897 -8 q 787 46 811 22 q 753 97 763 69 q 744 147 744 124 q 769 227 744 196 q 831 282 794 258 q 775 338 792 310 q 758 407 758 365 q 771 468 758 439 q 810 519 783 497 q 876 555 836 542 q 968 568 915 568 q 1069 554 1029 568 q 1134 518 1110 540 q 1168 469 1158 496 q 1178 417 1178 443 q 1156 347 1178 379 q 1100 294 1135 314 q 1172 232 1151 264 q 1192 157 1192 200 m 890 157 q 907 119 890 138 q 968 100 924 100 q 1028 118 1011 100 q 1046 157 1046 136 q 1017 211 1046 192 q 942 240 989 231 q 904 205 918 225 q 890 157 890 185 m 1036 408 q 1021 443 1036 425 q 969 461 1006 461 q 918 443 933 461 q 903 408 903 425 q 920 364 903 385 q 982 329 938 343 q 1023 363 1010 344 q 1036 408 1036 381 z "},"⅞":{"ha":1219,"x_min":25,"x_max":1192,"o":"m 113 419 q 171 656 132 556 q 272 840 210 756 l 25 840 l 25 974 l 451 974 l 451 857 q 395 778 424 825 q 342 674 367 731 q 298 551 317 617 q 271 419 279 486 l 113 419 m 888 963 l 394 0 l 203 0 l 699 963 l 888 963 m 1192 157 q 1179 90 1192 121 q 1140 38 1167 60 q 1070 4 1113 17 q 967 -8 1028 -8 q 854 7 897 -8 q 787 46 811 22 q 753 97 763 69 q 744 147 744 124 q 769 227 744 196 q 831 282 794 258 q 775 338 792 310 q 758 407 758 365 q 771 468 758 439 q 810 519 783 497 q 876 555 836 542 q 968 568 915 568 q 1069 554 1029 568 q 1134 518 1110 540 q 1168 469 1158 496 q 1178 417 1178 443 q 1156 347 1178 379 q 1100 294 1135 314 q 1172 232 1151 264 q 1192 157 1192 200 m 890 157 q 907 119 890 138 q 968 100 924 100 q 1028 118 1011 100 q 1046 157 1046 136 q 1017 211 1046 192 q 942 240 989 231 q 904 205 918 225 q 890 157 890 185 m 1036 408 q 1021 443 1036 425 q 969 461 1006 461 q 918 443 933 461 q 903 408 903 425 q 920 364 903 385 q 982 329 938 343 q 1023 363 1010 344 q 1036 408 1036 381 z "},"⅕":{"ha":1219,"x_min":28,"x_max":1168,"o":"m 28 858 q 141 912 86 882 q 236 974 196 942 l 357 974 l 357 419 l 199 419 l 199 794 q 142 766 171 779 q 71 738 113 753 l 28 858 m 925 963 l 432 0 l 240 0 l 736 963 l 925 963 m 1168 179 q 1156 104 1168 139 q 1117 44 1144 69 q 1044 6 1089 19 q 936 -8 1000 -8 q 836 1 888 -8 q 751 26 785 10 l 783 150 q 811 140 797 144 q 841 131 825 135 q 876 124 857 126 q 922 122 896 122 q 1011 178 1011 122 q 997 215 1011 201 q 954 234 982 228 q 885 242 926 240 q 788 243 843 243 q 797 324 792 279 q 806 413 801 369 q 813 495 810 457 q 818 557 815 533 l 1147 557 l 1147 431 l 935 431 q 932 392 933 417 q 928 353 931 368 q 1042 339 996 351 q 1115 304 1088 326 q 1156 250 1143 282 q 1168 179 1168 218 z "},"⅖":{"ha":1219,"x_min":22,"x_max":1168,"o":"m 433 814 q 424 758 433 783 q 398 712 414 733 q 361 672 382 690 q 319 635 340 653 q 271 591 296 615 q 231 546 246 567 l 447 546 l 447 419 l 49 419 q 47 440 47 431 q 47 458 47 449 q 84 581 47 526 q 192 696 121 636 q 252 751 229 728 q 275 800 275 775 q 263 833 275 821 q 226 846 250 846 q 152 830 186 846 q 94 794 118 814 l 22 903 q 115 959 58 933 q 233 985 171 985 q 326 972 288 985 q 388 937 364 960 q 422 883 411 914 q 433 814 433 851 m 967 963 l 474 0 l 282 0 l 778 963 l 967 963 m 1168 179 q 1156 104 1168 139 q 1117 44 1144 69 q 1044 6 1089 19 q 936 -8 1000 -8 q 836 1 888 -8 q 751 26 785 10 l 783 150 q 811 140 797 144 q 841 131 825 135 q 876 124 857 126 q 922 122 896 122 q 1011 178 1011 122 q 997 215 1011 201 q 954 234 982 228 q 885 242 926 240 q 788 243 843 243 q 797 324 792 279 q 806 413 801 369 q 813 495 810 457 q 818 557 815 533 l 1147 557 l 1147 431 l 935 431 q 932 392 933 417 q 928 353 931 368 q 1042 339 996 351 q 1115 304 1088 326 q 1156 250 1143 282 q 1168 179 1168 218 z "},"⅗":{"ha":1219,"x_min":32,"x_max":1168,"o":"m 215 539 q 283 553 264 539 q 303 590 303 568 q 206 647 303 647 l 149 647 l 149 761 l 206 761 q 258 774 238 761 q 279 811 279 786 q 218 856 279 856 q 154 845 186 856 q 93 821 122 835 l 40 931 q 127 969 75 953 q 229 985 179 985 q 323 972 285 985 q 384 938 361 960 q 417 888 407 917 q 426 829 426 860 q 413 774 426 800 q 368 722 400 747 q 433 667 413 701 q 453 589 453 632 q 440 518 453 551 q 400 460 428 485 q 327 422 372 436 q 217 408 282 408 q 167 411 193 408 q 117 419 142 414 q 70 431 92 425 q 32 446 49 438 l 64 569 q 144 544 111 550 q 215 539 176 539 m 942 963 l 449 0 l 257 0 l 753 963 l 942 963 m 1168 179 q 1156 104 1168 139 q 1117 44 1144 69 q 1044 6 1089 19 q 936 -8 1000 -8 q 836 1 888 -8 q 751 26 785 10 l 783 150 q 811 140 797 144 q 841 131 825 135 q 876 124 857 126 q 922 122 896 122 q 1011 178 1011 122 q 997 215 1011 201 q 954 234 982 228 q 885 242 926 240 q 788 243 843 243 q 797 324 792 279 q 806 413 801 369 q 813 495 810 457 q 818 557 815 533 l 1147 557 l 1147 431 l 935 431 q 932 392 933 417 q 928 353 931 368 q 1042 339 996 351 q 1115 304 1088 326 q 1156 250 1143 282 q 1168 179 1168 218 z "},"⅘":{"ha":1219,"x_min":28,"x_max":1168,"o":"m 418 974 l 418 653 l 482 653 l 482 538 l 418 538 l 418 418 l 288 418 l 288 538 l 28 538 l 28 638 q 147 816 86 736 q 281 974 207 896 l 418 974 m 288 819 q 227 742 256 783 q 174 653 199 701 l 288 653 l 288 819 m 961 963 l 468 0 l 276 0 l 772 963 l 961 963 m 1168 179 q 1156 104 1168 139 q 1117 44 1144 69 q 1044 6 1089 19 q 936 -8 1000 -8 q 836 1 888 -8 q 751 26 785 10 l 783 150 q 811 140 797 144 q 841 131 825 135 q 876 124 857 126 q 922 122 896 122 q 1011 178 1011 122 q 997 215 1011 201 q 954 234 982 228 q 885 242 926 240 q 788 243 843 243 q 797 324 792 279 q 806 413 801 369 q 813 495 810 457 q 818 557 815 533 l 1147 557 l 1147 431 l 935 431 q 932 392 933 417 q 928 353 931 368 q 1042 339 996 351 q 1115 304 1088 326 q 1156 250 1143 282 q 1168 179 1168 218 z "},"⅙":{"ha":1219,"x_min":28,"x_max":1182,"o":"m 28 858 q 141 912 86 882 q 236 974 196 942 l 357 974 l 357 419 l 199 419 l 199 794 q 142 766 171 779 q 71 738 113 753 l 28 858 m 931 963 l 438 0 l 246 0 l 742 963 l 931 963 m 964 249 q 928 244 947 249 q 900 235 910 240 q 979 111 892 111 q 1029 132 1014 111 q 1044 179 1044 153 q 1026 231 1044 214 q 964 249 1008 249 m 992 350 q 1079 338 1043 350 q 1138 303 1115 325 q 1172 250 1161 281 q 1182 183 1182 219 q 1169 111 1182 146 q 1132 50 1157 76 q 1068 8 1107 24 q 976 -8 1029 -8 q 813 53 868 -8 q 758 229 758 115 q 784 366 758 306 q 859 469 810 426 q 978 535 908 513 q 1138 558 1049 558 l 1144 435 q 992 406 1046 431 q 910 335 938 382 q 946 345 924 340 q 992 350 968 350 z "},"⅚":{"ha":1219,"x_min":36,"x_max":1182,"o":"m 453 596 q 441 521 453 556 q 401 461 429 486 q 329 422 374 436 q 221 408 285 408 q 121 417 172 408 q 36 443 69 426 l 68 567 q 96 556 82 561 q 126 547 110 551 q 161 541 142 543 q 207 539 181 539 q 296 594 296 539 q 281 631 296 618 q 239 651 267 644 q 169 658 211 657 q 72 660 128 660 q 81 741 76 696 q 90 830 86 786 q 97 912 94 874 q 103 974 100 950 l 432 974 l 432 847 l 219 847 q 217 809 218 833 q 213 769 215 785 q 326 756 281 768 q 400 721 372 743 q 440 667 428 699 q 453 596 453 635 m 967 963 l 474 0 l 282 0 l 778 963 l 967 963 m 964 249 q 928 244 947 249 q 900 235 910 240 q 979 111 892 111 q 1029 132 1014 111 q 1044 179 1044 153 q 1026 231 1044 214 q 964 249 1008 249 m 992 350 q 1079 338 1043 350 q 1138 303 1115 325 q 1172 250 1161 281 q 1182 183 1182 219 q 1169 111 1182 146 q 1132 50 1157 76 q 1068 8 1107 24 q 976 -8 1029 -8 q 813 53 868 -8 q 758 229 758 115 q 784 366 758 306 q 859 469 810 426 q 978 535 908 513 q 1138 558 1049 558 l 1144 435 q 992 406 1046 431 q 910 335 938 382 q 946 345 924 340 q 992 350 968 350 z "},"":{"ha":1219,"x_min":28,"x_max":1183,"o":"m 28 858 q 141 912 86 882 q 236 974 196 942 l 357 974 l 357 419 l 199 419 l 199 794 q 142 766 171 779 q 71 738 113 753 l 28 858 m 896 963 l 403 0 l 211 0 l 707 963 l 896 963 m 844 3 q 903 239 864 139 q 1004 424 942 339 l 757 424 l 757 557 l 1183 557 l 1183 440 q 1127 361 1156 408 q 1074 257 1099 314 q 1030 135 1049 200 q 1003 3 1011 69 l 844 3 z "},"":{"ha":1219,"x_min":22,"x_max":1183,"o":"m 433 814 q 424 758 433 783 q 398 712 414 733 q 361 672 382 690 q 319 635 340 653 q 271 591 296 615 q 231 546 246 567 l 447 546 l 447 419 l 49 419 q 47 440 47 431 q 47 458 47 449 q 84 581 47 526 q 192 696 121 636 q 252 751 229 728 q 275 800 275 775 q 263 833 275 821 q 226 846 250 846 q 152 830 186 846 q 94 794 118 814 l 22 903 q 115 959 58 933 q 233 985 171 985 q 326 972 288 985 q 388 937 364 960 q 422 883 411 914 q 433 814 433 851 m 940 963 l 447 0 l 256 0 l 751 963 l 940 963 m 844 3 q 903 239 864 139 q 1004 424 942 339 l 757 424 l 757 557 l 1183 557 l 1183 440 q 1127 361 1156 408 q 1074 257 1099 314 q 1030 135 1049 200 q 1003 3 1011 69 l 844 3 z "},"":{"ha":1219,"x_min":32,"x_max":1183,"o":"m 215 539 q 283 553 264 539 q 303 590 303 568 q 206 647 303 647 l 149 647 l 149 761 l 206 761 q 258 774 238 761 q 279 811 279 786 q 218 856 279 856 q 154 845 186 856 q 93 821 122 835 l 40 931 q 127 969 75 953 q 229 985 179 985 q 323 972 285 985 q 384 938 361 960 q 417 888 407 917 q 426 829 426 860 q 413 774 426 800 q 368 722 400 747 q 433 667 413 701 q 453 589 453 632 q 440 518 453 551 q 400 460 428 485 q 327 422 372 436 q 217 408 282 408 q 167 411 193 408 q 117 419 142 414 q 70 431 92 425 q 32 446 49 438 l 64 569 q 144 544 111 550 q 215 539 176 539 m 918 963 l 425 0 l 233 0 l 729 963 l 918 963 m 844 3 q 903 239 864 139 q 1004 424 942 339 l 757 424 l 757 557 l 1183 557 l 1183 440 q 1127 361 1156 408 q 1074 257 1099 314 q 1030 135 1049 200 q 1003 3 1011 69 l 844 3 z "},"":{"ha":1219,"x_min":28,"x_max":1183,"o":"m 418 974 l 418 653 l 482 653 l 482 538 l 418 538 l 418 418 l 288 418 l 288 538 l 28 538 l 28 638 q 147 816 86 736 q 281 974 207 896 l 418 974 m 288 819 q 227 742 256 783 q 174 653 199 701 l 288 653 l 288 819 m 936 963 l 443 0 l 251 0 l 747 963 l 936 963 m 844 3 q 903 239 864 139 q 1004 424 942 339 l 757 424 l 757 557 l 1183 557 l 1183 440 q 1127 361 1156 408 q 1074 257 1099 314 q 1030 135 1049 200 q 1003 3 1011 69 l 844 3 z "},"":{"ha":1219,"x_min":36,"x_max":1183,"o":"m 453 596 q 441 521 453 556 q 401 461 429 486 q 329 422 374 436 q 221 408 285 408 q 121 417 172 408 q 36 443 69 426 l 68 567 q 96 556 82 561 q 126 547 110 551 q 161 541 142 543 q 207 539 181 539 q 296 594 296 539 q 281 631 296 618 q 239 651 267 644 q 169 658 211 657 q 72 660 128 660 q 81 741 76 696 q 90 830 86 786 q 97 912 94 874 q 103 974 100 950 l 432 974 l 432 847 l 219 847 q 217 809 218 833 q 213 769 215 785 q 326 756 281 768 q 400 721 372 743 q 440 667 428 699 q 453 596 453 635 m 918 963 l 425 0 l 233 0 l 729 963 l 918 963 m 844 3 q 903 239 864 139 q 1004 424 942 339 l 757 424 l 757 557 l 1183 557 l 1183 440 q 1127 361 1156 408 q 1074 257 1099 314 q 1030 135 1049 200 q 1003 3 1011 69 l 844 3 z "},"":{"ha":1219,"x_min":43,"x_max":1183,"o":"m 249 665 q 213 661 232 665 q 185 651 194 657 q 264 528 176 528 q 314 549 299 528 q 329 596 329 569 q 311 648 329 631 q 249 665 293 665 m 276 767 q 364 754 328 767 q 423 719 400 742 q 456 667 446 697 q 467 600 467 636 q 454 528 467 563 q 417 467 442 493 q 353 424 392 440 q 261 408 314 408 q 98 470 153 408 q 43 646 43 532 q 69 783 43 722 q 144 886 94 843 q 263 952 193 929 q 422 975 333 975 l 429 851 q 276 823 331 847 q 194 751 222 799 q 231 762 208 757 q 276 767 253 767 m 921 963 l 428 0 l 236 0 l 732 963 l 921 963 m 844 3 q 903 239 864 139 q 1004 424 942 339 l 757 424 l 757 557 l 1183 557 l 1183 440 q 1127 361 1156 408 q 1074 257 1099 314 q 1030 135 1049 200 q 1003 3 1011 69 l 844 3 z "},"":{"ha":1219,"x_min":28,"x_max":1181,"o":"m 28 858 q 141 912 86 882 q 236 974 196 942 l 357 974 l 357 419 l 199 419 l 199 794 q 142 766 171 779 q 71 738 113 753 l 28 858 m 911 963 l 418 0 l 226 0 l 722 963 l 911 963 m 976 314 q 1012 318 993 314 q 1040 328 1031 322 q 964 451 1049 451 q 913 432 929 451 q 896 386 896 413 q 914 333 896 351 q 976 314 932 314 m 947 210 q 860 223 896 210 q 801 259 824 236 q 767 313 778 282 q 757 381 757 344 q 769 451 757 417 q 807 510 782 485 q 871 552 832 536 q 963 568 910 568 q 1126 505 1071 568 q 1181 331 1181 442 q 1089 90 1181 178 q 801 1 997 1 l 794 125 q 954 152 901 128 q 1031 225 1007 176 q 994 215 1017 219 q 947 210 971 210 z "},"":{"ha":1219,"x_min":22,"x_max":1181,"o":"m 433 814 q 424 758 433 783 q 398 712 414 733 q 361 672 382 690 q 319 635 340 653 q 271 591 296 615 q 231 546 246 567 l 447 546 l 447 419 l 49 419 q 47 440 47 431 q 47 458 47 449 q 84 581 47 526 q 192 696 121 636 q 252 751 229 728 q 275 800 275 775 q 263 833 275 821 q 226 846 250 846 q 152 830 186 846 q 94 794 118 814 l 22 903 q 115 959 58 933 q 233 985 171 985 q 326 972 288 985 q 388 937 364 960 q 422 883 411 914 q 433 814 433 851 m 960 963 l 467 0 l 275 0 l 771 963 l 960 963 m 976 314 q 1012 318 993 314 q 1040 328 1031 322 q 964 451 1049 451 q 913 432 929 451 q 896 386 896 413 q 914 333 896 351 q 976 314 932 314 m 947 210 q 860 223 896 210 q 801 259 824 236 q 767 313 778 282 q 757 381 757 344 q 769 451 757 417 q 807 510 782 485 q 871 552 832 536 q 963 568 910 568 q 1126 505 1071 568 q 1181 331 1181 442 q 1089 90 1181 178 q 801 1 997 1 l 794 125 q 954 152 901 128 q 1031 225 1007 176 q 994 215 1017 219 q 947 210 971 210 z "}}}
